<svg width="412" height="917" viewBox="0 0 412 917" fill="none" xmlns="http://www.w3.org/2000/svg">
<g clip-path="url(#clip0_459_4252)">
<rect width="412" height="917" rx="40" fill="#EBF3FA"/>
<path d="M119.738 262C50.738 314.5 0.238026 278.5 0.238026 278.5C-0.0536596 169.741 -0.104029 108.757 0.238031 0H230.738C230.738 0 244.332 40.3595 230.738 77.5C211.616 129.742 136.738 105 136.738 142.5C136.738 180 188.738 209.5 119.738 262Z" fill="#031837" fill-opacity="0.6" style="mix-blend-mode:exclusion"/>
<path d="M309 595C336.042 574.425 415.542 540.5 415.542 540.5C415.833 649.259 415.884 807.783 415.542 916.54H52.5C52.5 916.54 153.906 858.64 167.5 821.5C186.622 769.258 220.5 718.5 254.5 704C288.5 689.5 281.958 615.575 309 595Z" fill="#031837" fill-opacity="0.6" style="mix-blend-mode:exclusion"/>
</g>
<defs>
<clipPath id="clip0_459_4252">
<rect width="412" height="917" rx="40" fill="white"/>
</clipPath>
</defs>
</svg>
