<svg width="25" height="24" viewBox="0 0 25 24" fill="none" xmlns="http://www.w3.org/2000/svg">
<g clip-path="url(#clip0_260_14219)">
<path d="M8.86129 0.789921C6.46331 1.6218 4.39531 3.20073 2.96102 5.2948C1.52673 7.38887 0.80177 9.88769 0.892615 12.4242C0.983461 14.9608 1.88533 17.4013 3.46574 19.3874C5.04616 21.3735 7.22182 22.8005 9.67316 23.4587C11.6605 23.9715 13.7427 23.994 15.7407 23.5243C17.5506 23.1177 19.224 22.2481 20.5969 21.0005C22.0258 19.6624 23.063 17.9602 23.5969 16.0768C24.1773 14.0287 24.2805 11.8748 23.8988 9.78055H12.7388V14.4099H19.2019C19.0727 15.1483 18.7959 15.853 18.3881 16.4819C17.9802 17.1107 17.4496 17.6509 16.8282 18.0699C16.0389 18.592 15.1493 18.9432 14.2163 19.1012C13.2806 19.2752 12.3208 19.2752 11.385 19.1012C10.4366 18.9051 9.53947 18.5137 8.75066 17.9518C7.48344 17.0548 6.53193 15.7804 6.03191 14.3105C5.52344 12.8132 5.52344 11.1898 6.03191 9.69242C6.38784 8.64283 6.97622 7.68717 7.75316 6.89679C8.64227 5.9757 9.76791 5.31729 11.0066 4.99381C12.2452 4.67034 13.5491 4.69429 14.775 5.06305C15.7327 5.35703 16.6085 5.87068 17.3325 6.56305C18.0613 5.83805 18.7888 5.11117 19.515 4.38242C19.89 3.99055 20.2988 3.61742 20.6682 3.21617C19.563 2.18769 18.2657 1.3874 16.8507 0.861171C14.2739 -0.0744733 11.4544 -0.0996178 8.86129 0.789921Z" fill="black"/>
<path d="M8.86144 0.788879C11.4543 -0.101264 14.2738 -0.0767817 16.8508 0.858254C18.2661 1.38806 19.5628 2.1922 20.6664 3.2245C20.2914 3.62575 19.8958 4.00075 19.5133 4.39075C18.7858 5.117 18.0589 5.84075 17.3327 6.562C16.6086 5.86964 15.7329 5.35599 14.7752 5.062C13.5496 4.69196 12.2458 4.66662 11.0068 4.98877C9.76785 5.31092 8.64152 5.96812 7.75144 6.88825C6.9745 7.67863 6.38611 8.63428 6.03019 9.68388L2.14331 6.6745C3.53458 3.91556 5.94346 1.80517 8.86144 0.788879Z" fill="#E33629"/>
<path d="M1.11189 9.65605C1.3208 8.62067 1.66765 7.61798 2.14314 6.6748L6.03001 9.69168C5.52154 11.1891 5.52154 12.8124 6.03001 14.3098C4.73501 15.3098 3.43939 16.3148 2.14314 17.3248C0.952797 14.9554 0.589763 12.2557 1.11189 9.65605Z" fill="#F8BD00"/>
<path d="M12.7386 9.77832H23.8986C24.2804 11.8726 24.1771 14.0264 23.5968 16.0746C23.0628 17.958 22.0257 19.6602 20.5968 20.9983C19.3424 20.0196 18.0824 19.0483 16.828 18.0696C17.4499 17.6501 17.9807 17.1094 18.3886 16.4798C18.7965 15.8503 19.0731 15.1448 19.2018 14.4058H12.7386C12.7368 12.8646 12.7386 11.3214 12.7386 9.77832Z" fill="#587DBD"/>
<path d="M2.14185 17.3255C3.4381 16.3255 4.73372 15.3205 6.02872 14.3105C6.52973 15.7809 7.4826 17.0553 8.75122 17.9518C9.54249 18.511 10.4416 18.8993 11.3912 19.0918C12.327 19.2658 13.2867 19.2658 14.2225 19.0918C15.1555 18.9339 16.0451 18.5826 16.8343 18.0605C18.0887 19.0393 19.3487 20.0105 20.6031 20.9893C19.2304 22.2375 17.557 23.1078 15.7468 23.5149C13.7489 23.9846 11.6667 23.9621 9.67935 23.4493C8.10754 23.0296 6.63936 22.2898 5.36685 21.2762C4.01996 20.2068 2.91989 18.8592 2.14185 17.3255Z" fill="#319F43"/>
</g>
<defs>
<clipPath id="clip0_260_14219">
<rect width="24" height="24" fill="white" transform="translate(0.500488)"/>
</clipPath>
</defs>
</svg>
