<svg width="111" height="147" viewBox="0 0 111 147" fill="none" xmlns="http://www.w3.org/2000/svg">
<path d="M100.495 44.9582C96.3341 41.798 91.0889 39.8258 85.7487 39.713C80.4661 39.5608 75.3523 40.8721 71.067 43.932C69.0419 45.3229 67.4693 46.7398 65.5284 47.9866C62.4433 50.0251 58.7657 50.7547 54.9293 50.5348C50.5655 50.4522 47.212 47.639 43.4677 45.6029C40.5295 43.9461 37.1126 42.7161 33.701 42.3057C19.8687 40.7123 8.89932 47.3314 3.74487 59.978C1.93726 64.4424 0.996675 69.0481 0.766613 73.7758C0.533387 80.7119 1.71786 87.6153 3.30263 94.3359C4.97551 101.275 7.20602 108.077 9.99994 114.658C10.9495 116.877 12.0267 119.104 13.1886 121.218C17.1321 128.462 21.9467 135.311 28.6482 140.417C32.8839 143.586 38.0147 146.045 43.4218 146.306C46.2756 146.399 49.1337 145.429 51.522 143.995C53.4831 142.854 55.429 141.298 57.3957 140.222C58.9583 139.36 60.5532 138.787 62.2877 138.66C64.052 138.547 65.849 138.763 67.5188 139.321C71.2487 140.551 74.0954 143.658 78.0296 144.686C83.4305 146.235 89.2512 143.78 93.0228 140.036C94.8268 138.294 96.2896 136.259 97.4703 134.076C99.3477 130.574 100.495 126.722 100.963 122.813C98.3881 127.57 95.5811 132.283 91.4083 135.831C89.0472 137.845 86.0444 139.513 82.9696 139.8C80.266 140.015 78.1054 139.405 75.4827 138.314C74.0796 137.746 72.5417 137.098 70.9189 136.598C67.6615 135.599 64.2021 135.167 60.8052 135.467C57.4584 135.806 54.2567 137.243 51.2848 138.461C48.1388 139.745 45.324 140.557 42.0812 139.56C30.3027 136.232 22.8838 121.819 18.8471 111.235C15.3566 101.573 12.6276 91.5466 11.3789 81.3666C11.1101 78.941 10.9398 76.4949 10.9623 74.0595C11.0298 70.389 11.6007 66.5994 12.6767 63.1498C15.0331 55.4342 20.2608 49.9394 28.5514 48.8004C35.2642 47.8431 39.5127 48.905 45.5512 51.793C48.1383 52.992 51.6452 54.2189 55.3594 54.3577C58.7062 54.4827 62.215 54.1752 65.4163 53.0547C68.5091 52.0135 71.3313 50.1449 74.0644 48.7083C77.6691 46.7684 81.5661 46.0337 85.6276 45.9273C92.659 45.7092 99.4748 49.2444 103.835 54.6696C107.584 59.2772 109.465 65.1171 110.263 71.0309C112.039 61.5033 108.57 50.9244 100.495 44.9582Z" fill="#B74444"/>
<path d="M53.9123 38.6054C63.1839 38.618 72.3908 33.8382 77.2467 26.1163C72.3938 31.8072 64.8817 35.2073 57.4496 35.1154C58.4211 23.9078 62.0542 14.3767 72.329 8.10855C75.5195 6.19874 78.8168 4.40163 82.3802 3.31057C82.5175 3.27123 82.6668 3.23073 82.8182 3.19139C83.4389 5.35991 83.5694 7.65472 83.4727 9.91534C83.3293 12.6295 82.7467 15.3258 81.8312 17.904C84.135 13.5563 85.4632 8.61594 85.1248 3.67959C85.0742 2.98801 84.9913 2.28719 84.8415 1.60414C84.8222 1.48886 84.605 0.762556 84.5734 0.628183L83.6452 0.614862C79.201 0.593547 72.4196 3.5199 68.5848 5.73541C57.4462 12.2341 52.5805 23.7738 53.497 36.6464C53.5612 37.5508 53.9123 38.6054 53.9123 38.6054Z" fill="#95C14F"/>
<g clip-path="url(#clip0_1111_5407)">
<path d="M29.1532 90.6814V120.36H38.5239H47.8946V104.952C47.8946 92.5116 47.8024 89.0985 47.4337 87.0952C47.1879 85.7349 46.8807 84.3994 46.7885 84.1273C46.7271 83.8552 47.9253 85.636 49.4922 88.0845C51.1513 90.6567 56.8966 98.4227 63.1028 106.461L73.8253 120.36H83.1345H92.4438V90.6814V61.0024H83.2267H74.0096V72.5525C74.0096 83.4348 74.2554 87.7135 75.1157 91.8933C75.2386 92.5363 74.747 91.9922 73.303 89.791C71.3981 86.9221 68.3565 82.9649 56.5586 68.0512L51.0898 61.1261L40.1215 61.0519L29.1532 61.0024V90.6814Z" fill="#B74444"/>
</g>
<g filter="url(#filter0_d_1111_5407)">
<ellipse cx="77.4232" cy="104.951" rx="21.308" ry="20.9621" fill="#B74444"/>
<path d="M97.4945 104.951C97.4945 115.826 88.5275 124.676 77.4232 124.676C66.3189 124.676 57.3519 115.826 57.3519 104.951C57.3519 94.0758 66.3189 85.2254 77.4232 85.2254C88.5275 85.2254 97.4945 94.0758 97.4945 104.951Z" stroke="white" stroke-width="2.47325"/>
</g>
<ellipse cx="83.638" cy="96.9105" rx="2.4662" ry="2.39294" fill="white"/>
<defs>
<filter id="filter0_d_1111_5407" x="53.0712" y="80.9448" width="48.7039" height="48.0123" filterUnits="userSpaceOnUse" color-interpolation-filters="sRGB">
<feFlood flood-opacity="0" result="BackgroundImageFix"/>
<feColorMatrix in="SourceAlpha" type="matrix" values="0 0 0 0 0 0 0 0 0 0 0 0 0 0 0 0 0 0 127 0" result="hardAlpha"/>
<feMorphology radius="0.760999" operator="dilate" in="SourceAlpha" result="effect1_dropShadow_1111_5407"/>
<feOffset/>
<feGaussianBlur stdDeviation="1.1415"/>
<feComposite in2="hardAlpha" operator="out"/>
<feColorMatrix type="matrix" values="0 0 0 0 0 0 0 0 0 0 0 0 0 0 0 0 0 0 0.25 0"/>
<feBlend mode="normal" in2="BackgroundImageFix" result="effect1_dropShadow_1111_5407"/>
<feBlend mode="normal" in="SourceGraphic" in2="effect1_dropShadow_1111_5407" result="shape"/>
</filter>
<clipPath id="clip0_1111_5407">
<rect width="63.2906" height="59.3579" fill="white" transform="translate(29.1532 61.0024)"/>
</clipPath>
</defs>
</svg>
