<svg width="342" height="215" viewBox="0 0 342 215" fill="none" xmlns="http://www.w3.org/2000/svg">
<path d="M32.0499 214.517C32.0499 214.517 -2.55672 197.171 13.448 138.23C21.1299 109.939 44.3267 109.264 72.1999 76.8758C89.3991 56.8908 78.3341 -4.18882 163.049 0.227615C268.69 5.73507 296.305 96.2792 296.762 100.4C298.344 114.71 305.052 123.464 312.376 131.68C314.607 134.184 316.896 136.637 319.114 139.182C319.386 139.493 319.657 139.807 319.926 140.122C322.702 143.364 325.342 146.783 327.588 150.66C335.032 163.505 338.163 181.392 327.662 214.691L32.0499 214.517Z" fill="#E9E6DA" fill-opacity="0.7"/>
<path d="M148.608 81.1543H104.197V213.919H148.608V81.1543Z" fill="#B6D1F8"/>
<path d="M30.1031 129.303C34.8879 117.242 53.5814 124.334 53.5814 124.334C53.5814 124.334 63.661 148.478 67.3877 149.627C71.1143 150.776 62.4234 127.127 62.4234 127.127C69.8872 127.553 87.2914 140.589 87.2914 140.589C87.2914 140.589 82.635 166.056 86.5033 166.158C90.3716 166.259 89.5836 143.376 89.5836 143.376C96.3852 146.905 101.791 157.163 101.791 157.163C108.08 173.457 88.7928 181.525 88.7928 181.525C88.7928 181.525 87.3516 190.389 90.955 201.422C90.955 201.422 91.825 203.493 92.5352 206.886L90.594 206.566C90.5131 205.966 90.4134 205.382 90.292 204.817C90.2925 204.813 90.2917 204.81 90.2896 204.807C90.2878 204.799 90.2859 204.791 90.2841 204.783C90.196 204.43 90.0685 203.927 89.9079 203.314L89.9072 203.312L89.9063 203.309C89.4866 201.931 89.2137 200.919 89.0527 200.194C89.052 200.191 89.0517 200.187 89.0517 200.187C87.8183 195.874 85.9667 190.214 84.4079 188.834C84.4079 188.834 84.6678 188.536 84.9563 187.92C84.7814 188.211 84.5991 188.515 84.4079 188.834C80.0231 196.143 63.2322 194.718 54.2592 191.099C45.2862 187.481 49.7105 185.265 55.3267 181.41C60.9429 177.555 71.2192 180.506 74.5524 179.181C77.8856 177.856 73.6241 175.281 67.3824 174.789C61.1408 174.297 57.1349 180.598 47.0249 180.004C36.9151 179.411 32.1172 157.474 32.1172 157.474C38.6814 160.964 51.5895 158.805 52.4182 156.265C53.247 153.724 34.9364 150.978 32.1945 149.724C29.4527 148.47 25.3182 141.364 30.1031 129.303Z" fill="#82B378"/>
<path d="M271.282 60.1789C266.366 47.7864 247.159 55.0731 247.159 55.0731C247.159 55.0731 236.803 79.8803 232.974 81.0606C229.145 82.2408 238.075 57.9435 238.075 57.9435C230.406 58.3805 212.524 71.7749 212.524 71.7749C212.524 71.7749 217.308 97.9406 213.334 98.0448C209.36 98.1489 210.169 74.6379 210.169 74.6379C203.181 78.2634 197.626 88.8038 197.626 88.8038C191.165 105.544 210.982 113.834 210.982 113.834C210.982 113.834 212.462 122.941 208.76 134.277C208.76 134.277 207.866 136.405 207.137 139.891L209.131 139.563C209.214 138.946 209.317 138.346 209.441 137.765C209.441 137.761 209.442 137.758 209.444 137.755C209.446 137.746 209.448 137.738 209.449 137.73C209.54 137.367 209.671 136.851 209.836 136.221L209.837 136.219L209.838 136.216C210.269 134.8 210.549 133.76 210.715 133.015C210.716 133.013 210.716 133.008 210.716 133.008C211.983 128.577 213.885 122.761 215.487 121.343C215.487 121.343 215.22 121.037 214.924 120.404C215.103 120.704 215.291 121.016 215.487 121.343C219.992 128.853 237.244 127.389 246.463 123.671C255.682 119.953 251.137 117.676 245.366 113.716C239.596 109.755 229.038 112.787 225.613 111.426C222.188 110.064 226.567 107.418 232.98 106.913C239.393 106.407 243.509 112.881 253.896 112.271C264.283 111.662 269.213 89.1231 269.213 89.1231C262.469 92.7084 249.206 90.4907 248.355 87.8805C247.503 85.2703 266.316 82.449 269.133 81.1602C271.95 79.871 276.198 72.5711 271.282 60.1789Z" fill="#82B378"/>
<path d="M47.0514 192.156C47.0514 192.156 21.6923 193.319 16.1161 207.316C16.1161 207.316 15.0894 210.478 19.1034 210.995C23.1173 211.513 35.3013 194.772 47.0514 193.222V192.156Z" fill="#82B378"/>
<path d="M47.0514 191.017C47.0514 191.017 33.1149 177.173 22.483 182.034C11.8512 186.895 29.9238 187.257 35.318 188.269C40.7122 189.281 47.0514 192.157 47.0514 192.157V191.017Z" fill="#82B378"/>
<path d="M46.6922 194.315C46.6922 194.315 33.9911 199.055 36.1462 206.632C38.3013 214.21 46.6922 194.315 46.6922 194.315Z" fill="#82B378"/>
<path d="M147.569 209.522C147.298 212.091 145.477 214.043 143.345 214.049L54.7519 214.269C48.5797 213.478 44.1763 206.694 44.9664 199.193L45.5208 193.932C46.36 185.966 52.41 180.137 58.9652 180.978L144.781 204.652C146.61 205.157 147.808 207.249 147.569 209.522Z" fill="#F99746"/>
<path d="M60.5329 196.723L59.8167 203.52C59.7947 203.728 59.6222 203.879 59.4332 203.855L59.3156 203.84C59.1267 203.816 58.9901 203.625 59.0119 203.417L59.7281 196.62C59.75 196.411 59.9226 196.261 60.1116 196.285L60.2293 196.3C60.4183 196.324 60.5549 196.515 60.5329 196.723Z" fill="#ED7D2B"/>
<path d="M66.0349 203.486L65.3187 210.283C65.2968 210.491 65.1242 210.642 64.9352 210.618L64.8176 210.603C64.6287 210.578 64.4919 210.388 64.5139 210.18L65.2301 203.383C65.2521 203.174 65.4246 203.023 65.6136 203.047L65.7312 203.063C65.9203 203.087 66.0569 203.277 66.0349 203.486Z" fill="#ED7D2B"/>
<path d="M83.453 196.723L82.7368 203.52C82.7148 203.728 82.5423 203.879 82.3533 203.855L82.2356 203.84C82.0468 203.816 81.91 203.625 81.932 203.417L82.6482 196.62C82.6702 196.411 82.8426 196.261 83.0317 196.285L83.1493 196.3C83.3383 196.324 83.4748 196.515 83.453 196.723Z" fill="#ED7D2B"/>
<path d="M85.8497 203.749L85.1335 210.546C85.1117 210.755 84.9391 210.906 84.75 210.881L84.6324 210.866C84.4435 210.842 84.3067 210.652 84.3287 210.443L85.0449 203.646C85.0668 203.438 85.2394 203.287 85.4284 203.311L85.5461 203.326C85.7349 203.351 85.8717 203.541 85.8497 203.749Z" fill="#ED7D2B"/>
<path d="M91.0439 194.756L90.3279 201.553C90.3059 201.761 90.1334 201.912 89.9444 201.888L89.8267 201.873C89.6378 201.849 89.5011 201.659 89.5231 201.45L90.2392 194.653C90.2612 194.445 90.4337 194.294 90.6227 194.318L90.7404 194.333C90.9293 194.357 91.0659 194.548 91.0439 194.756Z" fill="#ED7D2B"/>
<path d="M100.997 197.314L100.542 201.625C100.525 201.794 100.385 201.916 100.232 201.896L99.9834 201.864C99.8305 201.845 99.7198 201.691 99.7376 201.522L100.192 197.211C100.21 197.042 100.349 196.92 100.502 196.94L100.751 196.972C100.904 196.991 101.014 197.145 100.997 197.314Z" fill="#ED7D2B"/>
<path d="M102.254 203.608L101.8 207.919C101.782 208.088 101.642 208.21 101.489 208.191L101.241 208.159C101.088 208.139 100.977 207.985 100.995 207.816L101.449 203.505C101.467 203.336 101.607 203.214 101.76 203.234L102.008 203.266C102.161 203.285 102.272 203.44 102.254 203.608Z" fill="#ED7D2B"/>
<path d="M107 197.079L106.484 201.98C106.465 202.159 106.317 202.288 106.154 202.268L105.94 202.24C105.778 202.219 105.66 202.056 105.679 201.876L106.196 196.976C106.215 196.797 106.363 196.667 106.525 196.688L106.739 196.715C106.902 196.736 107.019 196.9 107 197.079Z" fill="#ED7D2B"/>
<path d="M112.695 202.67L112.179 207.57C112.16 207.75 112.012 207.879 111.849 207.858L111.635 207.831C111.473 207.81 111.355 207.647 111.374 207.467L111.89 202.567C111.909 202.387 112.058 202.258 112.22 202.279L112.434 202.306C112.597 202.327 112.714 202.49 112.695 202.67Z" fill="#ED7D2B"/>
<path d="M117.141 200.269L116.625 205.169C116.606 205.349 116.458 205.478 116.295 205.458L116.081 205.43C115.919 205.409 115.801 205.246 115.82 205.066L116.337 200.166C116.355 199.986 116.504 199.857 116.666 199.878L116.88 199.905C117.043 199.926 117.16 200.09 117.141 200.269Z" fill="#ED7D2B"/>
<path d="M118.913 206.869L118.397 211.77C118.378 211.949 118.23 212.079 118.067 212.058L117.853 212.031C117.691 212.01 117.573 211.846 117.592 211.667L118.108 206.766C118.127 206.587 118.276 206.457 118.438 206.478L118.652 206.506C118.815 206.526 118.932 206.69 118.913 206.869Z" fill="#ED7D2B"/>
<path d="M114.555 209.597L114.316 211.866C114.303 211.993 114.198 212.085 114.083 212.07L113.696 212.02C113.581 212.005 113.498 211.889 113.511 211.763L113.75 209.494C113.764 209.367 113.869 209.275 113.983 209.29L114.371 209.34C114.486 209.355 114.568 209.47 114.555 209.597Z" fill="#ED7D2B"/>
<path d="M110.913 198.585L110.674 200.855C110.66 200.981 110.556 201.073 110.441 201.058L110.054 201.008C109.939 200.993 109.856 200.878 109.869 200.751L110.108 198.482C110.122 198.355 110.226 198.264 110.341 198.278L110.728 198.328C110.843 198.343 110.926 198.459 110.913 198.585Z" fill="#ED7D2B"/>
<path d="M108.054 206.286L107.538 211.187C107.519 211.366 107.37 211.495 107.208 211.475L106.994 211.447C106.832 211.426 106.714 211.263 106.733 211.083L107.249 206.183C107.268 206.004 107.417 205.874 107.579 205.895L107.793 205.922C107.955 205.943 108.073 206.107 108.054 206.286Z" fill="#ED7D2B"/>
<path d="M96.6006 206.581L96.1463 210.892C96.1285 211.06 95.9889 211.182 95.836 211.163L95.5874 211.131C95.4344 211.111 95.3239 210.957 95.3417 210.789L95.7959 206.477C95.8137 206.309 95.9534 206.187 96.1063 206.206L96.3548 206.238C96.5078 206.258 96.6184 206.412 96.6006 206.581Z" fill="#ED7D2B"/>
<path d="M56.5043 200.698L55.5029 210.203C55.4772 210.447 55.2751 210.623 55.0538 210.595C54.8325 210.567 54.6726 210.344 54.6983 210.099L55.6996 200.595C55.7254 200.351 55.9275 200.174 56.1487 200.203C56.3701 200.231 56.5301 200.454 56.5043 200.698Z" fill="#ED7D2B"/>
<path d="M65.1427 188.946L64.6855 193.286C64.6675 193.456 64.5267 193.579 64.3725 193.559L64.1284 193.528C63.9743 193.508 63.8628 193.352 63.8807 193.182L64.3379 188.842C64.3559 188.672 64.4967 188.549 64.6509 188.569L64.895 188.6C65.0491 188.62 65.1607 188.775 65.1427 188.946Z" fill="#ED7D2B"/>
<path d="M74.6972 188.946L74.24 193.286C74.222 193.456 74.0813 193.579 73.927 193.559L73.6829 193.528C73.5288 193.508 73.4174 193.352 73.4352 193.182L73.8924 188.842C73.9104 188.672 74.0511 188.549 74.2052 188.569L74.4493 188.6C74.6037 188.62 74.7152 188.775 74.6972 188.946Z" fill="#ED7D2B"/>
<path d="M70.5718 195.984L70.1145 200.324C70.0966 200.494 69.9557 200.617 69.8016 200.597L69.5575 200.566C69.4033 200.546 69.2919 200.391 69.3098 200.221L69.7671 195.881C69.785 195.711 69.9257 195.588 70.08 195.608L70.3241 195.639C70.4782 195.659 70.5897 195.814 70.5718 195.984Z" fill="#ED7D2B"/>
<path d="M50.7781 188.946L50.3208 193.286C50.3029 193.456 50.162 193.579 50.0079 193.559L49.7638 193.528C49.6096 193.508 49.4982 193.352 49.5161 193.182L49.9734 188.842C49.9913 188.672 50.132 188.549 50.2863 188.569L50.5304 188.6C50.6845 188.62 50.796 188.775 50.7781 188.946Z" fill="#ED7D2B"/>
<path d="M50.7781 199.351L50.3208 203.691C50.3029 203.861 50.162 203.985 50.0079 203.965L49.7638 203.933C49.6096 203.914 49.4982 203.758 49.5161 203.588L49.9734 199.248C49.9913 199.078 50.132 198.955 50.2863 198.975L50.5304 199.006C50.6845 199.026 50.796 199.181 50.7781 199.351Z" fill="#ED7D2B"/>
<path d="M55.0151 191.315L54.3721 197.418C54.3513 197.616 54.1872 197.76 54.0073 197.736L53.8562 197.717C53.6765 197.694 53.5465 197.513 53.5673 197.315L54.2102 191.212C54.2311 191.014 54.3953 190.87 54.575 190.894L54.7261 190.913C54.906 190.936 55.036 191.117 55.0151 191.315Z" fill="#ED7D2B"/>
<path d="M59.3308 183.721L58.6878 189.823C58.6669 190.021 58.5027 190.165 58.323 190.142L58.1719 190.122C57.9921 190.099 57.8621 189.918 57.883 189.72L58.526 183.618C58.5469 183.419 58.7111 183.276 58.8908 183.299L59.0419 183.318C59.2217 183.341 59.3517 183.522 59.3308 183.721Z" fill="#ED7D2B"/>
<path d="M73.6566 202.407L72.896 209.627C72.8735 209.841 72.6959 209.996 72.5015 209.971L72.4034 209.959C72.2091 209.934 72.0687 209.738 72.0912 209.523L72.8518 202.304C72.8745 202.089 73.0519 201.934 73.2463 201.959L73.3444 201.972C73.5387 201.997 73.6793 202.192 73.6566 202.407Z" fill="#ED7D2B"/>
<path d="M80.037 190.97L79.0357 200.475C79.0098 200.719 78.8077 200.895 78.5865 200.867C78.3652 200.839 78.2053 200.616 78.231 200.371L79.2323 190.867C79.2581 190.623 79.4601 190.446 79.6815 190.475C79.9027 190.503 80.0627 190.726 80.037 190.97Z" fill="#ED7D2B"/>
<path d="M126.402 89.6461C138.666 89.6461 148.608 85.8436 148.608 81.1531C148.608 76.4626 138.666 72.6602 126.402 72.6602C114.139 72.6602 104.197 76.4626 104.197 81.1531C104.197 85.8436 114.139 89.6461 126.402 89.6461Z" fill="#C2DBFD"/>
<path d="M204.457 55.9468H160.046V213.918H204.457V55.9468Z" fill="#F2C5A0"/>
<path d="M182.252 64.4395C194.516 64.4395 204.457 60.6371 204.457 55.9466C204.457 51.256 194.516 47.4536 182.252 47.4536C169.988 47.4536 160.047 51.256 160.047 55.9466C160.047 60.6371 169.988 64.4395 182.252 64.4395Z" fill="#F5D1B7"/>
<path d="M254.401 120.572H217.835V213.918H254.401V120.572Z" fill="#D8E3B7"/>
<path d="M236.118 129.065C246.216 129.065 254.401 125.262 254.401 120.572C254.401 115.881 246.216 112.079 236.118 112.079C226.021 112.079 217.836 115.881 217.836 120.572C217.836 125.262 226.021 129.065 236.118 129.065Z" fill="#DCE9BF"/>
<path d="M308.112 161.346V205.328C308.112 210.073 304.626 213.919 300.326 213.919H235.956C231.655 213.919 228.168 210.073 228.168 205.328V197.073C229.997 196.419 231.47 194.672 231.47 192.531C231.47 190.278 230.407 187.611 228.168 187.322V161.818C228.865 161.613 229.527 161.184 230.023 160.59C231.073 159.333 230.91 157.232 229.957 155.867C231.386 153.966 233.542 152.755 235.956 152.755H300.326C304.626 152.755 308.112 156.601 308.112 161.346Z" fill="#FFA412"/>
<path d="M276.18 159.641V207.032C276.18 210.835 273.386 213.918 269.939 213.918H228.168V197.072C229.997 196.418 231.47 194.671 231.47 192.531C231.47 190.277 230.407 187.61 228.168 187.321V182.121C228.889 182.043 229.604 181.791 230.273 181.402C232.34 180.199 233.964 177.682 233.964 174.912C233.964 171.651 231.12 169.233 228.168 168.993V161.817C228.865 161.613 229.527 161.184 230.023 160.59C231.073 159.332 230.91 157.232 229.957 155.867C229.839 155.698 229.709 155.541 229.568 155.398C229.158 154.981 228.674 154.708 228.168 154.573V152.755H269.939C273.386 152.755 276.18 155.838 276.18 159.641Z" fill="#FFB93E"/>
<path d="M252.673 176.505C252.673 179.275 251.049 181.791 248.982 182.995C248.165 183.47 247.281 183.74 246.399 183.74C244.969 183.74 243.662 183.154 242.669 182.185C242.667 182.182 242.665 182.181 242.663 182.178C241.494 181.039 240.758 179.372 240.758 177.516C240.758 174.078 243.283 170.567 246.399 170.567C249.514 170.567 252.673 173.068 252.673 176.505Z" fill="#FFA412"/>
<path opacity="0.5" d="M251.713 177.678C251.713 179.865 250.545 181.869 248.982 182.995C248.165 183.47 247.281 183.741 246.399 183.741C244.968 183.741 243.662 183.154 242.669 182.185C242.666 182.182 242.665 182.181 242.663 182.178C241.874 181.221 241.393 179.949 241.393 178.554C241.393 175.578 243.581 172.536 246.278 172.536C248.977 172.536 251.713 174.702 251.713 177.678Z" fill="#FFB93E"/>
<path d="M236.082 165.406C235.049 164.357 234.726 162.667 235.06 161.273C235.192 160.722 235.426 160.218 235.76 159.818C236.302 159.168 237.015 158.798 237.753 158.714C237.755 158.714 237.756 158.714 237.758 158.713C238.625 158.614 239.525 158.911 240.218 159.614C241.5 160.916 241.853 163.392 240.673 164.807C239.493 166.221 237.364 166.708 236.082 165.406Z" fill="#FFA412"/>
<path opacity="0.5" d="M236.008 164.527C235.193 163.699 234.888 162.409 235.06 161.273C235.192 160.722 235.426 160.218 235.76 159.818C236.302 159.169 237.015 158.798 237.752 158.714C237.754 158.714 237.755 158.714 237.758 158.714C238.413 158.718 239.07 158.982 239.59 159.51C240.7 160.637 241.006 162.782 239.984 164.007C238.962 165.232 237.118 165.654 236.008 164.527Z" fill="#FFB93E"/>
<path d="M263.862 167.302C262.725 168.744 260.848 169.243 259.279 168.837C258.659 168.676 258.088 168.376 257.629 167.935C256.884 167.221 256.445 166.264 256.325 165.264C256.325 165.261 256.325 165.26 256.325 165.257C256.184 164.081 256.484 162.845 257.245 161.88C258.655 160.09 261.41 159.523 263.032 161.079C264.653 162.634 265.271 165.513 263.862 167.302Z" fill="#FFA412"/>
<path opacity="0.5" d="M262.881 167.434C261.984 168.572 260.554 169.032 259.279 168.838C258.659 168.677 258.088 168.376 257.628 167.936C256.884 167.222 256.445 166.265 256.325 165.264C256.325 165.262 256.325 165.26 256.325 165.257C256.307 164.366 256.578 163.463 257.15 162.737C258.371 161.188 260.757 160.697 262.161 162.044C263.566 163.392 264.102 165.885 262.881 167.434Z" fill="#FFB93E"/>
<path d="M265.576 189.919C264.798 192.197 262.757 193.711 260.719 193.995C259.914 194.106 259.111 194.026 258.386 193.725C257.209 193.236 256.3 192.307 255.755 191.172C255.754 191.168 255.753 191.167 255.752 191.164C255.111 189.828 254.973 188.206 255.494 186.68C256.459 183.852 259.521 181.828 262.083 182.893C264.645 183.957 266.54 187.093 265.576 189.919Z" fill="#FFA412"/>
<path opacity="0.5" d="M264.457 190.556C263.844 192.354 262.32 193.603 260.719 193.995C259.914 194.106 259.111 194.026 258.386 193.725C257.209 193.236 256.3 192.308 255.755 191.172C255.754 191.169 255.753 191.167 255.752 191.164C255.372 190.107 255.334 188.897 255.725 187.75C256.561 185.303 259.213 183.549 261.431 184.471C263.651 185.393 265.293 188.109 264.457 190.556Z" fill="#FFB93E"/>
<path d="M257.763 202.465C258.043 203.912 257.45 205.426 256.492 206.309C256.114 206.657 255.679 206.907 255.219 207.016C254.472 207.192 253.731 207.046 253.114 206.663C253.112 206.662 253.111 206.661 253.11 206.66C252.385 206.209 251.831 205.429 251.643 204.46C251.296 202.665 252.259 200.521 253.886 200.137C255.513 199.754 257.415 200.671 257.763 202.465Z" fill="#FFA412"/>
<path opacity="0.5" d="M257.38 203.197C257.602 204.338 257.194 205.529 256.492 206.309C256.114 206.658 255.679 206.908 255.219 207.016C254.472 207.193 253.731 207.047 253.114 206.664C253.112 206.662 253.111 206.662 253.11 206.661C252.601 206.258 252.221 205.653 252.08 204.925C251.779 203.371 252.614 201.513 254.022 201.181C255.431 200.848 257.079 201.643 257.38 203.197Z" fill="#FFB93E"/>
<path d="M272.175 170.156C272.992 171.081 273.192 172.503 272.857 173.646C272.724 174.098 272.509 174.506 272.214 174.822C271.737 175.335 271.128 175.608 270.511 175.641C270.51 175.641 270.509 175.641 270.507 175.641C269.781 175.681 269.044 175.389 268.497 174.769C267.484 173.622 267.291 171.544 268.331 170.426C269.371 169.308 271.162 169.009 272.175 170.156Z" fill="#FFA412"/>
<path opacity="0.5" d="M272.201 170.892C272.845 171.622 273.046 172.71 272.857 173.646C272.724 174.098 272.509 174.506 272.214 174.822C271.737 175.335 271.128 175.608 270.511 175.641C270.509 175.641 270.508 175.641 270.507 175.641C269.962 175.605 269.426 175.353 269.015 174.887C268.138 173.894 267.971 172.094 268.871 171.126C269.772 170.158 271.324 169.899 272.201 170.892Z" fill="#FFB93E"/>
<path d="M238.633 208.658C236.435 208.866 234.316 207.487 233.206 205.58C232.768 204.827 232.487 203.993 232.421 203.141C232.313 201.76 232.681 200.454 233.375 199.422C233.377 199.419 233.378 199.418 233.38 199.415C234.196 198.201 235.463 197.365 236.936 197.225C239.664 196.967 242.639 199.143 242.873 202.152C243.107 205.161 241.36 208.4 238.633 208.658Z" fill="#FFA412"/>
<path opacity="0.5" d="M237.63 207.82C235.895 207.984 234.217 207.006 233.206 205.581C232.768 204.827 232.487 203.993 232.421 203.142C232.313 201.76 232.681 200.455 233.375 199.423C233.377 199.42 233.378 199.418 233.38 199.416C234.08 198.582 235.054 198.022 236.16 197.917C238.522 197.694 241.1 199.579 241.302 202.184C241.505 204.791 239.991 207.596 237.63 207.82Z" fill="#FFB93E"/>
<path d="M190.1 142.503C183.092 130.821 180.29 105.574 190.878 97.8412C201.467 90.1088 221.436 102.819 228.444 114.502C235.453 126.184 232.551 141.923 221.962 149.655C211.373 157.388 197.108 154.186 190.1 142.503Z" fill="white"/>
<path d="M198.177 135.677C194.262 129.152 195.883 120.361 201.798 116.043C207.712 111.724 215.679 113.512 219.594 120.037C223.508 126.563 221.887 135.353 215.973 139.672C210.059 143.991 202.091 142.203 198.177 135.677Z" fill="#F99746"/>
<path d="M178.344 18.9804H175.702V21.8994H175.223V15.6494H178.733V16.1002H175.702V18.5297H178.344V18.9804Z" fill="black"/>
<path d="M182.121 21.8995C182.096 21.8193 182.075 21.7212 182.061 21.6054C182.047 21.4895 182.037 21.3715 182.032 21.2514C181.962 21.3514 181.879 21.4459 181.783 21.5347C181.687 21.6234 181.579 21.7007 181.46 21.7666C181.341 21.8324 181.21 21.8853 181.067 21.9253C180.924 21.9653 180.77 21.9854 180.604 21.9854C180.399 21.9854 180.213 21.9525 180.046 21.8867C179.879 21.8209 179.736 21.7285 179.618 21.6098C179.5 21.4911 179.408 21.3514 179.344 21.1912C179.279 21.0309 179.246 20.8564 179.246 20.6675C179.246 20.4416 179.29 20.2377 179.379 20.0559C179.467 19.8743 179.594 19.7197 179.76 19.5924C179.926 19.4651 180.127 19.3677 180.365 19.3005C180.602 19.2332 180.869 19.1997 181.164 19.1997H182.028V18.6716C182.028 18.3397 181.935 18.0785 181.75 17.8882C181.564 17.698 181.294 17.6027 180.938 17.6027C180.775 17.6027 180.625 17.6272 180.487 17.6757C180.35 17.7244 180.231 17.7916 180.131 17.8774C180.031 17.9633 179.954 18.0628 179.898 18.1758C179.842 18.2889 179.814 18.4097 179.814 18.5384L179.347 18.5341C179.347 18.3596 179.386 18.1908 179.464 18.0276C179.542 17.8645 179.651 17.7192 179.793 17.5918C179.934 17.4645 180.104 17.3621 180.302 17.2849C180.501 17.2077 180.721 17.1689 180.962 17.1689C181.185 17.1689 181.39 17.2005 181.579 17.2634C181.767 17.3264 181.928 17.4209 182.063 17.5466C182.198 17.6725 182.303 17.83 182.378 18.0187C182.453 18.2076 182.491 18.4281 182.491 18.6797V20.929C182.491 21.0091 182.494 21.0922 182.499 21.178C182.504 21.2637 182.513 21.3468 182.524 21.4269C182.536 21.5071 182.549 21.5836 182.565 21.6565C182.581 21.7295 182.599 21.7932 182.619 21.8475V21.899H182.121V21.8995ZM180.659 21.5304C180.827 21.5304 180.983 21.5068 181.127 21.4595C181.271 21.4123 181.402 21.3472 181.518 21.2641C181.635 21.1812 181.736 21.0846 181.822 20.9745C181.908 20.8643 181.976 20.7449 182.028 20.616V19.5943H181.23C180.992 19.5943 180.778 19.6179 180.59 19.6652C180.402 19.7124 180.243 19.7804 180.114 19.8691C179.984 19.958 179.885 20.0659 179.816 20.1932C179.747 20.3206 179.713 20.4645 179.713 20.6246C179.713 20.7505 179.735 20.8685 179.779 20.9787C179.823 21.0888 179.886 21.1847 179.968 21.2662C180.05 21.3478 180.149 21.4121 180.266 21.4594C180.383 21.5068 180.513 21.5304 180.659 21.5304Z" fill="black"/>
<path d="M184.456 16.0654V17.2545H185.328V17.6753H184.456V20.7701C184.456 20.9333 184.471 21.0641 184.501 21.1629C184.53 21.2617 184.571 21.3389 184.621 21.3948C184.672 21.4506 184.73 21.4878 184.796 21.5064C184.863 21.5249 184.932 21.5343 185.005 21.5343C185.075 21.5343 185.142 21.5294 185.207 21.5193C185.272 21.5093 185.33 21.4999 185.382 21.4913L185.401 21.9121C185.344 21.935 185.27 21.9528 185.178 21.9658C185.086 21.9786 184.994 21.9851 184.903 21.9851C184.771 21.9851 184.649 21.9658 184.536 21.9271C184.423 21.8885 184.326 21.822 184.246 21.7275C184.165 21.6331 184.102 21.508 184.057 21.3518C184.012 21.1959 183.989 21.002 183.989 20.7701V17.6753H183.215V17.2545H183.989V16.0654H184.456Z" fill="black"/>
<path d="M188.813 20.7189C188.813 20.6245 188.799 20.53 188.769 20.4357C188.739 20.3412 188.683 20.2518 188.601 20.1674C188.52 20.083 188.405 20.0043 188.259 19.9313C188.113 19.8583 187.923 19.7947 187.689 19.7403C187.456 19.686 187.247 19.623 187.065 19.5514C186.882 19.4798 186.728 19.3932 186.602 19.2916C186.476 19.19 186.381 19.0692 186.316 18.929C186.251 18.7888 186.218 18.6242 186.218 18.4353C186.218 18.2636 186.253 18.1004 186.322 17.9459C186.39 17.7914 186.489 17.6569 186.617 17.5424C186.746 17.428 186.901 17.3371 187.084 17.2699C187.267 17.2026 187.473 17.1689 187.701 17.1689C187.945 17.1689 188.163 17.204 188.356 17.2741C188.55 17.3442 188.713 17.4415 188.847 17.566C188.98 17.6905 189.082 17.8371 189.152 18.0059C189.222 18.1748 189.257 18.3579 189.257 18.5554H188.79C188.79 18.4353 188.766 18.3179 188.718 18.2034C188.67 18.089 188.6 17.9881 188.508 17.9008C188.416 17.8135 188.302 17.7428 188.166 17.6884C188.03 17.634 187.875 17.6068 187.701 17.6068C187.519 17.6068 187.364 17.6312 187.236 17.6798C187.108 17.7285 187.003 17.7914 186.921 17.8687C186.839 17.946 186.779 18.0325 186.742 18.1285C186.704 18.2243 186.685 18.3209 186.685 18.4181C186.685 18.5211 186.7 18.615 186.728 18.6994C186.757 18.7839 186.812 18.8625 186.894 18.9354C186.975 19.0084 187.09 19.0756 187.236 19.1371C187.383 19.1987 187.574 19.2595 187.81 19.3196C188.064 19.3854 188.283 19.4584 188.467 19.5385C188.652 19.6186 188.804 19.7138 188.925 19.8239C189.045 19.9341 189.135 20.06 189.193 20.2016C189.252 20.3432 189.281 20.5071 189.281 20.6931C189.281 20.8849 189.244 21.0601 189.172 21.2189C189.099 21.3778 188.995 21.5137 188.86 21.6266C188.726 21.7398 188.562 21.8278 188.37 21.8906C188.178 21.9535 187.964 21.9851 187.728 21.9851C187.461 21.9851 187.225 21.947 187.02 21.8714C186.815 21.7956 186.643 21.6932 186.503 21.5643C186.363 21.4355 186.257 21.2874 186.186 21.1201C186.114 20.9527 186.079 20.7788 186.079 20.5986H186.546C186.556 20.7819 186.599 20.9342 186.674 21.0557C186.749 21.1774 186.843 21.2747 186.954 21.3476C187.066 21.4206 187.19 21.4728 187.326 21.5044C187.462 21.5358 187.596 21.5516 187.729 21.5516C187.905 21.5516 188.06 21.5285 188.195 21.4829C188.33 21.4372 188.444 21.3756 188.536 21.2984C188.628 21.2211 188.697 21.1324 188.744 21.0321C188.79 20.9322 188.813 20.8277 188.813 20.7189Z" fill="black"/>
<path d="M173.437 29.8685H168.635V27.7266H175.992V29.5947L171.409 39.0001H168.869L173.437 29.8685Z" fill="black"/>
<path d="M176.941 37.5025L178.299 35.7148C179.072 36.4878 179.831 36.9388 180.736 36.9388C181.787 36.9388 182.444 36.3752 182.444 35.3443C182.444 34.3781 181.7 33.8143 180.634 33.8143C179.992 33.8143 179.408 34.0076 178.926 34.2331L177.627 33.2829L177.919 27.7266H184.196V29.9007H179.846L179.729 31.8495C180.138 31.7368 180.503 31.6563 181.072 31.6563C183.057 31.6563 184.649 32.7192 184.649 35.2961C184.649 37.6796 183.116 39.1935 180.766 39.1935C179.131 39.1937 177.934 38.5495 176.941 37.5025Z" fill="black"/>
<path d="M185.984 31.531C185.984 30.1287 186.869 28.9956 188.179 28.9956C189.476 28.9956 190.349 30.1147 190.349 31.531C190.349 32.9192 189.463 34.0665 188.153 34.0665C186.857 34.0665 185.984 32.9475 185.984 31.531ZM193.442 29.1089H194.97L188.41 39.0239H186.882L193.442 29.1089ZM189 31.531C189 30.8652 188.667 30.2845 188.153 30.2845C187.614 30.2845 187.332 30.8511 187.332 31.531C187.332 32.1968 187.665 32.7774 188.179 32.7774C188.718 32.7774 189 32.1968 189 31.531ZM191.504 36.6019C191.504 35.1996 192.39 34.0665 193.699 34.0665C194.996 34.0665 195.869 35.1854 195.869 36.6019C195.869 37.99 194.983 39.1373 193.674 39.1373C192.377 39.1373 191.504 38.0184 191.504 36.6019ZM194.521 36.6019C194.521 35.9361 194.187 35.3555 193.674 35.3555C193.134 35.3555 192.852 35.9221 192.852 36.6019C192.852 37.2677 193.186 37.8484 193.699 37.8484C194.238 37.8484 194.521 37.2675 194.521 36.6019Z" fill="black"/>
<path d="M113.976 43.8129V46.3584H113.497V40.1084H115.427C115.738 40.1084 116.013 40.1543 116.25 40.2458C116.487 40.3374 116.686 40.4654 116.847 40.63C117.008 40.7945 117.129 40.9913 117.211 41.2202C117.293 41.4491 117.333 41.701 117.333 41.9757C117.333 42.2648 117.293 42.523 117.211 42.7505C117.129 42.978 117.009 43.1705 116.849 43.3279C116.69 43.4853 116.49 43.6055 116.252 43.6884C116.013 43.7715 115.738 43.8129 115.427 43.8129H113.976ZM113.976 43.3666H115.427C115.679 43.3666 115.895 43.3315 116.077 43.2615C116.258 43.1913 116.406 43.094 116.52 42.9694C116.635 42.8449 116.719 42.6984 116.773 42.5294C116.828 42.3606 116.855 42.1789 116.855 41.9844C116.855 41.7926 116.828 41.6102 116.773 41.437C116.719 41.2638 116.635 41.1123 116.52 40.982C116.406 40.8518 116.258 40.7488 116.077 40.6729C115.895 40.5972 115.679 40.5592 115.427 40.5592H113.976V43.3666Z" fill="black"/>
<path d="M120.24 42.1515C120.141 42.1315 120.036 42.1215 119.925 42.1215C119.767 42.1215 119.624 42.1473 119.497 42.1988C119.37 42.2504 119.258 42.3226 119.16 42.4155C119.063 42.5086 118.981 42.6189 118.915 42.7462C118.849 42.8735 118.796 43.0145 118.758 43.1689V46.3583H118.295V41.7137H118.75L118.758 42.452C118.872 42.1973 119.027 41.9962 119.222 41.849C119.418 41.7016 119.659 41.6279 119.944 41.6279C120.001 41.6279 120.06 41.6337 120.119 41.6452C120.179 41.6566 120.223 41.6695 120.252 41.6838L120.24 42.1515Z" fill="black"/>
<path d="M120.641 43.9673C120.641 43.6296 120.685 43.3177 120.775 43.0315C120.864 42.7453 120.991 42.4985 121.154 42.2911C121.318 42.0836 121.515 41.9213 121.745 41.8038C121.976 41.6866 122.233 41.6279 122.516 41.6279C122.804 41.6279 123.064 41.6866 123.296 41.8038C123.528 41.9213 123.726 42.0836 123.889 42.2911C124.053 42.4986 124.178 42.7455 124.267 43.0315C124.355 43.3177 124.399 43.6296 124.399 43.9673V44.1089C124.399 44.4466 124.355 44.7585 124.267 45.0447C124.178 45.3309 124.053 45.5777 123.889 45.7852C123.726 45.9926 123.529 46.1544 123.298 46.2702C123.067 46.3861 122.809 46.4441 122.524 46.4441C122.238 46.4441 121.98 46.3861 121.749 46.2702C121.519 46.1544 121.321 45.9926 121.156 45.7852C120.991 45.5777 120.864 45.3309 120.775 45.0447C120.685 44.7585 120.641 44.4466 120.641 44.1089V43.9673ZM121.107 44.1089C121.107 44.3636 121.139 44.6061 121.201 44.8364C121.263 45.0669 121.354 45.2687 121.473 45.4417C121.593 45.6149 121.74 45.7529 121.917 45.8559C122.093 45.9589 122.295 46.0105 122.524 46.0105C122.752 46.0105 122.954 45.959 123.129 45.8559C123.303 45.7529 123.451 45.6149 123.57 45.4417C123.689 45.2687 123.78 45.0669 123.843 44.8364C123.905 44.6061 123.936 44.3636 123.936 44.1089V43.9673C123.936 43.7183 123.905 43.4788 123.843 43.2483C123.78 43.018 123.689 42.8155 123.57 42.6409C123.451 42.4663 123.302 42.3268 123.125 42.2223C122.947 42.1179 122.744 42.0655 122.516 42.0655C122.29 42.0655 122.09 42.1179 121.915 42.2223C121.74 42.3268 121.592 42.4663 121.473 42.6409C121.354 42.8155 121.263 43.018 121.201 43.2483C121.138 43.4788 121.107 43.7183 121.107 43.9673L121.107 44.1089Z" fill="black"/>
<path d="M126.084 40.5254V41.7144H126.955V42.1351H126.084V45.2301C126.084 45.3932 126.099 45.5241 126.128 45.6229C126.158 45.7216 126.198 45.7989 126.249 45.8547C126.3 45.9106 126.358 45.9478 126.424 45.9663C126.49 45.9848 126.559 45.9941 126.632 45.9941C126.702 45.9941 126.77 45.9892 126.834 45.9791C126.899 45.9691 126.958 45.9597 127.01 45.9512L127.029 46.3719C126.972 46.3948 126.897 46.4126 126.805 46.4257C126.713 46.4386 126.622 46.4449 126.531 46.4449C126.399 46.4449 126.276 46.4257 126.163 46.3869C126.051 46.3483 125.954 46.2818 125.873 46.1874C125.793 46.093 125.73 45.9679 125.685 45.8118C125.64 45.6559 125.617 45.4619 125.617 45.2301V42.1351H124.843V41.7144H125.617V40.5254H126.084Z" fill="black"/>
<path d="M129.55 46.4441C129.275 46.4441 129.022 46.3876 128.791 46.2747C128.561 46.1616 128.362 46.0042 128.194 45.8024C128.027 45.6007 127.897 45.361 127.803 45.0834C127.71 44.8058 127.663 44.5012 127.663 44.1691V43.9846C127.663 43.6268 127.712 43.3028 127.809 43.0123C127.907 42.7219 128.038 42.4743 128.204 42.2697C128.37 42.0651 128.561 41.9068 128.778 41.7954C128.994 41.6838 129.223 41.6279 129.464 41.6279C129.732 41.6279 129.969 41.6808 130.177 41.7867C130.384 41.8926 130.559 42.04 130.7 42.2287C130.841 42.4176 130.948 42.6423 131.021 42.9027C131.093 43.1631 131.13 43.4477 131.13 43.7568V44.0702H128.126V44.1688C128.126 44.4236 128.161 44.6633 128.231 44.8878C128.301 45.1125 128.4 45.3078 128.527 45.4737C128.654 45.6398 128.806 45.7707 128.982 45.8664C129.158 45.9624 129.354 46.0103 129.57 46.0103C129.819 46.0103 130.038 45.9602 130.229 45.86C130.42 45.7599 130.593 45.5996 130.748 45.3791L131.04 45.6239C130.97 45.7355 130.889 45.8414 130.797 45.9416C130.705 46.0417 130.598 46.129 130.476 46.2034C130.354 46.2779 130.216 46.3366 130.063 46.3794C129.911 46.4226 129.74 46.4441 129.55 46.4441ZM129.465 42.0655C129.288 42.0655 129.125 42.1027 128.974 42.1772C128.824 42.2516 128.691 42.3576 128.576 42.495C128.46 42.6322 128.366 42.7975 128.292 42.9908C128.218 43.1839 128.168 43.3979 128.142 43.6326H130.667V43.5767C130.661 43.3821 130.633 43.194 130.581 43.0123C130.529 42.8307 130.453 42.6697 130.353 42.5294C130.254 42.3892 130.13 42.2767 129.982 42.1924C129.834 42.1079 129.662 42.0655 129.465 42.0655Z" fill="black"/>
<path d="M132.009 40.3702C132.009 40.2731 132.038 40.1907 132.095 40.1234C132.152 40.0561 132.229 40.0225 132.328 40.0225C132.427 40.0225 132.505 40.0561 132.563 40.1234C132.622 40.1907 132.651 40.273 132.651 40.3702C132.651 40.4676 132.622 40.549 132.563 40.6148C132.505 40.6808 132.427 40.7136 132.328 40.7136C132.229 40.7136 132.151 40.6808 132.095 40.6148C132.038 40.549 132.009 40.4676 132.009 40.3702ZM132.558 46.3584H132.091V41.7137H132.558V46.3584Z" fill="black"/>
<path d="M134.266 41.7145L134.281 42.5087C134.354 42.3771 134.437 42.2569 134.532 42.1482C134.627 42.0394 134.732 41.9464 134.849 41.8692C134.966 41.7918 135.092 41.7325 135.227 41.6911C135.361 41.6497 135.504 41.6289 135.654 41.6289C135.865 41.6289 136.053 41.6603 136.219 41.7234C136.385 41.7862 136.525 41.8864 136.641 42.0238C136.756 42.1611 136.844 42.3379 136.905 42.5539C136.966 42.77 136.997 43.0311 136.997 43.3373V46.3593H136.534V43.3329C136.534 43.0925 136.51 42.8923 136.464 42.732C136.417 42.5717 136.351 42.4429 136.265 42.3456C136.18 42.2484 136.075 42.1789 135.952 42.1375C135.829 42.096 135.692 42.0752 135.542 42.0752C135.376 42.0752 135.225 42.1059 135.09 42.1675C134.955 42.2292 134.836 42.3114 134.732 42.4144C134.629 42.5174 134.539 42.6354 134.464 42.7685C134.389 42.9015 134.329 43.0382 134.285 43.1784V46.3593H133.822V41.7147L134.266 41.7145Z" fill="black"/>
<path d="M110.407 62.4189L113.86 59.296C115.149 58.1188 115.653 57.4975 115.653 56.5492C115.653 55.5847 115.075 55.0615 114.26 55.0615C113.46 55.0615 112.912 55.5519 112.141 56.5983L110.541 55.1758C111.563 53.6389 112.556 52.8052 114.408 52.8052C116.557 52.8052 117.98 54.1948 117.98 56.3693C117.98 58.2822 117.09 59.2305 115.253 60.8001L113.563 62.2388H118.083V64.4134H110.407V62.4189H110.407Z" fill="black"/>
<path d="M119.713 58.691C119.713 55.3719 121.58 52.7725 124.337 52.7725C127.078 52.7725 128.931 55.3392 128.931 58.691C128.931 62.0099 127.078 64.6096 124.307 64.6096C121.536 64.6096 119.713 62.0426 119.713 58.691ZM126.589 58.691C126.589 56.6145 125.67 55.045 124.307 55.045C122.944 55.045 122.055 56.5656 122.055 58.691C122.055 60.7838 122.959 62.3369 124.337 62.3369C125.715 62.3369 126.589 60.8 126.589 58.691Z" fill="black"/>
<path d="M130.202 56.9464C130.202 55.5443 131.088 54.4111 132.397 54.4111C133.694 54.4111 134.567 55.5301 134.567 56.9464C134.567 58.3345 133.681 59.4818 132.372 59.4818C131.075 59.482 130.202 58.3629 130.202 56.9464ZM137.661 54.5244H139.188L132.628 64.4394H131.1L137.661 54.5244ZM133.219 56.9464C133.219 56.2808 132.885 55.6999 132.371 55.6999C131.832 55.6999 131.55 56.2665 131.55 56.9464C131.55 57.6122 131.884 58.1929 132.397 58.1929C132.936 58.1929 133.219 57.6122 133.219 56.9464ZM135.722 62.0173C135.722 60.615 136.608 59.4818 137.917 59.4818C139.214 59.4818 140.087 60.6008 140.087 62.0173C140.087 63.4054 139.201 64.5527 137.892 64.5527C136.595 64.5528 135.722 63.4337 135.722 62.0173ZM138.739 62.0173C138.739 61.3516 138.405 60.7707 137.892 60.7707C137.353 60.7707 137.07 61.3373 137.07 62.0173C137.07 62.6831 137.404 63.2636 137.918 63.2636C138.457 63.2638 138.739 62.6832 138.739 62.0173Z" fill="black"/>
<path d="M229.629 87.184C229.598 87.5016 229.53 87.7865 229.427 88.0381C229.323 88.29 229.184 88.5033 229.008 88.6778C228.833 88.8525 228.623 88.9861 228.378 89.0792C228.133 89.1721 227.855 89.2187 227.544 89.2187C227.222 89.2187 226.93 89.1513 226.668 89.0168C226.406 88.8824 226.182 88.6913 225.995 88.4438C225.808 88.1963 225.664 87.8994 225.563 87.5531C225.462 87.2067 225.411 86.8233 225.411 86.4026V85.6171C225.411 85.1965 225.462 84.8122 225.563 84.4646C225.664 84.1169 225.809 83.82 225.997 83.5738C226.185 83.3277 226.413 83.1366 226.68 83.0008C226.947 82.8648 227.246 82.7969 227.578 82.7969C227.879 82.7969 228.15 82.8426 228.392 82.9341C228.633 83.0258 228.839 83.1595 229.012 83.3355C229.185 83.5115 229.323 83.7261 229.428 83.9794C229.533 84.2326 229.6 84.5196 229.629 84.84H229.146C229.118 84.5882 229.066 84.363 228.991 84.164C228.915 83.9651 228.814 83.7984 228.685 83.6639C228.557 83.5293 228.401 83.4265 228.218 83.3549C228.035 83.2834 227.822 83.2475 227.578 83.2475C227.314 83.2475 227.078 83.3041 226.87 83.417C226.663 83.5302 226.486 83.6897 226.341 83.8958C226.196 84.1018 226.085 84.3502 226.009 84.6406C225.932 84.9309 225.894 85.2537 225.894 85.6085V86.4026C225.894 86.746 225.93 87.063 226.003 87.3532C226.075 87.6439 226.182 87.8942 226.322 88.1046C226.462 88.315 226.634 88.4788 226.839 88.5961C227.044 88.7134 227.279 88.7721 227.543 88.7721C228.044 88.7721 228.421 88.6397 228.675 88.3751C228.93 88.1104 229.087 87.7134 229.146 87.1838L229.629 87.184Z" fill="black"/>
<path d="M233.341 89.1322C233.315 89.0522 233.294 88.9541 233.28 88.8382C233.266 88.7223 233.256 88.6043 233.251 88.484C233.181 88.5842 233.098 88.6786 233.002 88.7672C232.906 88.8559 232.798 88.9334 232.679 88.9991C232.56 89.0649 232.429 89.1178 232.286 89.1579C232.143 89.1979 231.989 89.218 231.823 89.218C231.618 89.218 231.432 89.185 231.265 89.1192C231.098 89.0534 230.955 88.9612 230.837 88.8424C230.719 88.7237 230.627 88.5841 230.563 88.4239C230.498 88.2637 230.465 88.0891 230.465 87.9002C230.465 87.6741 230.509 87.4702 230.598 87.2886C230.686 87.1068 230.813 86.9523 230.979 86.8249C231.145 86.6974 231.347 86.6003 231.584 86.533C231.821 86.4657 232.088 86.4322 232.383 86.4322H233.247V85.9042C233.247 85.5723 233.154 85.3111 232.969 85.1207C232.783 84.9304 232.513 84.8352 232.158 84.8352C231.994 84.8352 231.844 84.8597 231.706 84.9084C231.569 84.9571 231.45 85.0241 231.35 85.1102C231.25 85.1961 231.173 85.2954 231.117 85.4084C231.061 85.5215 231.033 85.6423 231.033 85.771L230.566 85.7667C230.566 85.5922 230.605 85.4233 230.683 85.2602C230.761 85.0971 230.87 84.952 231.012 84.8246C231.153 84.6973 231.323 84.5948 231.521 84.5176C231.72 84.4403 231.94 84.4019 232.181 84.4019C232.404 84.4019 232.61 84.4333 232.798 84.4963C232.986 84.5592 233.147 84.6538 233.282 84.7797C233.417 84.9054 233.522 85.0629 233.597 85.2518C233.673 85.4407 233.71 85.6611 233.71 85.9128V88.1621C233.71 88.2423 233.713 88.3253 233.718 88.4112C233.723 88.4969 233.732 88.5801 233.743 88.6601C233.755 88.7403 233.769 88.8167 233.784 88.8899C233.8 88.9627 233.818 89.0266 233.839 89.0807V89.1324H233.341V89.1322ZM231.878 88.7631C232.046 88.7631 232.203 88.7394 232.347 88.6923C232.491 88.6451 232.621 88.58 232.738 88.4969C232.854 88.414 232.955 88.3173 233.041 88.2072C233.127 88.0971 233.195 87.9775 233.247 87.8487V86.8271H232.45C232.211 86.8271 231.997 86.8506 231.81 86.8978C231.621 86.9451 231.463 87.0132 231.333 87.1018C231.203 87.1906 231.104 87.2987 231.035 87.426C230.966 87.5534 230.932 87.6972 230.932 87.8574C230.932 87.9831 230.954 88.1013 230.998 88.2113C231.043 88.3215 231.105 88.4173 231.187 88.4989C231.269 88.5805 231.368 88.645 231.485 88.6921C231.602 88.7394 231.732 88.7631 231.878 88.7631Z" fill="black"/>
<path d="M236.897 84.9256C236.798 84.9054 236.693 84.8954 236.581 84.8954C236.423 84.8954 236.281 84.9213 236.154 84.9728C236.027 85.0241 235.914 85.0964 235.817 85.1895C235.72 85.2825 235.638 85.3927 235.572 85.52C235.506 85.6474 235.453 85.7883 235.414 85.9427V89.1321H234.951V84.4875H235.407L235.414 85.2259C235.528 84.9712 235.683 84.7703 235.879 84.6229C236.075 84.4755 236.316 84.4019 236.601 84.4019C236.658 84.4019 236.716 84.4076 236.776 84.419C236.836 84.4305 236.88 84.4433 236.908 84.4576L236.897 84.9256Z" fill="black"/>
<path d="M241.021 86.8573C241.021 87.2063 240.985 87.5254 240.914 87.8144C240.842 88.1035 240.738 88.3518 240.6 88.5592C240.463 88.7668 240.294 88.9283 240.094 89.0444C239.895 89.1601 239.668 89.2182 239.414 89.2182C239.105 89.2182 238.841 89.1538 238.622 89.025C238.402 88.8963 238.223 88.7202 238.083 88.497L238.064 89.1324H237.628V82.5391H238.091V85.1619C238.231 84.9215 238.409 84.7349 238.624 84.6017C238.839 84.4685 239.1 84.4021 239.406 84.4021C239.662 84.4021 239.891 84.4578 240.091 84.5694C240.29 84.681 240.459 84.8398 240.598 85.0459C240.737 85.2519 240.842 85.5001 240.913 85.7907C240.985 86.0812 241.021 86.4066 241.021 86.7672L241.021 86.8573ZM240.554 86.7669C240.554 86.498 240.53 86.2462 240.484 86.0114C240.437 85.7768 240.364 85.5737 240.264 85.4019C240.164 85.2301 240.036 85.095 239.881 84.9962C239.725 84.8974 239.538 84.848 239.32 84.848C239.144 84.848 238.988 84.8745 238.854 84.9274C238.719 84.9805 238.602 85.0512 238.503 85.1399C238.405 85.2286 238.322 85.3303 238.254 85.4447C238.187 85.5591 238.132 85.6781 238.091 85.8009V87.8957C238.14 88.0187 238.202 88.1339 238.276 88.2412C238.35 88.3487 238.437 88.4417 238.538 88.5203C238.64 88.599 238.756 88.6607 238.886 88.7049C239.017 88.7492 239.165 88.7714 239.328 88.7714C239.538 88.7714 239.72 88.7228 239.875 88.6254C240.029 88.5283 240.157 88.3937 240.258 88.2221C240.359 88.0503 240.434 87.8479 240.482 87.6147C240.53 87.3813 240.554 87.129 240.554 86.8571L240.554 86.7669Z" fill="black"/>
<path d="M244.569 87.9518C244.569 87.8574 244.554 87.7629 244.524 87.6685C244.494 87.574 244.438 87.4846 244.357 87.4001C244.275 87.3156 244.161 87.2371 244.014 87.1639C243.868 87.0911 243.678 87.0274 243.445 86.9729C243.211 86.9186 243.003 86.8557 242.82 86.784C242.637 86.7125 242.483 86.626 242.357 86.5244C242.231 86.4228 242.136 86.3018 242.071 86.1617C242.006 86.0214 241.974 85.8569 241.974 85.668C241.974 85.4962 242.008 85.3332 242.077 85.1787C242.146 85.024 242.244 84.8895 242.373 84.7752C242.501 84.6608 242.657 84.5698 242.84 84.5026C243.022 84.4354 243.228 84.4019 243.456 84.4019C243.7 84.4019 243.919 84.4368 244.112 84.507C244.305 84.5771 244.468 84.6743 244.602 84.7989C244.736 84.9234 244.838 85.07 244.907 85.2389C244.978 85.4077 245.012 85.5908 245.012 85.7883H244.546C244.546 85.6682 244.522 85.5508 244.474 85.4363C244.426 85.3219 244.356 85.2212 244.264 85.1336C244.171 85.0464 244.057 84.9756 243.921 84.9213C243.785 84.8669 243.63 84.8396 243.456 84.8396C243.275 84.8396 243.12 84.8639 242.992 84.9126C242.863 84.9613 242.758 85.0241 242.676 85.1015C242.595 85.1788 242.535 85.2654 242.497 85.3612C242.46 85.4572 242.441 85.5538 242.441 85.651C242.441 85.7539 242.455 85.8478 242.484 85.9321C242.512 86.0166 242.567 86.0952 242.649 86.1682C242.731 86.2412 242.845 86.3084 242.992 86.37C243.138 86.4316 243.329 86.4925 243.565 86.5525C243.82 86.6183 244.039 86.6913 244.223 86.7714C244.407 86.8517 244.559 86.9468 244.68 87.0569C244.801 87.1672 244.89 87.2929 244.949 87.4345C245.007 87.5761 245.036 87.74 245.036 87.926C245.036 88.1177 245 88.293 244.927 88.4519C244.854 88.6107 244.751 88.7467 244.616 88.8597C244.481 88.9728 244.318 89.0608 244.126 89.1238C243.934 89.1867 243.72 89.2183 243.484 89.2183C243.217 89.2183 242.98 89.1802 242.776 89.1044C242.571 89.0285 242.398 88.9262 242.258 88.7975C242.118 88.6687 242.012 88.5206 241.941 88.3532C241.87 88.1859 241.834 88.012 241.834 87.8317H242.301C242.311 88.015 242.354 88.1674 242.429 88.2888C242.505 88.4105 242.598 88.5078 242.71 88.5808C242.821 88.6538 242.945 88.706 243.081 88.7375C243.217 88.769 243.351 88.7846 243.484 88.7846C243.66 88.7846 243.816 88.7617 243.951 88.716C244.085 88.6702 244.199 88.6085 244.291 88.5313C244.383 88.4541 244.453 88.3654 244.499 88.2652C244.545 88.165 244.569 88.0604 244.569 87.9518Z" fill="black"/>
<path d="M225.522 103.854L226.963 101.957C227.785 102.777 228.591 103.256 229.552 103.256C230.668 103.256 231.365 102.658 231.365 101.563C231.365 100.537 230.574 99.9388 229.443 99.9388C228.761 99.9388 228.141 100.144 227.63 100.383L226.25 99.3744L226.56 93.4751H233.225V95.7836H228.606L228.482 97.8526C228.916 97.7329 229.304 97.6475 229.908 97.6475C232.016 97.6475 233.705 98.776 233.705 101.512C233.705 104.043 232.078 105.65 229.582 105.65C227.847 105.65 226.576 104.966 225.522 103.854Z" fill="black"/>
<path d="M235.04 97.9866C235.04 96.5843 235.926 95.4512 237.236 95.4512C238.532 95.4512 239.405 96.5703 239.405 97.9866C239.405 99.3747 238.519 100.522 237.21 100.522C235.913 100.522 235.04 99.4031 235.04 97.9866ZM242.499 95.5644H244.027L237.467 105.479H235.939L242.499 95.5644ZM238.057 97.9866C238.057 97.3208 237.723 96.7401 237.21 96.7401C236.671 96.7401 236.388 97.3066 236.388 97.9866C236.388 98.6522 236.722 99.233 237.236 99.233C237.775 99.233 238.057 98.6522 238.057 97.9866ZM240.56 103.057C240.56 101.655 241.446 100.522 242.756 100.522C244.052 100.522 244.925 101.641 244.925 103.057C244.925 104.445 244.04 105.593 242.73 105.593C241.434 105.593 240.56 104.474 240.56 103.057ZM243.578 103.057C243.578 102.392 243.244 101.811 242.73 101.811C242.191 101.811 241.909 102.377 241.909 103.057C241.909 103.723 242.242 104.304 242.756 104.304C243.295 104.304 243.578 103.723 243.578 103.057Z" fill="black"/>
<path d="M306.783 126.013C303.457 134.553 297.766 144.409 289.974 147.429C289.398 147.653 288.785 147.746 288.178 147.677C287.069 147.552 286.018 147.168 285.279 146.562C284.262 145.734 283.827 144.49 284.615 142.924C288.78 134.647 288.31 125.965 283.85 124.508C280.633 123.456 275.341 130.306 275.236 139.466C275.212 141.584 273.807 142.666 271.994 142.521C270.878 142.429 269.605 141.873 268.409 140.803C268.3 140.706 268.206 140.589 268.129 140.46C263.837 133.282 263.217 121.82 263.729 112.304C264.38 100.214 273.321 86.8064 286.614 86.794C288.645 86.7922 291.8 86.4488 293.221 86.8816C294.482 87.2653 297.189 89.3438 298.908 90.4C311.545 98.1654 311.034 115.103 306.783 126.013Z" fill="#2E3552"/>
<path d="M308.402 112.557C308.402 112.62 308.402 112.685 308.401 112.746C308.392 117.471 307.378 122.185 305.834 126.144C305.474 127.068 305.085 128.006 304.665 128.953C304.667 128.953 304.667 128.953 304.664 128.956C304.618 129.068 304.566 129.181 304.516 129.295C303.253 132.11 301.74 134.957 299.984 137.538V137.541C299.908 137.654 299.832 137.763 299.754 137.874C299.125 138.782 298.463 139.655 297.771 140.478C297.61 140.672 297.448 140.86 297.283 141.047L297.281 141.05C295.057 143.58 292.535 145.602 289.73 146.702C289.14 146.933 288.51 147.026 287.888 146.949C286.849 146.82 285.868 146.455 285.174 145.885C284.197 145.09 283.779 143.894 284.536 142.39C288.537 134.439 288.085 126.098 283.8 124.698C280.71 123.687 275.625 130.268 275.525 139.069C275.502 141.103 274.153 142.143 272.41 142.003C271.593 141.936 270.687 141.609 269.794 141.002C269.166 140.575 268.65 139.975 268.272 139.276C267.023 136.964 266.13 134.25 265.516 131.327C265.814 132.018 266.351 133.166 267.081 134.277C268.182 135.949 269.363 136.989 270.552 137.352C271.021 137.495 271.489 137.533 271.956 137.463C273.312 137.265 274.579 135.862 275.72 133.293C276.561 131.4 277.018 129.539 277.022 129.523L276.779 129.449C276.761 129.522 274.969 136.739 271.922 137.188C268.133 137.742 265.518 130.649 265.492 130.576L265.377 130.628C265.16 129.52 264.983 128.388 264.841 127.236C264.83 127.146 264.817 127.062 264.807 126.968C264.805 126.965 264.805 126.965 264.808 126.963C264.432 123.841 264.301 120.607 264.327 117.467L264.328 117.463C264.327 117.403 264.33 117.34 264.33 117.279C264.344 115.815 264.396 114.372 264.469 112.973C264.719 108.345 266.216 103.595 268.733 99.5636L268.735 99.5604C268.768 99.508 268.8 99.4589 268.834 99.4067C270.81 96.2901 273.397 93.6144 276.493 91.7708C276.577 91.7185 276.666 91.6694 276.752 91.6187C277.631 91.1131 278.552 90.6724 279.511 90.3062C279.628 90.2617 279.751 90.2174 279.873 90.1763C280.232 90.0446 280.597 89.9307 280.965 89.8228C280.965 89.8228 280.965 89.8228 280.967 89.8228C284.395 88.8321 288.26 88.7971 292.457 90.0748C297.154 91.5047 300.628 93.8507 303.109 96.75C303.112 96.75 303.112 96.7533 303.113 96.7533C303.437 97.1305 303.744 97.519 304.033 97.9136C304.1 98.004 304.165 98.0927 304.228 98.1846C304.823 99.0201 305.345 99.8934 305.8 100.797C305.83 100.856 305.859 100.911 305.886 100.968C307.648 104.533 308.389 108.548 308.402 112.557Z" fill="#F99746"/>
<path d="M285.279 146.562C284.137 145.826 283.424 143.762 284.316 142.061C288.449 134.19 288.062 126.44 283.778 125.04C280.687 124.03 275.626 130.268 275.525 139.069C275.502 141.103 274.247 142.959 271.446 142.44L272.404 141.999C272.404 141.999 274.028 141.737 274.509 139.846C274.933 138.184 275.358 120.85 284.031 123.271C292.406 125.609 287.709 136.914 286.666 138.986C285.623 141.057 284.568 144.201 285.279 146.562Z" fill="#EFEFEF"/>
<g opacity="0.5">
<path d="M285.108 114.098L284.858 114.06C284.868 113.965 286.032 104.369 283.695 99.9431C281.132 95.0915 277.62 92.5109 276.493 91.7711C276.577 91.7185 276.665 91.6701 276.752 91.6182C278.02 92.4736 281.417 95.0741 283.914 99.8041C284.915 101.699 285.42 104.684 285.415 108.673C285.412 111.634 285.111 114.073 285.108 114.098Z" fill="white"/>
</g>
<g opacity="0.5">
<path d="M305.886 100.968L305.85 101.101L305.672 101.047C295.329 97.8985 289.105 114.35 289.045 114.517L288.809 114.411C288.824 114.369 290.421 110.106 293.305 106.328C297.089 101.367 301.386 99.4528 305.742 100.779L305.8 100.797C305.83 100.855 305.859 100.91 305.886 100.968Z" fill="white"/>
</g>
<g opacity="0.5">
<path d="M284.035 113.748L283.784 113.758C283.78 113.656 283.403 103.641 279.245 101.107C275.064 98.5571 268.817 99.6902 268.757 99.7007L268.734 99.5633L268.734 99.5606C268.769 99.5074 268.799 99.4587 268.834 99.4054C269.733 99.2595 275.436 98.4619 279.369 100.861C281.173 101.96 282.506 104.468 283.332 108.313C283.946 111.158 284.034 113.722 284.035 113.748Z" fill="white"/>
</g>
<g opacity="0.5">
<path d="M308.4 112.745L308.317 112.847C305.9 110.4 303.16 109.288 300.17 109.533C294.341 110.015 289.591 115.469 289.552 115.524L289.345 115.362C289.377 115.311 293.898 110.065 299.643 109.31C302.87 108.885 305.814 109.978 308.402 112.558C308.402 112.621 308.402 112.685 308.4 112.745Z" fill="white"/>
</g>
<g opacity="0.5">
<path d="M282.644 115.865C280.091 113.219 276.55 112.788 273.704 112.441C271.353 112.153 269.496 111.927 269.001 110.555C268.436 108.989 268.891 106.946 270.106 105.588C271.006 104.583 273.07 103.133 276.82 104.716C282.947 107.307 283.244 114.686 283.246 114.76L282.993 114.77C282.991 114.697 282.698 107.5 276.73 104.977C273.118 103.45 271.143 104.827 270.287 105.784C269.158 107.045 268.715 109.008 269.236 110.451C269.675 111.668 271.465 111.886 273.732 112.163C276.615 112.514 280.203 112.952 282.818 115.661L282.644 115.865Z" fill="white"/>
</g>
<g opacity="0.5">
<path d="M300.942 121.551C300.136 121.306 299.213 120.824 298.182 120.286C295.737 119.01 292.694 117.422 289.262 117.978L289.225 117.701C292.732 117.134 295.814 118.741 298.29 120.034C300.284 121.073 301.859 121.896 302.868 121.161C303.942 120.378 304.911 118.854 304.655 117.214C304.464 115.986 303.508 114.328 300.073 113.387C293.865 111.692 289.674 117.145 289.633 117.2L289.438 117.022C289.48 116.966 293.769 111.378 300.134 113.116C303.707 114.097 304.7 115.857 304.905 117.167C305.18 118.931 304.15 120.561 303.007 121.394C302.442 121.806 301.751 121.797 300.942 121.551Z" fill="white"/>
</g>
<g opacity="0.5">
<path d="M283.102 117.052L283.003 117.311C282.876 117.25 270.452 111.519 264.412 117.567L264.327 117.466L264.328 117.463C264.328 117.403 264.33 117.34 264.33 117.279C270.519 111.243 282.975 116.993 283.102 117.052Z" fill="white"/>
</g>
<g opacity="0.5">
<path d="M283 118.225C282.863 118.204 269.196 116.131 264.957 127.289L264.842 127.237C264.83 127.146 264.817 127.061 264.807 126.968C264.805 126.965 264.805 126.965 264.808 126.963C269.217 115.851 282.896 117.927 283.037 117.95L283 118.225Z" fill="white"/>
</g>
<g opacity="0.5">
<path d="M271.297 131.086C270.826 130.943 270.413 130.535 270.153 129.94C269.639 128.766 269.657 126.673 271.249 124.322C274.579 119.4 283.517 119.445 283.607 119.446L283.604 119.726C283.516 119.725 274.705 119.681 271.451 124.489C269.928 126.74 269.899 128.719 270.381 129.819C270.663 130.465 271.122 130.845 271.641 130.863C272.277 130.884 272.896 130.367 273.384 129.405C275.313 125.604 280.552 120.304 284.702 120.309V120.588C280.644 120.583 275.503 125.8 273.605 129.542C273.068 130.598 272.368 131.167 271.633 131.142C271.519 131.138 271.407 131.119 271.297 131.086Z" fill="white"/>
</g>
<g opacity="0.5">
<path d="M304.228 98.1842L304.167 98.3043C302.026 96.9666 299.409 98.637 296.639 100.408C296.123 100.738 295.589 101.079 295.063 101.397C293.468 102.359 291.9 102.637 290.503 102.212C290.395 102.179 290.29 102.141 290.184 102.101C288.489 101.44 287.128 99.7659 286.141 97.12C284.595 92.989 281.012 90.9862 279.51 90.3061C279.629 90.2612 279.75 90.217 279.873 90.1763C281.534 90.9745 284.882 93.0244 286.373 97.0138C287.334 99.5823 288.644 101.206 290.269 101.837C291.675 102.384 293.29 102.148 294.943 101.152C295.466 100.836 295.997 100.497 296.512 100.167C299.242 98.4239 301.823 96.7715 304.033 97.9135C304.1 98.0034 304.165 98.0924 304.228 98.1842Z" fill="white"/>
</g>
<g opacity="0.5">
<path d="M304.664 128.952C304.667 128.953 304.667 128.953 304.664 128.955C304.617 129.068 304.565 129.18 304.516 129.295C301.752 121.128 288.97 119.107 288.839 119.087L288.874 118.809C289.003 118.828 301.68 120.831 304.664 128.952Z" fill="white"/>
</g>
<g opacity="0.5">
<path d="M299.985 137.538L299.984 137.541C299.908 137.654 299.831 137.764 299.754 137.873L299.693 137.863C301.237 125.885 288.543 119.933 288.414 119.873L288.512 119.617C288.639 119.676 301.262 125.589 299.985 137.538Z" fill="white"/>
</g>
<g opacity="0.5">
<path d="M292.484 137.535C292.375 137.502 292.269 137.455 292.17 137.393C291.527 136.999 291.19 136.115 291.221 134.904C291.33 130.617 289.342 123.23 285.855 120.939L285.985 120.699C289.55 123.043 291.585 130.557 291.474 134.912C291.446 136.013 291.736 136.808 292.293 137.15C292.747 137.428 293.317 137.361 293.86 136.966C294.785 136.294 295.679 134.579 295.418 131.784C294.86 125.816 287.275 120.868 287.198 120.819L287.326 120.578C287.403 120.628 295.098 125.645 295.67 131.755C295.943 134.674 294.986 136.482 293.999 137.199C293.5 137.562 292.955 137.679 292.484 137.535Z" fill="white"/>
</g>
<g opacity="0.5">
<path d="M297.772 140.478C297.61 140.673 297.448 140.861 297.283 141.048L297.282 141.051C296.703 141.479 295.733 142.137 294.622 142.662C292.899 143.475 291.402 143.7 290.21 143.337C289.744 143.195 289.324 142.963 288.956 142.639C287.881 141.701 287.449 139.78 287.66 136.929C287.821 134.829 288.293 132.972 288.297 132.956L288.541 133.03C288.52 133.102 286.706 140.313 289.113 142.421C292.108 145.044 297.648 140.429 297.704 140.383L297.772 140.478Z" fill="white"/>
</g>
<path d="M303.11 96.749C301.07 94.86 296.745 94.1431 294.302 96.0415C292.583 97.3773 287.694 113.491 287.694 113.491L286.322 113.073C286.322 113.073 290.177 97.5727 287.782 93.7671C286.109 91.1072 281.129 89.8461 280.967 89.8228C284.396 88.831 288.26 88.7969 292.457 90.0746C297.154 91.5046 300.627 93.8505 303.11 96.749Z" fill="#FCCBA2"/>
<path d="M281.812 116.564C282.445 114.032 284.819 112.546 287.115 113.244C289.41 113.943 290.757 116.562 290.124 119.095C289.49 121.627 287.117 123.113 284.821 122.415C282.526 121.716 281.179 119.097 281.812 116.564Z" fill="white"/>
<path d="M282.773 116.857C283.26 114.911 285.085 113.768 286.849 114.305C288.614 114.842 289.649 116.855 289.163 118.802C288.676 120.749 286.851 121.891 285.087 121.354C283.322 120.817 282.287 118.804 282.773 116.857Z" fill="#EFEFEF"/>
<path d="M295.633 213.895H275.393V190.136H295.645C296.353 190.136 296.927 190.769 296.927 191.55V212.467C296.927 213.256 296.348 213.895 295.633 213.895Z" fill="#EBF3FA"/>
<path d="M282.348 213.895H263.336C262.588 213.895 261.981 213.226 261.981 212.4V191.768C261.981 190.867 262.644 190.136 263.461 190.136H282.261C282.954 190.136 283.516 190.756 283.516 191.521V212.607C283.516 213.318 282.993 213.895 282.348 213.895Z" fill="white"/>
<path d="M269.152 196.904C269.152 196.793 269.136 196.694 269.103 196.608C269.071 196.522 269.015 196.443 268.937 196.372C268.859 196.301 268.756 196.235 268.628 196.176C268.501 196.117 268.341 196.057 268.15 195.998C267.965 195.941 267.799 195.878 267.651 195.81C267.503 195.743 267.378 195.664 267.274 195.573C267.171 195.482 267.091 195.377 267.035 195.259C266.979 195.14 266.951 195.001 266.951 194.842C266.951 194.686 266.981 194.544 267.041 194.417C267.102 194.289 267.187 194.179 267.296 194.087C267.405 193.996 267.535 193.924 267.686 193.873C267.837 193.822 268.003 193.797 268.182 193.797C268.376 193.797 268.55 193.828 268.705 193.891C268.86 193.954 268.993 194.041 269.102 194.15C269.211 194.259 269.295 194.387 269.354 194.533C269.412 194.68 269.442 194.837 269.442 195.006H269.129C269.129 194.874 269.108 194.752 269.067 194.64C269.024 194.528 268.963 194.431 268.883 194.35C268.802 194.268 268.703 194.205 268.585 194.158C268.468 194.112 268.334 194.089 268.182 194.089C268.031 194.089 267.898 194.109 267.783 194.148C267.668 194.188 267.572 194.242 267.496 194.31C267.419 194.377 267.361 194.457 267.322 194.547C267.282 194.638 267.263 194.734 267.263 194.836C267.263 194.933 267.279 195.022 267.312 195.103C267.345 195.185 267.4 195.26 267.477 195.33C267.554 195.399 267.656 195.464 267.782 195.524C267.908 195.584 268.063 195.641 268.248 195.695C268.441 195.755 268.613 195.819 268.764 195.89C268.915 195.96 269.043 196.043 269.147 196.138C269.251 196.234 269.33 196.344 269.384 196.468C269.438 196.592 269.464 196.735 269.464 196.899C269.464 197.064 269.433 197.211 269.37 197.342C269.307 197.473 269.22 197.583 269.108 197.674C268.996 197.765 268.863 197.834 268.709 197.882C268.554 197.931 268.386 197.955 268.205 197.955C268.096 197.955 267.986 197.945 267.876 197.924C267.766 197.904 267.66 197.873 267.559 197.831C267.457 197.789 267.362 197.736 267.274 197.671C267.186 197.606 267.109 197.529 267.045 197.439C266.98 197.349 266.929 197.246 266.891 197.131C266.853 197.015 266.834 196.886 266.834 196.743H267.144C267.144 196.913 267.176 197.057 267.24 197.175C267.304 197.293 267.386 197.388 267.487 197.46C267.588 197.532 267.701 197.585 267.827 197.617C267.953 197.649 268.079 197.666 268.205 197.666C268.348 197.666 268.477 197.647 268.594 197.611C268.711 197.575 268.811 197.524 268.894 197.457C268.977 197.39 269.041 197.31 269.085 197.217C269.13 197.123 269.152 197.019 269.152 196.904Z" fill="#699DEE"/>
<path d="M271.815 197.518C271.73 197.655 271.616 197.762 271.474 197.839C271.332 197.916 271.156 197.954 270.946 197.954C270.812 197.954 270.69 197.934 270.581 197.892C270.472 197.85 270.378 197.784 270.299 197.693C270.22 197.603 270.159 197.485 270.116 197.342C270.073 197.198 270.052 197.023 270.052 196.818V194.892H270.351V196.823C270.351 196.985 270.368 197.119 270.402 197.226C270.435 197.334 270.481 197.42 270.538 197.485C270.595 197.55 270.662 197.596 270.738 197.624C270.814 197.652 270.895 197.666 270.981 197.666C271.102 197.666 271.209 197.651 271.301 197.621C271.393 197.592 271.473 197.55 271.54 197.496C271.608 197.442 271.663 197.379 271.707 197.307C271.75 197.235 271.785 197.155 271.81 197.068V194.892H272.112V197.899H271.82L271.815 197.518Z" fill="#699DEE"/>
<path d="M272.775 196.367C272.775 196.134 272.799 195.923 272.847 195.735C272.895 195.547 272.964 195.386 273.055 195.253C273.145 195.119 273.256 195.016 273.386 194.944C273.516 194.872 273.663 194.836 273.828 194.836C274.023 194.836 274.19 194.879 274.329 194.965C274.469 195.051 274.584 195.171 274.674 195.325L274.689 194.891H274.972V197.846C274.972 198.041 274.946 198.215 274.894 198.37C274.842 198.525 274.768 198.656 274.673 198.763C274.578 198.871 274.464 198.953 274.329 199.011C274.195 199.068 274.045 199.097 273.878 199.097C273.793 199.097 273.706 199.086 273.616 199.065C273.527 199.043 273.441 199.011 273.358 198.969C273.275 198.926 273.197 198.873 273.123 198.809C273.049 198.745 272.984 198.669 272.929 198.582L273.097 198.382C273.208 198.532 273.326 198.642 273.45 198.712C273.574 198.781 273.71 198.816 273.858 198.816C273.987 198.816 274.102 198.794 274.202 198.75C274.302 198.707 274.386 198.644 274.455 198.561C274.524 198.479 274.576 198.379 274.613 198.261C274.649 198.144 274.667 198.01 274.667 197.86V197.509C274.576 197.648 274.461 197.757 274.322 197.836C274.182 197.915 274.016 197.954 273.823 197.954C273.66 197.954 273.514 197.917 273.385 197.842C273.255 197.766 273.145 197.662 273.054 197.528C272.964 197.393 272.894 197.232 272.847 197.045C272.799 196.858 272.775 196.652 272.775 196.425L272.775 196.367ZM273.08 196.426C273.08 196.602 273.096 196.765 273.128 196.916C273.16 197.067 273.208 197.198 273.274 197.31C273.339 197.421 273.422 197.508 273.522 197.571C273.622 197.634 273.741 197.665 273.878 197.665C273.983 197.665 274.076 197.651 274.159 197.624C274.242 197.596 274.316 197.557 274.38 197.508C274.444 197.459 274.499 197.401 274.546 197.335C274.593 197.268 274.633 197.195 274.667 197.115V195.717C274.638 195.639 274.602 195.565 274.557 195.493C274.513 195.422 274.459 195.359 274.396 195.304C274.333 195.25 274.26 195.206 274.176 195.174C274.092 195.141 273.994 195.125 273.883 195.125C273.744 195.125 273.624 195.157 273.523 195.221C273.422 195.285 273.339 195.372 273.274 195.483C273.208 195.595 273.16 195.726 273.128 195.878C273.096 196.03 273.08 196.193 273.08 196.367V196.426Z" fill="#699DEE"/>
<path d="M277.478 197.899C277.461 197.847 277.448 197.784 277.439 197.709C277.43 197.634 277.424 197.557 277.42 197.479C277.375 197.544 277.321 197.605 277.259 197.663C277.197 197.72 277.127 197.77 277.05 197.813C276.973 197.856 276.888 197.89 276.795 197.916C276.703 197.942 276.603 197.954 276.496 197.954C276.363 197.954 276.243 197.933 276.134 197.89C276.026 197.848 275.934 197.788 275.857 197.711C275.781 197.634 275.722 197.544 275.68 197.44C275.638 197.336 275.617 197.223 275.617 197.101C275.617 196.955 275.645 196.823 275.702 196.705C275.759 196.588 275.842 196.487 275.949 196.405C276.057 196.322 276.187 196.259 276.341 196.216C276.495 196.172 276.667 196.151 276.858 196.151H277.418V195.809C277.418 195.594 277.358 195.425 277.238 195.301C277.118 195.178 276.942 195.117 276.712 195.117C276.607 195.117 276.509 195.132 276.42 195.164C276.331 195.195 276.254 195.239 276.19 195.295C276.125 195.35 276.075 195.415 276.038 195.488C276.002 195.561 275.984 195.639 275.984 195.723L275.682 195.72C275.682 195.607 275.707 195.497 275.757 195.392C275.808 195.286 275.879 195.192 275.97 195.11C276.062 195.027 276.172 194.961 276.3 194.911C276.429 194.861 276.571 194.836 276.727 194.836C276.872 194.836 277.005 194.856 277.127 194.897C277.248 194.938 277.353 194.999 277.44 195.081C277.528 195.162 277.596 195.264 277.644 195.386C277.693 195.509 277.717 195.651 277.717 195.814V197.271C277.717 197.323 277.719 197.377 277.722 197.432C277.726 197.488 277.731 197.541 277.739 197.593C277.746 197.645 277.755 197.695 277.765 197.742C277.775 197.789 277.787 197.83 277.8 197.866V197.899H277.478ZM276.531 197.66C276.64 197.66 276.741 197.645 276.835 197.614C276.928 197.583 277.012 197.541 277.088 197.488C277.163 197.434 277.229 197.371 277.284 197.3C277.34 197.229 277.384 197.151 277.418 197.068V196.406H276.901C276.747 196.406 276.608 196.422 276.487 196.452C276.365 196.483 276.262 196.527 276.178 196.584C276.094 196.642 276.03 196.712 275.986 196.794C275.941 196.877 275.919 196.97 275.919 197.073C275.919 197.155 275.933 197.231 275.962 197.303C275.99 197.374 276.031 197.436 276.084 197.489C276.137 197.542 276.201 197.583 276.277 197.614C276.352 197.644 276.437 197.66 276.531 197.66Z" fill="#699DEE"/>
<path d="M279.781 195.175C279.717 195.162 279.649 195.156 279.577 195.156C279.474 195.156 279.382 195.172 279.3 195.206C279.217 195.239 279.145 195.286 279.082 195.346C279.019 195.406 278.966 195.478 278.923 195.56C278.88 195.642 278.846 195.734 278.821 195.834V197.899H278.521V194.892H278.816L278.821 195.37C278.895 195.205 278.995 195.074 279.122 194.979C279.249 194.884 279.404 194.836 279.589 194.836C279.626 194.836 279.664 194.84 279.703 194.847C279.741 194.854 279.77 194.863 279.788 194.872L279.781 195.175Z" fill="#699DEE"/>
<path d="M265.571 205.383C265.571 202.985 266.921 201.106 268.913 201.106C270.894 201.106 272.233 202.961 272.233 205.383C272.233 207.782 270.894 209.661 268.891 209.661C266.888 209.661 265.571 207.806 265.571 205.383ZM270.541 205.383C270.541 203.883 269.877 202.748 268.891 202.748C267.906 202.748 267.263 203.847 267.263 205.383C267.263 206.896 267.917 208.018 268.913 208.018C269.909 208.018 270.541 206.908 270.541 205.383Z" fill="#699DEE"/>
<path d="M273.056 204.699C273.056 203.79 273.629 203.057 274.477 203.057C275.317 203.057 275.882 203.781 275.882 204.699C275.882 205.597 275.308 206.34 274.461 206.34C273.621 206.34 273.056 205.616 273.056 204.699ZM277.885 203.13H278.875L274.627 209.55H273.638L277.885 203.13ZM275.009 204.699C275.009 204.267 274.793 203.891 274.461 203.891C274.111 203.891 273.929 204.258 273.929 204.699C273.929 205.129 274.145 205.506 274.477 205.506C274.826 205.506 275.009 205.129 275.009 204.699ZM276.63 207.982C276.63 207.074 277.204 206.34 278.052 206.34C278.892 206.34 279.457 207.065 279.457 207.982C279.457 208.881 278.883 209.624 278.035 209.624C277.196 209.624 276.63 208.899 276.63 207.982ZM278.584 207.982C278.584 207.551 278.368 207.175 278.035 207.175C277.686 207.175 277.503 207.542 277.503 207.982C277.503 208.413 277.719 208.789 278.052 208.789C278.401 208.789 278.584 208.413 278.584 207.982Z" fill="#699DEE"/>
<path d="M204.986 152.325L206.02 153.251C206.02 153.251 208.849 152.132 209.488 155.841C209.488 155.841 209.658 157.422 208.75 157.425C207.843 157.428 208.217 157.252 206.932 157.294C205.647 157.335 204.582 156.588 204.393 155.437L203.779 154.462L204.986 152.325Z" fill="#EA8E50"/>
<path d="M204.869 154.313C205.694 153.363 205.628 152.66 205.628 152.66C205.628 152.66 196.073 144.03 195.104 143.327C194.444 142.848 187.408 135.965 184.119 131.77C182.487 129.688 180.467 130.496 178.154 131.228L176.25 131.83C173.951 132.558 173.353 136.106 175.24 137.83C180.553 142.685 189.391 148.147 191.045 149.294C195.15 152.144 203.186 155.529 203.186 155.529C203.186 155.529 204.16 155.129 204.869 154.313Z" fill="#1E3D70"/>
<path d="M215.772 207.336C215.772 207.336 218.091 209.253 221.644 208.24C221.644 208.24 224.508 207.52 225.137 209.096C225.137 209.096 220.743 211.559 219.632 212.232C218.794 212.74 217.919 213.541 217.301 214.16C216.812 214.65 216.05 214.584 215.633 214.018C215.44 213.756 215.219 213.444 214.976 213.081C214.299 212.068 212.721 208.797 212.721 208.797L215.772 207.336Z" fill="#233862"/>
<path d="M217.133 206.363C217.133 206.363 215.721 209.954 212.462 209.294C212.462 209.294 205.812 203.235 201.25 196.94C199.769 194.896 198.507 192.826 197.766 190.933C194.741 183.205 186.576 171.68 181.385 165.839L194.373 160.655C194.373 160.655 198.533 169.888 204.068 181.229C208.057 189.4 212.759 198.667 217.133 206.363Z" fill="#2B478B"/>
<path d="M204.068 181.229L201.251 196.94C199.769 194.896 198.508 192.826 197.766 190.933C194.741 183.205 186.577 171.68 181.385 165.839L194.373 160.655C194.373 160.655 198.533 169.888 204.068 181.229Z" fill="#233862"/>
<path d="M193.452 209.421C193.452 209.421 193.311 212.287 196.46 212.669C196.46 212.669 198.26 212.68 198.265 214.504L189.112 214.536C189.112 214.536 188.846 213.8 188.782 212.224C188.732 211.014 189.845 207.85 189.845 207.85L193.452 209.421Z" fill="#233862"/>
<path d="M190.113 160.655C190.113 160.655 195.899 167.67 199.572 180.307C201.57 187.183 195.909 204.47 194.806 210.476C194.806 210.476 191.008 210.831 188.411 209.724C188.411 209.724 188.214 197.318 189.733 187.757C190.583 182.406 182.115 176.313 178.415 166.644C175.897 160.066 178.959 160.178 182.723 160.02L190.113 160.655Z" fill="#2B478B"/>
<path d="M183.434 129.362C180.215 131.367 173.625 129.517 173.625 129.517C173.625 129.517 176.301 126.142 175.085 120.705L177.613 122.121L180.328 123.643C180.328 123.643 180.503 124.603 180.625 126.327C180.656 126.771 180.684 127.267 180.703 127.81C182.356 128.362 183.434 129.362 183.434 129.362Z" fill="#FFB07B"/>
<path d="M195.238 160.293C195.238 160.917 194.586 161.216 194.448 161.246C193.15 161.508 189.524 163.064 186.258 163.421C183.509 163.739 180.956 163.437 178.151 162.816C177.779 162.733 176.907 162.474 176.845 162.081C176.768 161.652 166.026 137.921 174.377 127.727C174.573 127.488 176.221 127.919 177.729 128.314C179.121 128.678 180.398 128.475 181.538 127.97L182.951 128.791C184.687 129.858 187.972 133.65 188.357 136.625C188.552 138.139 189.336 139.259 189.563 140.59C189.647 141.083 189.733 141.564 189.821 142.032C189.992 142.952 190.168 143.826 190.35 144.658C190.841 146.909 191.359 148.846 191.868 150.52C192.41 152.296 192.941 153.774 193.416 155.011C194.032 156.614 194.552 157.812 194.877 158.73C195.107 159.376 195.238 159.882 195.238 160.293Z" fill="#2A4E96"/>
<path d="M194.877 158.73C179.714 150.848 174.463 135.713 174.463 135.713C174.463 135.713 186.782 140.727 189.821 142.032C189.992 142.952 190.168 143.826 190.35 144.658C190.841 146.909 191.359 148.846 191.868 150.52C192.41 152.296 192.941 153.775 193.416 155.011C194.032 156.614 194.552 157.812 194.877 158.73Z" fill="#1E3D70"/>
<path d="M180.625 126.327C177.459 126.523 175.401 123.64 175.401 123.64C175.401 123.64 176.832 122.765 177.613 122.121L180.328 123.642C180.328 123.642 180.503 124.602 180.625 126.327Z" fill="#EA8E50"/>
<path d="M181.974 122.741C181.974 122.741 177.177 126.539 175.08 123.207C172.982 119.875 170.95 118.121 173.924 115.555C176.898 112.99 178.3 113.8 179.245 114.724C180.19 115.649 183.167 121.667 181.974 122.741Z" fill="#FFB07B"/>
<path d="M179.752 111.715C179.58 110.435 179.193 109.533 179.193 109.533C179.193 109.533 178.892 110.909 176.613 110.719C174.335 110.529 170.723 110.966 169.519 113.831C169.443 114.013 169.374 114.201 169.314 114.393C169.096 113.758 169.043 112.806 169.043 112.806C168.61 114.04 169.043 115.582 169.043 115.582C169.037 115.627 169.032 115.672 169.026 115.717C168.523 116.187 168.1 117.645 168.1 117.645C168.252 117.238 168.622 116.973 168.952 116.809C168.942 119.038 169.761 121.218 171.2 121.866C173.303 122.815 173.286 122.092 175.401 123.639C175.401 123.639 175.968 122.863 175.581 122.341C175.194 121.819 173.733 121.06 174.549 120.301C175.366 119.542 175.667 120.396 175.968 119.874C176.269 119.352 174.764 117.834 176.699 116.411C178.634 114.988 179.924 112.996 179.752 111.715Z" fill="#233862"/>
<path d="M204.069 156.737C204.069 156.737 206.635 157.692 208.113 157.652C209.592 157.612 212.163 155.896 212.168 155.775C212.173 155.654 211.012 154.915 209.329 155.15C207.645 155.384 207.302 155.106 207.825 154.875C208.414 154.615 208.834 154.227 208.69 153.979C208.611 153.842 207.765 154.138 207.476 154.244C207.188 154.35 206.467 154.059 205.866 154.537C205.467 154.855 203.967 155.093 203.967 155.093L204.069 156.737Z" fill="#FFC299"/>
<path d="M205.083 155.816C205.535 154.409 205.742 153.771 205.742 153.771C205.742 153.771 195.641 145.146 194.615 144.41C193.915 143.909 186.945 138.457 183.508 134.153C181.804 132.018 179.172 131.094 176.662 131.748L174.596 132.286C172.1 132.937 171.365 136.463 173.353 138.25C178.953 143.281 188.336 149.036 190.088 150.239C194.438 153.225 204.003 157.312 204.003 157.312C204.003 157.312 204.728 156.922 205.083 155.816Z" fill="#2A4E96"/>
<path d="M118.775 142.167C117.991 142.932 115.911 140.304 115.625 139.955C115.609 139.922 115.594 139.905 115.594 139.905L116.228 137.96C116.228 137.96 118.956 137.843 119.408 138.342C119.86 138.841 119.634 141.352 118.775 142.167Z" fill="#ED985F"/>
<path d="M116.228 137.96L115.956 139.972C115.956 139.972 115.836 139.972 115.625 139.955C114.961 139.905 113.349 139.806 111.525 139.589C108.781 139.29 105.526 138.758 104.229 137.877C102.255 136.546 99.0139 132.472 96.9036 128.397C96.8432 128.297 96.7981 128.198 96.7528 128.098C95.6525 125.936 94.8837 123.79 94.8235 122.078C94.7782 121.03 94.8838 120.132 95.0797 119.35C95.336 118.319 95.7581 117.504 96.1951 116.889C96.2555 116.789 96.3157 116.689 96.4061 116.606C97.1297 115.658 97.8382 115.259 97.8382 115.259C98.1999 115.092 98.5918 115.292 98.9988 115.774V115.791C99.3304 116.174 99.6921 116.756 100.039 117.487C100.054 117.504 100.069 117.521 100.069 117.537C100.144 117.687 100.22 117.853 100.31 118.036C100.34 118.069 100.355 118.119 100.37 118.153C100.536 118.535 100.702 118.934 100.868 119.35C102.722 123.807 104.696 130.559 106.34 132.571C107.048 133.436 110.289 135.132 112.866 136.396C114.72 137.294 116.228 137.96 116.228 137.96Z" fill="#ED985F"/>
<path d="M143.202 140.278C143.144 140.081 143.082 139.885 143.018 139.688C139.417 128.715 128.042 122.99 118.054 127.117C108.152 131.208 103.014 143.26 106.568 154.185C106.585 154.237 106.602 154.289 106.619 154.34C108.533 160.082 108.666 166.341 107.09 172.225C105.329 178.802 105.408 186.029 107.743 192.948C113.444 209.836 130.626 218.525 146.12 212.365C161.762 206.145 169.923 187.236 164.351 170.108C162.075 163.111 157.858 157.493 152.6 153.717C148.166 150.532 144.853 145.805 143.202 140.278Z" fill="#82B378"/>
<path d="M141.947 141.571C141.892 141.387 141.835 141.203 141.775 141.019C138.408 130.758 127.911 125.349 118.737 129.142C109.642 132.903 104.97 144.121 108.294 154.337C108.309 154.385 108.325 154.433 108.341 154.481C110.13 159.851 110.282 165.693 108.86 171.174C107.27 177.302 107.378 184.047 109.56 190.517C114.888 206.31 130.745 214.519 144.977 208.86C159.344 203.147 166.766 185.548 161.556 169.531C159.427 162.988 155.519 157.721 150.661 154.166C146.565 151.169 143.492 146.738 141.947 141.571Z" fill="#CEE085"/>
<path d="M150.477 176.384C153.121 184.514 149.292 193.47 141.923 196.388C141.527 196.545 141.13 196.681 140.732 196.797C133.698 198.841 126.295 194.644 123.792 186.951C122.124 181.822 123.032 176.365 125.779 172.302C127.387 169.925 129.626 168.024 132.345 166.947C139.714 164.029 147.832 168.254 150.477 176.384Z" fill="#F99746"/>
<path d="M142.722 182.145C144.391 187.275 143.482 192.735 140.732 196.797C133.698 198.841 126.295 194.644 123.792 186.951C122.123 181.822 123.032 176.365 125.779 172.302C132.812 170.253 140.218 174.45 142.722 182.145Z" fill="#ED7D2B"/>
<path d="M96.4835 210.437L94.4918 211.256C94.4918 211.256 85.8405 198.017 84.7754 186.37C84.5851 184.29 84.6486 182.275 85.06 180.415C85.06 180.415 84.9754 179.882 84.8274 178.94C84.7591 178.501 84.6745 177.971 84.5786 177.365C84.2973 175.587 83.9103 173.154 83.4679 170.384C82.4499 164.009 81.1311 155.86 80.1066 149.87L80.6433 149.68L86.4503 147.613L87.6504 143.407L91.9744 142.151C91.9744 142.151 92.9403 144.236 93.8038 154.084C93.9632 155.376 94.1079 156.8 94.2168 158.345C94.5534 163.06 94.5778 168.909 93.8054 175.596C93.607 177.307 93.3567 179.075 93.046 180.89C92.8184 182.221 92.7843 184.035 92.8802 186.118C93.3158 195.64 96.4835 210.437 96.4835 210.437Z" fill="#2B478B"/>
<path d="M94.2167 158.345L84.8273 178.94C84.759 178.501 84.6744 177.971 84.5785 177.365C84.2971 175.587 83.9102 173.154 83.4678 170.384C82.4498 164.009 81.131 155.86 80.1065 149.87L80.6432 149.68L86.4501 147.613L87.6503 143.407L91.9742 142.151C91.9742 142.151 92.9402 144.236 93.8036 154.084C93.963 155.376 94.1078 156.8 94.2167 158.345Z" fill="#233862"/>
<path d="M90.0861 144.794L89.8687 142.738C86.2272 143.805 76.4975 139.756 76.4975 139.756C76.4975 139.756 72.9698 143.177 73.4329 151.378C73.659 155.381 74.0719 172.391 74.5032 177.425C74.6592 179.249 74.7956 180.547 74.8515 181.066C74.8526 181.068 74.8526 181.069 74.8526 181.071C74.8697 181.229 74.8197 181.378 74.7468 181.516C74.1118 182.705 73.5861 183.943 73.1548 185.21C68.9215 197.656 73.8068 212.984 73.8068 212.984L75.0745 212.42C75.0745 212.42 77.8544 195.362 80.1134 187.827C80.4969 186.549 80.8644 185.544 81.2014 184.944C82.1835 183.195 83.0949 180.337 83.9222 176.939C85.4858 170.513 86.7443 162.154 87.5819 155.701C87.6975 155.707 90.0861 144.794 90.0861 144.794Z" fill="#2B478B"/>
<path d="M97.043 119.851C95.8998 120.435 94.5192 120.834 92.8491 120.934C86.5886 121.313 85.1672 115.258 84.9088 111.239C85.8112 110.878 86.6015 110.912 87.0569 110.939C87.5009 110.966 87.9642 111.016 88.3464 111.068C89.1122 110.627 90.488 108.483 91.2832 104.896L91.553 105.035L96.0704 107.378C96.0704 107.378 95.5907 109 95.2362 110.552C94.9598 111.766 94.7614 112.94 94.9272 113.268C95.2834 113.428 95.4965 113.528 95.4965 113.528C95.4965 113.528 95.4965 113.53 95.4981 113.533C95.5437 113.661 96.5258 116.422 97.043 119.851Z" fill="#FFB27D"/>
<path d="M98.609 124.383C98.5618 124.521 98.5098 124.655 98.4528 124.793C96.8674 128.561 93.9322 144.168 93.9322 144.168C94.3501 146.974 74.8186 143.617 74.7681 141.063C74.0802 138.353 77.2088 134.001 78.9733 131.817C79.1944 131.543 79.3929 131.249 79.5652 130.938C80.001 130.16 80.2774 129.28 80.3653 128.362C80.7118 124.74 80.5799 121.346 80.609 119.282L80.6092 119.282C80.9539 119 81.2873 118.74 81.5979 118.493C82.0727 118.11 82.4922 117.753 82.8012 117.391C83.1411 116.996 83.3542 116.592 83.3784 116.137C83.3964 115.792 83.3866 115.439 83.3542 115.085C83.3395 114.919 83.3199 114.752 83.2972 114.585C83.0533 112.832 82.3898 111.242 82.3898 111.242C84.0697 110.492 87.0568 110.939 87.0568 110.939C87.0568 110.939 87.0535 111.122 87.0519 111.422C87.0421 112.626 87.0519 115.717 87.4014 116.302C87.8389 117.03 95.8411 120.222 96.2639 119.233C96.6801 118.261 95.5403 113.706 95.498 113.534C95.4964 113.53 95.4964 113.528 95.4964 113.528C98.1763 114.689 99.1341 115.663 99.1341 115.663C97.5194 116.819 99.8579 120.728 98.609 124.383Z" fill="#F99746"/>
<path d="M93.2187 91.8264C93.2088 91.5269 92.9988 88.2999 88.5437 88.1313C88.5437 88.1313 90.7345 88.4195 91.1129 89.4821C91.1129 89.4821 89.6212 88.1691 88.4064 88.5915C87.1917 89.0138 86.4782 91.3619 86.4711 92.1343C86.4639 92.9066 87.1389 95.3964 87.9097 95.6081C88.2018 95.6882 88.5381 95.6667 88.8435 95.6093C88.6384 95.9627 88.4373 96.3526 88.2451 96.7878C86.4675 100.814 88.3009 104.749 89.8058 104.314C90.771 104.035 91.0441 105.852 91.0441 105.852L100.421 97.4766C100.421 97.4766 96.977 89.6135 93.2187 91.8264Z" fill="#2C3A64"/>
<path d="M96.0707 107.379C96.0707 107.379 95.5904 108.999 95.2365 110.553C92.5959 109.74 91.7942 106.677 91.5529 105.036L96.0707 107.379Z" fill="#ED985F"/>
<path d="M96.6266 109.094C96.6266 109.094 90.3093 107.481 91.2804 103.156C92.2514 98.8307 92.09 95.7097 96.1645 96.5566C100.239 97.4037 100.649 99.2675 100.643 100.798C100.638 102.329 98.295 109.402 96.6266 109.094Z" fill="#FFB27D"/>
<path d="M100.999 98.3423C100.319 96.7746 99.5201 96.8583 99.0201 97.1362C96.0517 94.106 93.1402 96.5815 93.1402 96.5815C92.0196 99.5684 89.5908 100.789 89.5908 100.789C89.5908 100.789 90.5612 101.885 93.3742 101.861C94.2333 101.854 95.0972 101.419 95.8833 100.819C94.3671 102.504 92.5893 103.529 92.5893 103.529C96.1105 102.786 98.4716 98.2885 98.7136 97.8108C99.0118 98.2968 99.5825 99.3313 99.6304 100.205C99.6957 101.392 99.3255 103.698 99.9416 103.785C99.9416 103.785 102.017 100.693 100.999 98.3423Z" fill="#2C3A64"/>
<path d="M99.1348 115.662C99.1348 115.662 100.656 118.59 100.883 119.343C100.883 119.343 98.9109 119.259 98.1144 120.933C98.1144 120.933 97.9234 116.057 99.1348 115.662Z" fill="#F99746"/>
<path d="M88.6731 138.924C84.8208 138.879 81.5587 134.465 79.5651 130.938C80.0009 130.159 80.2773 129.28 80.3652 128.362C80.7117 124.74 80.5798 121.346 80.6089 119.282L80.6091 119.282C80.9538 119 81.2872 118.74 81.5978 118.492C82.0726 118.11 82.4921 117.753 82.8011 117.391C85.956 123.274 93.8964 138.985 88.6731 138.924Z" fill="#ED7D2B"/>
<path d="M109.317 143.082C108.983 143.365 106.31 144.517 105.292 144.164C104.723 143.967 102.745 143.427 101.947 143.211C101.63 143.145 100.491 142.899 100.491 142.899L101.35 140.139C101.35 140.139 101.383 140.144 101.456 140.172C101.783 140.298 102.412 140.64 103.235 140.775C104.249 140.942 105.515 140.239 106.174 140.638C107.568 141.481 109.492 140.626 109.936 141.075C110.27 141.414 110.149 142.378 109.317 143.082Z" fill="#FFB27D"/>
<path d="M103.234 141.237L102.707 143.365C102.707 143.365 102.044 143.232 100.988 143.016C100.672 142.949 100.491 142.9 100.491 142.9C99.647 142.717 98.6371 142.467 97.5368 142.201H97.5216C95.6374 141.702 93.5273 141.104 91.7486 140.438C90.4976 139.956 89.4122 139.441 88.6736 138.925C88.5983 138.875 88.538 138.825 88.4626 138.758C86.6991 137.345 84.6038 133.187 82.9761 128.73C82.7499 128.115 82.5389 127.5 82.3278 126.901C81.5742 124.672 80.9712 122.477 80.6096 120.581C80.3834 119.451 80.2327 118.419 80.2026 117.571C80.1874 117.272 80.1724 116.989 80.1874 116.723C80.2176 111.9 82.3881 111.235 82.3881 111.235C82.4333 111.218 82.4786 111.202 82.5389 111.185C82.9156 111.119 83.3077 111.401 83.7146 111.95C84.2271 112.632 84.7697 113.746 85.3275 115.093C86.1866 117.239 87.091 120.016 87.9351 122.777C88.4023 124.29 88.8545 125.803 89.3067 127.201C89.563 128.049 89.8194 128.847 90.0604 129.579C90.5276 130.976 90.9498 132.107 91.3266 132.822C91.5677 133.287 92.2611 133.936 93.1805 134.667C94.7783 135.948 97.1147 137.495 99.1495 138.758C99.9937 139.291 100.792 139.773 101.456 140.172C102.526 140.821 103.234 141.237 103.234 141.237Z" fill="#FFB27D"/>
<path d="M85.322 115.1C82.4202 114.217 80.1817 116.717 80.1817 116.717C80.2182 111.902 82.3905 111.243 82.3905 111.243C83.2645 110.844 84.2773 112.514 85.322 115.1Z" fill="#F99746"/>
<path d="M81.1772 214.127H71.1454C71.1454 214.127 70.905 212.44 71.429 211.16C71.9311 209.932 72.7175 209.374 72.5292 207.888C73.1666 208.612 74.2056 209.423 75.6559 209.208C75.8335 209.526 76.803 211.227 77.3965 211.697C78.052 212.217 80.9753 212.032 81.1772 214.127Z" fill="#233862"/>
<path d="M102.717 214.127H92.6852C92.6852 214.127 92.3101 212.362 92.9688 211.16C93.5517 210.098 93.3284 209.492 92.8966 208.613C93.3511 208.818 93.9389 209.005 94.5862 208.964C95.0861 208.932 95.6147 208.682 96.0782 208.385C96.51 208.928 98.3588 211.24 98.9365 211.698C99.5919 212.217 102.515 212.032 102.717 214.127Z" fill="#233862"/>
<path d="M103.75 141.058C103.75 141.058 104.608 140.44 105.872 139.972C106.662 139.68 107.696 139.363 107.664 139.681C107.632 139.998 106.001 140.846 105.969 140.987C105.936 141.128 103.75 141.058 103.75 141.058Z" fill="#FFB27D"/>
<path d="M158.644 183.25C165.36 178.037 171.416 182.315 176.141 189.725C180.867 197.134 182.091 205.109 175.375 210.323C168.66 215.537 152.99 215.368 149.718 210.238C147.138 206.194 151.928 188.464 158.644 183.25Z" fill="#F77D48"/>
<path d="M167.069 184.886C166.829 185.073 165.973 185.017 165.973 185.017C165.973 185.017 166.215 184.111 166.456 183.924C166.697 183.737 167.029 183.801 167.198 184.066C167.368 184.332 167.31 184.699 167.069 184.886Z" fill="#FBBEA3"/>
<path d="M166.881 188.256C166.64 188.443 165.785 188.388 165.785 188.388C165.785 188.388 166.027 187.481 166.268 187.294C166.508 187.107 166.841 187.171 167.01 187.436C167.18 187.702 167.122 188.069 166.881 188.256Z" fill="#FBBEA3"/>
<path d="M170.159 189.73C169.918 189.917 169.062 189.862 169.062 189.862C169.062 189.862 169.304 188.955 169.545 188.768C169.786 188.581 170.118 188.645 170.288 188.91C170.457 189.176 170.399 189.543 170.159 189.73Z" fill="#FBBEA3"/>
<path d="M171.016 194.74C170.775 194.927 169.92 194.871 169.92 194.871C169.92 194.871 170.162 193.965 170.403 193.778C170.643 193.591 170.976 193.655 171.145 193.92C171.315 194.186 171.257 194.553 171.016 194.74Z" fill="#FBBEA3"/>
<path d="M174.138 196.485C173.897 196.672 173.042 196.617 173.042 196.617C173.042 196.617 173.284 195.71 173.525 195.523C173.766 195.336 174.098 195.4 174.268 195.666C174.437 195.931 174.379 196.298 174.138 196.485Z" fill="#FBBEA3"/>
<path d="M174.773 200.629C174.532 200.816 173.677 200.761 173.677 200.761C173.677 200.761 173.919 199.854 174.159 199.667C174.4 199.48 174.733 199.544 174.902 199.81C175.072 200.076 175.014 200.442 174.773 200.629Z" fill="#FBBEA3"/>
<path d="M177.576 201.876C177.336 202.063 176.48 202.008 176.48 202.008C176.48 202.008 176.722 201.101 176.963 200.914C177.204 200.727 177.536 200.791 177.706 201.056C177.875 201.322 177.817 201.689 177.576 201.876Z" fill="#FBBEA3"/>
<path d="M161.614 186.811C161.326 187.034 160.304 186.968 160.304 186.968C160.304 186.968 160.593 185.885 160.881 185.661C161.169 185.438 161.566 185.514 161.768 185.832C161.971 186.149 161.902 186.587 161.614 186.811Z" fill="#FBBEA3"/>
<path d="M161.389 190.838C161.101 191.062 160.079 190.996 160.079 190.996C160.079 190.996 160.368 189.912 160.656 189.689C160.943 189.465 161.341 189.542 161.543 189.859C161.746 190.176 161.677 190.615 161.389 190.838Z" fill="#FBBEA3"/>
<path d="M165.305 192.598C165.017 192.822 163.995 192.756 163.995 192.756C163.995 192.756 164.284 191.672 164.572 191.449C164.859 191.225 165.257 191.302 165.459 191.619C165.662 191.937 165.592 192.375 165.305 192.598Z" fill="#FBBEA3"/>
<path d="M166.329 198.585C166.042 198.808 165.02 198.742 165.02 198.742C165.02 198.742 165.309 197.659 165.597 197.435C165.884 197.212 166.281 197.288 166.484 197.606C166.686 197.923 166.617 198.362 166.329 198.585Z" fill="#FBBEA3"/>
<path d="M170.06 200.671C169.772 200.894 168.75 200.828 168.75 200.828C168.75 200.828 169.039 199.745 169.327 199.521C169.615 199.298 170.012 199.374 170.214 199.691C170.417 200.009 170.348 200.447 170.06 200.671Z" fill="#FBBEA3"/>
<path d="M170.818 205.623C170.53 205.847 169.508 205.781 169.508 205.781C169.508 205.781 169.797 204.697 170.085 204.474C170.373 204.25 170.77 204.327 170.973 204.644C171.175 204.962 171.106 205.4 170.818 205.623Z" fill="#FBBEA3"/>
<path d="M174.168 207.112C173.88 207.335 172.858 207.269 172.858 207.269C172.858 207.269 173.147 206.186 173.435 205.962C173.722 205.739 174.12 205.815 174.322 206.132C174.525 206.45 174.456 206.888 174.168 207.112Z" fill="#FBBEA3"/>
<path d="M152.053 200.585C151.899 200.705 151.349 200.669 151.349 200.669C151.349 200.669 151.505 200.087 151.659 199.967C151.814 199.847 152.028 199.888 152.136 200.058C152.245 200.229 152.208 200.465 152.053 200.585Z" fill="#FBBEA3"/>
<path d="M151.932 202.75C151.778 202.87 151.228 202.834 151.228 202.834C151.228 202.834 151.384 202.252 151.538 202.132C151.693 202.012 151.907 202.053 152.015 202.223C152.124 202.394 152.087 202.63 151.932 202.75Z" fill="#FBBEA3"/>
<path d="M154.037 203.696C153.883 203.816 153.333 203.781 153.333 203.781C153.333 203.781 153.488 203.199 153.643 203.079C153.798 202.959 154.011 203 154.12 203.17C154.229 203.341 154.192 203.577 154.037 203.696Z" fill="#FBBEA3"/>
<path d="M154.588 206.914C154.434 207.034 153.884 206.999 153.884 206.999C153.884 206.999 154.039 206.417 154.194 206.296C154.349 206.176 154.562 206.217 154.671 206.388C154.78 206.558 154.743 206.794 154.588 206.914Z" fill="#FBBEA3"/>
<path d="M156.594 208.035C156.439 208.155 155.89 208.12 155.89 208.12C155.89 208.12 156.045 207.537 156.2 207.417C156.354 207.297 156.568 207.338 156.677 207.509C156.785 207.679 156.748 207.915 156.594 208.035Z" fill="#FBBEA3"/>
<path d="M157.001 210.698C156.847 210.818 156.297 210.783 156.297 210.783C156.297 210.783 156.453 210.2 156.607 210.08C156.762 209.96 156.975 210.001 157.084 210.172C157.193 210.342 157.156 210.578 157.001 210.698Z" fill="#FBBEA3"/>
<path d="M158.802 211.498C158.647 211.618 158.098 211.583 158.098 211.583C158.098 211.583 158.253 211.001 158.408 210.88C158.563 210.76 158.776 210.801 158.885 210.972C158.994 211.142 158.957 211.378 158.802 211.498Z" fill="#FBBEA3"/>
<path d="M154.666 196.305C154.466 196.46 153.754 196.414 153.754 196.414C153.754 196.414 153.955 195.66 154.156 195.504C154.356 195.349 154.633 195.402 154.774 195.623C154.915 195.844 154.867 196.149 154.666 196.305Z" fill="#FBBEA3"/>
<path d="M154.51 199.11C154.309 199.265 153.598 199.219 153.598 199.219C153.598 199.219 153.799 198.464 153.999 198.309C154.2 198.153 154.476 198.206 154.617 198.428C154.758 198.649 154.71 198.954 154.51 199.11Z" fill="#FBBEA3"/>
<path d="M157.237 200.336C157.037 200.491 156.325 200.445 156.325 200.445C156.325 200.445 156.526 199.69 156.727 199.535C156.927 199.379 157.204 199.433 157.345 199.654C157.486 199.875 157.438 200.18 157.237 200.336Z" fill="#FBBEA3"/>
<path d="M157.951 204.506C157.751 204.662 157.039 204.616 157.039 204.616C157.039 204.616 157.24 203.861 157.441 203.705C157.641 203.55 157.918 203.603 158.059 203.824C158.2 204.045 158.152 204.351 157.951 204.506Z" fill="#FBBEA3"/>
<path d="M160.55 205.959C160.349 206.114 159.637 206.068 159.637 206.068C159.637 206.068 159.839 205.314 160.039 205.158C160.239 205.003 160.516 205.056 160.657 205.277C160.798 205.498 160.75 205.803 160.55 205.959Z" fill="#FBBEA3"/>
<path d="M161.078 209.408C160.877 209.564 160.166 209.517 160.166 209.517C160.166 209.517 160.367 208.763 160.567 208.607C160.767 208.452 161.044 208.505 161.185 208.726C161.326 208.947 161.278 209.252 161.078 209.408Z" fill="#FBBEA3"/>
<path d="M163.411 210.445C163.211 210.6 162.499 210.555 162.499 210.555C162.499 210.555 162.7 209.8 162.9 209.644C163.101 209.489 163.377 209.542 163.519 209.763C163.659 209.984 163.611 210.29 163.411 210.445Z" fill="#FBBEA3"/>
<path d="M157.602 191.889C157.358 192.078 156.492 192.022 156.492 192.022C156.492 192.022 156.737 191.104 156.981 190.914C157.224 190.725 157.561 190.789 157.733 191.059C157.904 191.328 157.846 191.699 157.602 191.889Z" fill="#FBBEA3"/>
<path d="M157.411 195.301C157.167 195.49 156.301 195.435 156.301 195.435C156.301 195.435 156.546 194.516 156.79 194.327C157.034 194.137 157.37 194.202 157.542 194.471C157.713 194.74 157.655 195.112 157.411 195.301Z" fill="#FBBEA3"/>
<path d="M160.73 196.793C160.486 196.982 159.62 196.926 159.62 196.926C159.62 196.926 159.864 196.008 160.108 195.819C160.352 195.629 160.689 195.694 160.86 195.963C161.032 196.232 160.973 196.603 160.73 196.793Z" fill="#FBBEA3"/>
<path d="M161.598 201.867C161.354 202.056 160.488 202 160.488 202C160.488 202 160.733 201.082 160.977 200.892C161.221 200.703 161.557 200.768 161.729 201.037C161.9 201.306 161.842 201.677 161.598 201.867Z" fill="#FBBEA3"/>
<path d="M164.759 203.633C164.515 203.822 163.649 203.767 163.649 203.767C163.649 203.767 163.894 202.848 164.138 202.659C164.382 202.469 164.718 202.534 164.89 202.803C165.062 203.072 165.003 203.444 164.759 203.633Z" fill="#FBBEA3"/>
<path d="M165.402 207.83C165.158 208.019 164.292 207.963 164.292 207.963C164.292 207.963 164.537 207.045 164.781 206.856C165.025 206.666 165.361 206.731 165.533 207C165.704 207.269 165.646 207.641 165.402 207.83Z" fill="#FBBEA3"/>
<path d="M168.241 209.092C167.997 209.281 167.131 209.225 167.131 209.225C167.131 209.225 167.375 208.307 167.619 208.117C167.863 207.928 168.2 207.993 168.371 208.262C168.543 208.531 168.484 208.902 168.241 209.092Z" fill="#FBBEA3"/>
<path d="M175.405 189.37C175.405 189.37 180.502 184.876 185.551 187.165C185.551 187.165 185.028 187.84 184.653 188.131C184.278 188.422 180.692 186.317 175.55 190.124L175.405 189.37Z" fill="#649B57"/>
<path d="M176.071 189.161C176.071 189.161 174.581 184.794 171.005 183.687C171.005 183.687 173.356 186.223 173.555 186.997C173.555 186.997 172.59 186.539 171 187.541C171 187.541 173.619 188.153 174.144 189.834C174.669 191.514 174.254 194.621 174.254 194.621C174.254 194.621 176.399 193.507 176.404 192.256C176.404 192.256 178.384 193.868 179.505 197.084C179.505 197.084 179.023 192.182 176.071 189.161Z" fill="#649B57"/>
<path d="M341.597 215H0.402721C0.181264 215 0 214.8 0 214.555V214.363C0 214.118 0.181136 213.918 0.402721 213.918H341.597C341.819 213.918 342 214.118 342 214.363V214.555C342 214.8 341.819 215 341.597 215Z" fill="#2E3552"/>
<path d="M156.312 205.712C156.312 210.194 152.411 213.827 147.599 213.827C142.787 213.827 138.886 210.194 138.886 205.712C138.886 201.231 142.787 197.598 147.599 197.598C152.411 197.598 156.312 201.231 156.312 205.712Z" fill="#2A4E96"/>
<path d="M151.119 204.878C152.364 204.878 153.372 203.939 153.372 202.78C153.372 201.621 152.364 200.682 151.119 200.682C149.875 200.682 148.866 201.621 148.866 202.78C148.866 203.939 149.875 204.878 151.119 204.878Z" fill="#4673BC"/>
</svg>
