<svg width="253" height="238" viewBox="0 0 253 238" fill="none" xmlns="http://www.w3.org/2000/svg">
<path d="M88.1676 223.145C105.077 211.478 106.773 192.269 103.86 175.367C103.375 172.546 103.378 169.529 101.371 167.184C99.3628 164.839 95.2088 163.466 92.1884 164.92C89.6826 166.127 88.852 168.667 87.6398 170.811C86.028 173.664 83.3956 176.131 80.1436 177.838C78.0062 178.96 75.2871 179.762 72.9313 178.964C69.699 177.869 68.9026 174.525 68.5604 171.706C67.9241 166.454 67.2864 161.203 66.6494 155.952C66.308 153.134 65.9462 150.258 64.5047 147.676C63.0625 145.094 60.318 142.811 56.8665 142.336C53.4144 141.863 49.4657 143.749 49.1133 146.563C48.9663 147.734 49.4133 148.901 49.4664 150.078C49.5196 151.255 49.0049 152.605 47.6566 153.045C46.2916 153.491 44.7774 152.809 43.6169 152.072C39.6093 149.528 36.6667 146.069 33.8872 142.617C31.1084 139.164 28.3857 135.62 24.6824 132.791C20.9791 129.962 16.0934 127.881 11.0135 128.068C5.93274 128.256 0.873873 131.189 0.108745 135.253C-0.658567 139.328 2.76303 143.117 6.33387 146.07C11.6323 150.452 17.7169 154.212 24.3351 157.195C25.5283 157.733 26.8213 158.315 27.3811 159.323C28.3894 161.137 26.4026 163.185 24.1611 163.993C21.6226 164.909 18.7426 164.926 16.0265 165.411C13.3103 165.896 10.4565 167.11 9.68413 169.271C8.61179 172.268 12.0159 175.037 15.2373 176.768C21.6881 180.236 28.8742 182.803 36.3828 184.323C39.0749 184.867 41.8909 185.307 44.1709 186.59C46.451 187.874 48.0403 190.3 47.0327 192.388C46.0244 194.477 42.8627 195.38 40.0934 195.201C37.3256 195.023 34.7404 194.044 32.0498 193.478C27.0149 192.417 20.7912 193.199 18.1187 196.799C16.3628 199.166 16.5783 202.241 17.9491 204.777C19.3185 207.313 21.7034 209.397 24.1946 211.296C32.9022 217.932 43.6024 222.972 55.2475 225.158C66.8911 227.344 77.4165 227.328 88.1676 223.145Z" fill="#82B378"/>
<path d="M90.0714 235.697C88.4334 229.041 85.5629 221.258 81.3114 212.964C77.0788 204.662 71.495 195.869 65.2582 186.832C63.6887 184.577 62.138 182.35 60.61 180.154C59.0782 177.966 57.5589 175.794 55.9085 173.745C52.6296 169.633 49.085 165.88 45.5811 162.401C42.078 158.919 38.5938 155.717 35.3098 152.742C32.0156 149.772 28.8801 147.049 25.8902 144.665C19.9257 139.878 14.553 136.478 10.7449 134.265C8.84332 133.153 7.33272 132.329 6.29896 131.782C5.80247 131.523 5.41298 131.319 5.11887 131.165C4.85097 131.029 4.71119 130.963 4.70464 130.97C4.69736 130.978 4.82549 131.059 5.08102 131.21C5.36567 131.374 5.74422 131.592 6.2247 131.869C7.23298 132.444 8.71883 133.294 10.5956 134.43C14.3514 136.691 19.6599 140.123 25.5648 144.929C28.5263 147.323 31.6341 150.053 34.905 153.032C38.1701 156.017 41.6332 159.224 45.1159 162.705C48.5979 166.184 52.1186 169.931 55.3713 174.023C57.0085 176.064 58.5119 178.216 60.045 180.411C61.5716 182.606 63.1208 184.833 64.6889 187.086C70.9199 196.116 76.5066 204.881 80.7573 213.148C85.0256 221.406 87.9303 229.147 89.6193 235.77" fill="#E0E0E0"/>
<path d="M55.72 173.741C55.7644 173.742 55.8292 173.305 55.9093 172.511C55.9937 171.718 56.0687 170.567 56.1357 169.144C56.2725 166.299 56.2922 162.366 56.2944 158.029C56.2958 153.69 56.3861 149.768 56.5768 146.933C56.6671 145.515 56.7545 144.368 56.828 143.576C56.8957 142.783 56.9117 142.342 56.8673 142.337C56.8229 142.333 56.721 142.765 56.5761 143.554C56.4254 144.341 56.2667 145.487 56.1189 146.906C55.8095 149.745 55.645 153.683 55.6443 158.026C55.6559 162.306 55.6669 166.177 55.6756 169.136C55.669 170.472 55.6618 171.599 55.6567 172.502C55.6545 173.297 55.6741 173.739 55.72 173.741Z" fill="#E0E0E0"/>
<path d="M9.50586 170.709C9.5095 170.745 10.1618 170.751 11.3368 170.733C12.511 170.72 14.2095 170.693 16.309 170.715C20.5081 170.73 26.3074 170.915 32.6941 171.341C39.0823 171.777 44.8423 172.368 48.9926 172.892C51.0718 173.142 52.7462 173.38 53.9051 173.539C55.0634 173.702 55.7084 173.776 55.7193 173.74C55.7288 173.704 55.1005 173.564 53.9546 173.338C52.8088 173.118 51.1416 172.822 49.0668 172.524C44.9238 171.905 39.1529 171.254 32.7451 170.815C26.3394 170.388 20.5147 170.262 16.3039 170.342C14.1978 170.369 12.4958 170.451 11.3222 170.528C10.1501 170.611 9.50368 170.672 9.50586 170.709Z" fill="#E0E0E0"/>
<path d="M80.6677 212.344C80.6896 212.35 80.7755 212.189 80.9218 211.877C81.0856 211.506 81.2858 211.052 81.5282 210.504C82.048 209.309 82.7433 207.565 83.5673 205.4C85.2192 201.073 87.2649 195.038 89.4096 188.354C91.5564 181.667 93.5286 175.625 95.0647 171.276C95.8196 169.162 96.4413 167.422 96.9029 166.129C97.0994 165.568 97.261 165.106 97.3935 164.726C97.4984 164.404 97.5442 164.232 97.5224 164.226C97.5005 164.221 97.4146 164.381 97.2683 164.694C97.1045 165.065 96.9043 165.517 96.6619 166.066C96.1421 167.261 95.4469 169.005 94.6228 171.169C92.9709 175.497 90.9252 181.532 88.7798 188.219C86.6344 194.904 84.6615 200.945 83.1255 205.295C82.3691 207.408 81.7488 209.149 81.2873 210.441C81.0907 211.002 80.9291 211.465 80.7966 211.844C80.691 212.167 80.6459 212.339 80.6677 212.344Z" fill="#E0E0E0"/>
<path d="M18.4151 201.802C18.4114 201.82 18.6262 201.87 19.0383 201.95C19.526 202.037 20.1237 202.144 20.8488 202.274C22.5188 202.56 24.7734 202.945 27.5165 203.412C33.1462 204.375 40.9023 205.774 49.4708 207.33C58.0416 208.888 65.8217 210.232 71.4783 211.101C74.3066 211.536 76.599 211.87 78.189 212.074C78.9235 212.165 79.5292 212.24 80.0213 212.302C80.4414 212.348 80.6649 212.363 80.6685 212.345C80.6722 212.327 80.4567 212.277 80.0454 212.197C79.5591 212.111 78.9607 212.004 78.2356 211.874C76.5655 211.589 74.3117 211.204 71.5693 210.736C65.9397 209.774 58.1821 208.374 49.6113 206.817C41.0435 205.26 33.2641 203.916 27.6075 203.047C24.7793 202.612 22.4868 202.278 20.8961 202.074C20.1616 201.983 19.5566 201.907 19.063 201.846C18.6415 201.799 18.4195 201.784 18.4151 201.802Z" fill="#E0E0E0"/>
<path d="M70.8616 94.6753C70.3164 94.6753 69.7929 94.4306 69.5403 94.0121L66.3837 88.7646C66.1842 88.4345 66.1915 88.0491 66.4012 87.7241C66.6108 87.3986 66.9996 87.1701 67.4517 87.1073C68.6361 86.9423 69.723 86.3488 70.4321 85.4797C71.0851 84.6798 71.3137 83.7527 71.0589 82.9354C70.8063 82.1204 70.0594 81.3792 69.0089 80.9002C67.8841 80.3875 66.5497 80.2393 65.4337 80.5061C63.155 81.0496 61.5228 83.1801 61.8708 85.1588C61.9829 85.7983 61.426 86.3889 60.6252 86.479C59.8106 86.5679 59.084 86.1232 58.9719 85.4838C58.4252 82.3738 60.9477 79.1354 64.5972 78.2658C66.4893 77.8147 68.6288 78.0344 70.4605 78.8703C72.2026 79.6644 73.4562 80.9409 73.901 82.3732C74.3502 83.8178 73.9804 85.4158 72.8847 86.7568C72.0934 87.7264 70.9978 88.4868 69.7463 88.9571L72.1808 93.0012C72.5302 93.5831 72.2237 94.2818 71.4943 94.5608C71.2897 94.6381 71.0742 94.6753 70.8616 94.6753Z" fill="#E0E0E0"/>
<path d="M74.0058 96.1845C74.3072 96.6548 74.0743 97.2308 73.4861 97.4715C72.8971 97.7121 72.1757 97.5267 71.8743 97.0564C71.5729 96.5862 71.8058 96.0101 72.3941 95.7694C72.9823 95.5288 73.7045 95.7142 74.0058 96.1845Z" fill="#E0E0E0"/>
<path d="M30.8501 77.0954C30.4693 77.0954 30.1039 76.9245 29.9277 76.6322L27.7233 72.9676C27.5842 72.7374 27.5886 72.4683 27.7349 72.241C27.8813 72.0137 28.1528 71.8539 28.4688 71.8103C29.2958 71.6952 30.0551 71.2807 30.5501 70.6732C31.0058 70.1146 31.166 69.467 30.9884 68.8962C30.8122 68.3271 30.2902 67.8092 29.5564 67.4749C28.7709 67.1168 27.839 67.0134 27.0594 67.1994C25.468 67.579 24.3286 69.0665 24.5711 70.4483C24.6497 70.8947 24.2602 71.3074 23.7011 71.3702C23.1318 71.4324 22.6251 71.1214 22.5465 70.6756C22.1643 68.5038 23.926 66.242 26.4748 65.6345C27.7961 65.3194 29.29 65.4729 30.5698 66.0565C31.7863 66.6111 32.662 67.5028 32.9729 68.5026C33.2867 69.5112 33.0282 70.6273 32.2631 71.5638C31.7106 72.241 30.9454 72.7717 30.0711 73.1002L31.771 75.9247C32.0156 76.331 31.8008 76.8187 31.292 77.0141C31.1493 77.0699 30.9986 77.0954 30.8501 77.0954Z" fill="#F5F5F5"/>
<path d="M33.0464 78.1491C33.2568 78.4776 33.0944 78.8798 32.6831 79.0478C32.2718 79.2158 31.768 79.0862 31.5576 78.7577C31.3472 78.4293 31.5096 78.027 31.9209 77.8591C32.3315 77.6911 32.8353 77.8213 33.0464 78.1491Z" fill="#F5F5F5"/>
<path d="M212.502 79.0717C212.665 79.3467 212.628 79.6833 212.372 79.9355L209.167 83.0943C208.966 83.2931 208.659 83.4053 208.339 83.3966C208.019 83.3885 207.723 83.2606 207.538 83.0513C207.054 82.5037 206.259 82.1329 205.36 82.0352C204.533 81.9451 203.732 82.1067 203.162 82.4793C202.593 82.8502 202.23 83.4483 202.165 84.1209C202.096 84.8411 202.377 85.5579 202.921 86.0404C204.032 87.0268 206.203 87.2129 207.664 86.4461C208.135 86.1985 208.769 86.3031 209.08 86.6798C209.393 87.064 209.259 87.5628 208.787 87.8104C206.492 89.0155 203.178 88.7109 201.401 87.1315C200.479 86.3124 200.013 85.1684 200.127 83.9954C200.234 82.8798 200.869 81.8666 201.868 81.2144C202.876 80.5564 204.249 80.2657 205.637 80.4169C206.64 80.5261 207.568 80.8511 208.314 81.3417L210.784 78.9066C211.14 78.5567 211.783 78.5026 212.222 78.7869C212.345 78.8677 212.439 78.9648 212.502 79.0717Z" fill="#F5F5F5"/>
<path d="M212.756 77.0362C213.038 76.7438 213.563 76.6891 213.929 76.9135C214.295 77.1385 214.363 77.5576 214.082 77.85C213.801 78.1424 213.276 78.197 212.91 77.9727C212.543 77.7483 212.474 77.3286 212.756 77.0362Z" fill="#F5F5F5"/>
<path d="M201.829 3.24361C201.992 3.51856 201.955 3.85514 201.699 4.10742L198.494 7.26622C198.293 7.46502 197.986 7.57721 197.666 7.56849C197.346 7.56035 197.049 7.43247 196.865 7.2232C196.38 6.67561 195.587 6.30475 194.687 6.20709C193.86 6.11698 193.059 6.27859 192.489 6.6512C191.92 7.02207 191.557 7.62023 191.492 8.2928C191.423 9.01303 191.704 9.72977 192.248 10.2123C193.359 11.1987 195.53 11.3847 196.991 10.618C197.462 10.3704 198.096 10.475 198.406 10.8517C198.72 11.2359 198.586 11.7347 198.114 11.9823C195.818 13.1874 192.505 12.8828 190.727 11.3034C189.805 10.4843 189.339 9.3403 189.454 8.16723C189.561 7.05171 190.195 6.03851 191.195 5.38629C192.202 4.72884 193.576 4.4376 194.964 4.58874C195.967 4.69802 196.895 5.02297 197.641 5.51359L200.111 3.07852C200.467 2.72858 201.11 2.67451 201.549 2.95877C201.672 3.03899 201.765 3.13665 201.829 3.24361Z" fill="#F5F5F5"/>
<path d="M202.082 1.20806C202.364 0.915667 202.889 0.861024 203.255 1.08541C203.621 1.31037 203.69 1.72949 203.409 2.02188C203.127 2.31428 202.602 2.36892 202.236 2.14454C201.87 1.91958 201.801 1.50046 202.082 1.20806Z" fill="#F5F5F5"/>
<path d="M121.007 14.8999C121.502 14.8999 121.977 15.122 122.206 15.5016L125.071 20.2636C125.251 20.5629 125.245 20.9129 125.055 21.2082C124.865 21.5041 124.512 21.711 124.102 21.768C123.027 21.918 122.041 22.4562 121.398 23.2451C120.805 23.9711 120.598 24.8123 120.829 25.5546C121.058 26.294 121.736 26.9671 122.689 27.402C123.71 27.867 124.921 28.0019 125.934 27.7595C128.002 27.2665 129.483 25.3331 129.167 23.5369C129.065 22.9567 129.571 22.4202 130.298 22.3388C131.037 22.258 131.696 22.662 131.798 23.2416C132.295 26.0638 130.005 29.0029 126.693 29.7923C124.977 30.2015 123.034 30.0021 121.372 29.2435C119.791 28.5227 118.654 27.3642 118.25 26.065C117.842 24.7541 118.178 23.3044 119.172 22.0865C119.89 21.2064 120.885 20.5164 122.02 20.0898L119.811 16.4194C119.493 15.891 119.772 15.2574 120.434 15.004C120.618 14.9336 120.814 14.8999 121.007 14.8999Z" fill="#E0E0E0"/>
<path d="M118.153 13.5306C117.88 13.1039 118.091 12.5813 118.625 12.3628C119.159 12.1442 119.814 12.3128 120.088 12.7395C120.361 13.1661 120.15 13.6887 119.616 13.9073C119.082 14.1259 118.427 13.9573 118.153 13.5306Z" fill="#E0E0E0"/>
<path d="M219.767 108.954C220.263 108.954 220.737 109.176 220.967 109.556L223.831 114.318C224.012 114.618 224.006 114.968 223.816 115.263C223.626 115.558 223.273 115.766 222.863 115.823C221.788 115.973 220.802 116.511 220.158 117.3C219.566 118.026 219.358 118.867 219.589 119.609C219.818 120.348 220.496 121.021 221.45 121.456C222.471 121.921 223.681 122.056 224.695 121.814C226.763 121.321 228.244 119.387 227.928 117.592C227.826 117.012 228.332 116.475 229.058 116.394C229.798 116.313 230.457 116.716 230.559 117.296C231.055 120.119 228.766 123.058 225.454 123.847C223.737 124.256 221.795 124.057 220.133 123.298C218.552 122.577 217.415 121.419 217.011 120.12C216.603 118.809 216.938 117.359 217.932 116.142C218.65 115.262 219.645 114.572 220.781 114.145L218.572 110.475C218.255 109.946 218.534 109.313 219.195 109.059C219.379 108.988 219.575 108.954 219.767 108.954Z" fill="#E0E0E0"/>
<path d="M216.914 107.585C216.64 107.158 216.851 106.636 217.385 106.417C217.92 106.198 218.575 106.367 218.848 106.794C219.122 107.22 218.911 107.743 218.376 107.961C217.843 108.18 217.187 108.011 216.914 107.585Z" fill="#E0E0E0"/>
<path d="M239.639 139.726C239.639 139.726 234.042 136.29 225.879 147.101C217.716 157.911 214.425 164.227 214.425 164.227C214.425 164.227 212.322 166.47 210.437 164.818C208.553 163.167 206.173 158.65 202.665 159.239C199.028 159.85 197.57 162.959 197.833 167.666C198.096 172.373 198.197 182.702 198.201 183.635C198.206 184.552 197.432 185.858 195.922 184.898C194.412 183.937 186.005 175.295 181.109 178.726C176.212 182.157 179.642 195.173 179.982 196.601C180.323 198.03 179.926 198.609 179.061 198.908C178.196 199.208 175.713 196.09 173.195 193.711C170.678 191.331 167.237 188.924 164.619 191.093C162.002 193.261 160.375 202.788 170.392 218.984L175.649 226.246L186.199 226.379C208.799 225.565 218.461 219.829 219.576 216.951C220.691 214.074 216.39 212.83 212.565 212.218C208.74 211.607 204.122 211.375 204.033 210.626C203.943 209.877 204.387 209.319 206.118 208.868C207.849 208.416 223.78 204.531 225.179 199.451C226.579 194.37 213.042 192.663 211.259 192.072C209.477 191.48 210.536 190.308 211.543 189.868C212.57 189.421 223.947 184.505 229.235 182.417C234.524 180.328 237.231 177.808 236.145 174.969C235.097 172.232 228.995 172.749 226.274 172.228C223.552 171.707 224.997 169.154 224.997 169.154C224.997 169.154 230.334 163.803 238.25 152.876C246.166 141.949 239.519 139.663 239.519 139.663" fill="#82B378"/>
<path d="M232.308 149.397C232.308 149.397 232.261 149.479 232.157 149.633C232.044 149.794 231.887 150.02 231.683 150.311C231.254 150.914 230.633 151.787 229.836 152.907C228.23 155.159 225.875 158.406 222.947 162.409C217.094 170.416 208.892 181.422 199.785 193.554C190.676 205.691 182.442 216.682 176.539 224.664C173.598 228.651 171.215 231.881 169.56 234.123C168.741 235.232 168.102 236.097 167.661 236.694C167.446 236.979 167.279 237.2 167.159 237.359C167.045 237.508 166.979 237.581 166.979 237.581C166.979 237.581 167.025 237.499 167.13 237.345C167.243 237.184 167.4 236.958 167.603 236.667C168.032 236.064 168.654 235.191 169.45 234.072C171.057 231.82 173.411 228.574 176.34 224.571C182.193 216.564 190.396 205.556 199.506 193.42C208.612 181.288 216.845 170.298 222.748 162.315C225.689 158.329 228.072 155.099 229.727 152.856C230.547 151.747 231.186 150.883 231.627 150.285C231.842 150 232.009 149.779 232.129 149.62C232.242 149.471 232.308 149.397 232.308 149.397Z" fill="#82B378"/>
<path d="M205.676 165.664C205.697 165.661 205.772 165.868 205.889 166.247C206.008 166.625 206.159 167.176 206.338 167.858C206.693 169.223 207.123 171.117 207.551 173.215C207.963 175.285 208.336 177.157 208.62 178.589C208.754 179.233 208.866 179.777 208.957 180.215C209.038 180.598 209.073 180.813 209.051 180.816C209.029 180.82 208.952 180.613 208.832 180.235C208.715 179.856 208.563 179.305 208.393 178.621C208.055 177.254 207.656 175.355 207.229 173.258C206.799 171.191 206.409 169.322 206.112 167.893C205.974 167.248 205.858 166.705 205.764 166.268C205.687 165.883 205.654 165.668 205.676 165.664Z" fill="#E0E0E0"/>
<path d="M210.002 181.02C209.983 180.949 214.836 180.069 220.84 179.054C226.846 178.038 231.729 177.272 231.747 177.342C231.766 177.413 226.914 178.293 220.908 179.308C214.904 180.324 210.02 181.09 210.002 181.02Z" fill="#E0E0E0"/>
<path d="M194.962 199.15C194.964 199.132 195.241 199.138 195.737 199.166C196.3 199.199 197.004 199.241 197.839 199.291C199.614 199.395 202.066 199.531 204.777 199.601C207.49 199.676 209.948 199.676 211.727 199.664C212.565 199.66 213.27 199.656 213.835 199.652C214.333 199.651 214.609 199.66 214.61 199.678C214.611 199.696 214.337 199.722 213.84 199.754C213.343 199.785 212.623 199.821 211.733 199.849C209.952 199.907 207.487 199.937 204.766 199.861C202.047 199.791 199.59 199.626 197.818 199.475C196.932 199.396 196.217 199.327 195.723 199.266C195.23 199.209 194.959 199.168 194.962 199.15Z" fill="#E0E0E0"/>
<path d="M187.221 185.949C187.241 185.94 187.372 186.116 187.589 186.44C187.832 186.816 188.132 187.277 188.485 187.822C189.228 188.995 190.234 190.622 191.327 192.426C192.422 194.231 193.395 195.871 194.085 197.064C194.401 197.623 194.669 198.097 194.887 198.483C195.07 198.82 195.162 199.01 195.141 199.019C195.121 199.026 194.992 198.851 194.773 198.527C194.529 198.151 194.231 197.69 193.878 197.145C193.134 195.972 192.128 194.345 191.034 192.54C189.941 190.736 188.967 189.096 188.277 187.903C187.961 187.344 187.693 186.87 187.475 186.484C187.292 186.147 187.2 185.957 187.221 185.949Z" fill="#E0E0E0"/>
<path d="M171.397 200.608C171.417 200.599 171.581 200.826 171.861 201.24C172.162 201.701 172.55 202.295 173.017 203.008C173.98 204.506 175.29 206.584 176.719 208.886C178.149 211.188 179.427 213.279 180.337 214.798C180.766 215.527 181.122 216.133 181.4 216.603C181.644 217.032 181.769 217.273 181.749 217.281C181.729 217.289 181.565 217.063 181.285 216.649C180.985 216.188 180.596 215.594 180.129 214.88C179.166 213.382 177.856 211.304 176.427 209.002C174.998 206.7 173.72 204.609 172.81 203.09C172.381 202.362 172.024 201.756 171.747 201.285C171.502 200.856 171.377 200.615 171.397 200.608Z" fill="#E0E0E0"/>
<path d="M181.641 216.827C181.643 216.809 181.993 216.81 182.624 216.827C183.314 216.848 184.213 216.875 185.297 216.909C187.553 216.976 190.67 217.06 194.113 217.075C197.558 217.095 200.677 217.046 202.934 216.999C204.018 216.977 204.918 216.959 205.607 216.945C206.239 216.934 206.588 216.937 206.59 216.954C206.591 216.972 206.243 217.004 205.614 217.046C204.984 217.088 204.071 217.137 202.943 217.183C200.686 217.277 197.562 217.355 194.111 217.335C190.662 217.32 187.54 217.207 185.285 217.092C184.157 217.033 183.245 216.977 182.616 216.928C181.987 216.879 181.64 216.844 181.641 216.827Z" fill="#E0E0E0"/>
<path d="M200.257 189.595L189.17 147.368C189.17 147.368 182.67 127.017 160.295 120.004L158.75 119.625C158.718 119.615 156.628 119.104 156.595 119.095C155.696 118.816 152.022 117.885 151.056 117.645C120.886 109.294 112.881 111.467 81.4412 120.033C81.4412 120.033 67.4746 123.033 60.7049 137.582C53.9359 152.13 40.9768 174.884 40.9768 174.884L72.3427 183.728L78.3545 176.596V202.926V225.384H115.576H164.622L162.241 202.926L161.826 175.263" fill="#E8505B"/>
<path d="M112.451 122.627C112.468 122.643 112.212 122.832 111.732 123.161C111.495 123.329 111.197 123.526 110.827 123.731C110.461 123.938 110.056 124.193 109.566 124.42C108.616 124.914 107.416 125.416 106.035 125.885C104.644 126.334 103.067 126.737 101.367 127.01C99.6639 127.268 98.012 127.369 96.5116 127.371C95.0112 127.352 93.6622 127.248 92.5491 127.077C91.9878 127.013 91.4935 126.899 91.056 126.817C90.617 126.738 90.2479 126.645 89.9487 126.561C89.3488 126.401 89.022 126.303 89.0307 126.283C89.0533 126.222 90.376 126.592 92.5928 126.865C93.6993 127.008 95.0323 127.088 96.5116 127.092C97.9909 127.074 99.6158 126.967 101.295 126.713C102.969 126.444 104.525 126.055 105.903 125.626C107.271 125.178 108.468 124.703 109.426 124.238C111.351 123.319 112.402 122.578 112.451 122.627Z" fill="#FAFAFA"/>
<g opacity="0.3">
<path d="M78.3545 195.165L85.4277 201.686H92.378V208.786L164.27 222.06L163.684 216.531L96.0478 197.987H84.7136L79.2485 194.501L78.3545 195.165Z" fill="black"/>
</g>
<path d="M99.5256 189.358L93.529 188.472C93.529 188.472 79.3156 176.058 76.6504 175.881C74.4569 175.735 62.3648 175.829 58.1541 175.867C57.3511 175.874 56.7075 176.396 56.7075 177.037C56.7075 177.665 57.3292 178.182 58.1162 178.206L72.4018 178.649L72.4694 179.567L58.1635 179.719C56.7068 179.808 55.7735 181.651 60.4363 181.983L72.4018 182.322V182.916L60.2689 184.271C59.6559 184.339 58.0427 184.589 58.0281 185.083C58.0281 185.083 57.2943 186.298 60.7508 186.642C61.9375 186.761 72.4694 186.481 72.4694 186.481L72.0632 187.237L61.1592 189.116C60.365 189.252 59.8379 189.856 59.9508 190.497C60.0658 191.152 60.8047 191.619 61.6288 191.558L73.2804 190.694L84.713 197.987H100.002L99.5256 189.358Z" fill="#FFBE9D"/>
<path d="M200.257 189.596L165.366 195.075L161.826 175.264" fill="#E8505B"/>
<path d="M160.72 190.351L96.0479 188.683L96.0588 206.531L138.966 213.336L169.094 217.176C187.819 217.176 202.797 203.453 199.896 188.683L199.817 188.699L160.72 190.351Z" fill="#E8505B"/>
<path d="M178.524 190.023C178.524 190.037 178.235 190.053 177.686 190.069C177.091 190.083 176.289 190.101 175.282 190.124C173.145 190.155 170.136 190.198 166.44 190.252C158.973 190.339 148.656 190.44 137.26 190.353C125.859 190.263 115.543 189.935 108.09 189.532C104.363 189.333 101.35 189.141 99.2715 188.974C98.2683 188.892 97.4711 188.827 96.8792 188.778C96.3325 188.729 96.0464 188.696 96.0486 188.682C96.0501 188.669 96.3391 188.674 96.8887 188.697C97.482 188.727 98.2821 188.766 99.2882 188.817C101.37 188.935 104.386 189.084 108.112 189.246C115.565 189.575 125.872 189.858 137.266 189.948C148.655 190.034 158.97 189.979 166.437 189.965C170.134 189.966 173.143 189.966 175.28 189.967C176.289 189.975 177.09 189.983 177.685 189.988C178.235 189.997 178.524 190.009 178.524 190.023Z" fill="#263238"/>
<path d="M96.0508 188.845C96.0589 188.845 96.0676 188.953 96.0756 189.162C96.0814 189.388 96.0894 189.695 96.0996 190.086C96.1105 190.916 96.1258 192.102 96.1448 193.604C96.1622 196.658 96.1877 200.996 96.2176 206.219L96.0923 206.095C103.396 207.346 112.15 208.893 121.574 210.473C134.496 212.655 146.256 214.378 154.807 215.433C159.083 215.957 162.551 216.342 164.95 216.595C166.13 216.719 167.056 216.816 167.712 216.886C168.011 216.92 168.248 216.948 168.43 216.969C168.592 216.989 168.674 217.002 168.673 217.007C168.672 217.012 168.589 217.009 168.426 216.999C168.243 216.986 168.005 216.968 167.704 216.945C167.046 216.89 166.116 216.811 164.932 216.711C162.527 216.494 159.051 216.141 154.768 215.644C146.201 214.642 134.423 212.951 121.497 210.768C112.07 209.188 103.321 207.623 96.0268 206.341L95.9009 206.319L95.9016 206.218C95.9271 200.995 95.9482 196.657 95.9628 193.603C95.981 192.101 95.9948 190.915 96.005 190.085C96.0145 189.694 96.0225 189.387 96.0283 189.16C96.0348 188.952 96.0428 188.845 96.0508 188.845Z" fill="#263238"/>
<path d="M90.5282 140.028C90.502 140.026 90.5202 139.716 90.5748 139.158C90.6192 138.599 90.6899 137.791 90.7168 136.792C90.7881 134.796 90.6753 132.025 90.039 129.019C89.3758 126.028 88.5379 123.302 87.2377 121.608C86.6014 120.757 85.8625 120.196 85.3056 119.869C84.7399 119.549 84.3774 119.43 84.3941 119.402C84.3992 119.392 84.4917 119.416 84.6642 119.472C84.8411 119.522 85.0835 119.627 85.3886 119.772C85.9855 120.076 86.7805 120.634 87.4641 121.494C88.1564 122.348 88.7439 123.472 89.2098 124.752C89.6772 126.028 90.0958 127.455 90.4125 128.97C91.0539 132 91.1245 134.796 90.984 136.8C90.9221 137.804 90.8107 138.613 90.7212 139.17C90.6214 139.726 90.5544 140.031 90.5282 140.028Z" fill="#263238"/>
<path d="M161.649 124.34C161.754 124.34 161.838 136.205 161.838 150.838C161.838 165.476 161.753 177.339 161.649 177.339C161.545 177.339 161.459 165.476 161.459 150.838C161.459 136.205 161.544 124.34 161.649 124.34Z" fill="#263238"/>
<path d="M183.968 183.944C183.967 184.001 182.867 183.973 181.118 184.146C180.244 184.228 179.212 184.385 178.088 184.617C176.967 184.864 175.755 185.192 174.531 185.629C173.311 186.075 172.202 186.585 171.231 187.095C170.27 187.617 169.441 188.131 168.787 188.601C167.47 189.536 166.77 190.214 166.716 190.177C166.696 190.163 166.858 189.986 167.168 189.676C167.473 189.361 167.963 188.936 168.605 188.443C169.245 187.946 170.069 187.407 171.034 186.863C172.01 186.333 173.134 185.806 174.374 185.352C175.62 184.908 176.857 184.582 178 184.346C179.148 184.126 180.2 183.988 181.089 183.932C181.977 183.872 182.7 183.859 183.197 183.884C183.695 183.903 183.968 183.923 183.968 183.944Z" fill="#263238"/>
<g opacity="0.3">
<path d="M91.1339 186.417C102.034 181.221 108.835 172.614 115.484 163.98C122.133 155.345 128.322 146.28 137.541 139.312C141.774 136.111 146.725 133.412 148.289 128.928L131.721 139.441L85.5654 181.826L91.1339 186.417Z" fill="black"/>
</g>
<path d="M61.2115 163.672C61.2239 163.788 58.6074 163.707 55.6263 164.518C54.1419 164.924 52.8664 165.441 51.9448 165.816C51.0246 166.196 50.4546 166.434 50.4255 166.396C50.4 166.362 50.9212 166.059 51.8145 165.629C52.7085 165.203 53.9846 164.647 55.5047 164.231C57.0255 163.817 58.4779 163.661 59.5211 163.622C60.5672 163.585 61.2115 163.637 61.2115 163.672Z" fill="#263238"/>
<path d="M61.2115 163.672C61.2239 163.788 58.6074 163.707 55.6263 164.518C54.1419 164.924 52.8664 165.441 51.9448 165.816C51.0246 166.196 50.4546 166.434 50.4255 166.396C50.4 166.362 50.9212 166.059 51.8145 165.629C52.7085 165.203 53.9846 164.647 55.5047 164.231C57.0255 163.817 58.4779 163.661 59.5211 163.622C60.5672 163.585 61.2115 163.637 61.2115 163.672Z" fill="#263238"/>
<path d="M161.371 182.671C161.338 182.724 160.583 182.141 158.856 181.746C157.148 181.322 154.462 181.33 151.414 182.119C148.328 182.845 145.127 184.591 141.171 185.904C139.196 186.54 136.953 187.035 134.592 186.908C132.228 186.813 129.914 186.097 127.717 185.223C125.508 184.343 123.454 183.352 121.364 182.577C119.28 181.793 117.129 181.308 115.027 181.148C110.815 180.829 106.984 181.606 104.125 182.722C101.217 183.81 99.2714 185.248 98.0534 186.284C97.7586 186.549 97.495 186.786 97.2628 186.996C97.0604 187.211 96.8857 187.397 96.7379 187.554C96.6047 187.691 96.4962 187.803 96.4081 187.894C96.3317 187.97 96.2902 188.008 96.2851 188.005C96.2793 188.002 96.3106 187.959 96.3761 187.877C96.4562 187.781 96.5545 187.664 96.6753 187.518C96.8158 187.355 96.9811 187.163 97.174 186.94C97.4004 186.724 97.6567 186.478 97.9435 186.204C99.1367 185.137 101.078 183.657 104.008 182.53C105.451 181.942 107.14 181.466 109.005 181.154C110.868 180.843 112.923 180.708 115.062 180.87C117.2 181.024 119.41 181.517 121.52 182.307C123.635 183.088 125.697 184.08 127.885 184.951C130.064 185.817 132.326 186.515 134.614 186.611C136.898 186.738 139.086 186.266 141.04 185.644C144.952 184.365 148.193 182.627 151.334 181.913C154.43 181.14 157.173 181.165 158.898 181.632C159.767 181.846 160.389 182.121 160.789 182.325C160.967 182.427 161.112 182.51 161.229 182.577C161.327 182.635 161.375 182.667 161.371 182.671Z" fill="#FAFAFA"/>
<path d="M192.993 161.173C192.977 161.212 192.543 161.002 191.682 160.976C190.828 160.935 189.58 161.177 188.261 161.812C186.917 162.414 185.619 163.505 183.785 164.327C182.874 164.73 181.768 165.029 180.6 164.966C179.433 164.914 178.309 164.545 177.247 164.115C176.178 163.684 175.187 163.204 174.161 162.878C173.139 162.542 172.102 162.323 171.098 162.195C170.094 162.063 169.122 162.034 168.218 162.069C167.313 162.097 166.474 162.195 165.722 162.331C164.213 162.598 163.055 162.999 162.285 163.311C161.51 163.622 161.112 163.84 161.09 163.814C161.083 163.806 161.178 163.746 161.365 163.64C161.553 163.534 161.83 163.375 162.215 163.208C162.971 162.86 164.132 162.421 165.661 162.123C166.423 161.97 167.277 161.858 168.201 161.819C169.124 161.772 170.12 161.791 171.15 161.919C172.181 162.042 173.249 162.262 174.301 162.604C175.363 162.938 176.365 163.422 177.417 163.845C178.464 164.269 179.538 164.619 180.622 164.671C181.704 164.733 182.734 164.464 183.619 164.082C185.397 163.306 186.728 162.225 188.127 161.627C189.496 160.999 190.809 160.779 191.692 160.858C192.135 160.888 192.466 160.975 192.68 161.043C192.891 161.119 192.998 161.164 192.993 161.173Z" fill="#FAFAFA"/>
<path d="M160.975 153.217C160.972 153.227 160.8 153.203 160.48 153.149C160.319 153.124 160.123 153.081 159.888 153.05C159.644 153.024 159.372 152.995 159.071 152.963C157.84 152.851 156.02 152.911 153.882 153.387C151.745 153.865 149.332 154.76 146.788 155.941C144.246 157.118 141.517 158.563 138.339 159.607C136.754 160.126 135.13 160.521 133.51 160.663C131.894 160.815 130.296 160.721 128.851 160.408C127.405 160.097 126.116 159.621 124.936 159.159C123.757 158.692 122.679 158.235 121.672 157.858C119.671 157.082 117.918 156.706 116.679 156.652C116.061 156.643 115.579 156.643 115.255 156.687C114.93 156.714 114.757 156.722 114.754 156.712C114.751 156.702 114.92 156.673 115.244 156.626C115.568 156.562 116.055 156.543 116.686 156.535C117.947 156.552 119.754 156.907 121.784 157.664C122.806 158.031 123.895 158.479 125.074 158.933C126.253 159.384 127.531 159.845 128.941 160.139C130.347 160.435 131.892 160.521 133.465 160.369C135.042 160.227 136.632 159.84 138.195 159.328C141.329 158.298 144.048 156.871 146.614 155.699C149.18 154.526 151.634 153.639 153.812 153.18C155.991 152.724 157.847 152.696 159.088 152.846C159.392 152.889 159.665 152.927 159.91 152.961C160.146 153.002 160.34 153.055 160.5 153.089C160.815 153.164 160.979 153.207 160.975 153.217Z" fill="#FAFAFA"/>
<path d="M183.521 135.334C183.532 135.352 183.255 135.481 182.742 135.695C182.229 135.907 181.48 136.208 180.53 136.54C179.58 136.87 178.423 137.234 177.08 137.494C175.744 137.761 174.195 137.881 172.609 137.737C171.024 137.604 169.557 137.336 168.212 137.19C166.872 137.036 165.648 137.022 164.64 137.138C162.595 137.358 161.599 138.105 161.566 138.044C161.558 138.036 161.614 137.99 161.729 137.909C161.843 137.826 162.027 137.719 162.274 137.595C162.77 137.349 163.562 137.068 164.598 136.927C165.631 136.779 166.892 136.772 168.257 136.913C169.623 137.046 171.094 137.306 172.647 137.436C175.768 137.732 178.533 136.936 180.426 136.342C181.382 136.038 182.146 135.767 182.678 135.588C183.211 135.408 183.51 135.314 183.521 135.334Z" fill="#FAFAFA"/>
<path d="M89.3902 145.013C89.3728 145.051 88.9629 144.792 88.1009 144.765C87.247 144.729 86.0014 145.01 84.7652 145.753C84.1341 146.108 83.4803 146.549 82.7006 146.956C81.9246 147.368 80.9753 147.679 79.9437 147.838C77.8631 148.157 75.5167 147.847 73.2687 147.202C71.0133 146.552 68.9917 145.724 67.0603 145.181C66.0979 144.904 65.1609 144.695 64.2699 144.572C63.3766 144.454 62.5299 144.419 61.7626 144.451C60.2229 144.512 59.0202 144.857 58.2748 145.196C57.522 145.533 57.174 145.807 57.1478 145.782C57.1391 145.775 57.2221 145.705 57.391 145.578C57.557 145.451 57.8249 145.278 58.2005 145.094C58.9402 144.716 60.1661 144.328 61.7459 144.237C62.5336 144.191 63.4021 144.215 64.3201 144.325C65.2374 144.44 66.1976 144.645 67.1768 144.919C69.1431 145.455 71.1749 146.278 73.3968 146.918C75.6063 147.553 77.8849 147.855 79.8811 147.565C80.8734 147.418 81.7753 147.134 82.5332 146.745C83.2969 146.36 83.9615 145.928 84.6138 145.578C85.8973 144.841 87.2252 144.571 88.1119 144.649C88.5574 144.677 88.8886 144.776 89.0947 144.861C89.3014 144.943 89.3953 145.007 89.3902 145.013Z" fill="#FAFAFA"/>
<path d="M130.402 189.536C130.412 189.528 130.491 189.584 130.636 189.696C130.786 189.805 130.978 189.988 131.209 190.233C131.652 190.73 132.197 191.541 132.4 192.642C132.598 193.725 132.441 195.131 131.432 196.385C130.465 197.638 128.815 198.629 127.89 200.067C127.445 200.787 127.334 201.584 127.527 202.33C127.706 203.076 128.086 203.764 128.472 204.406C129.268 205.676 130.003 206.907 129.975 208.046C129.954 209.184 129.239 210.006 128.613 210.365C128.297 210.551 128.005 210.631 127.809 210.673C127.609 210.704 127.502 210.709 127.501 210.7C127.486 210.666 127.941 210.648 128.522 210.272C129.087 209.908 129.721 209.109 129.708 208.047C129.702 206.975 128.98 205.802 128.158 204.528C127.759 203.881 127.359 203.177 127.162 202.385C126.949 201.597 127.069 200.706 127.549 199.934C128.03 199.165 128.72 198.541 129.372 197.959C130.026 197.377 130.663 196.827 131.139 196.235C132.111 195.056 132.293 193.719 132.135 192.67C131.972 191.606 131.484 190.805 131.088 190.3C130.676 189.795 130.373 189.557 130.402 189.536Z" fill="#FAFAFA"/>
<path d="M160.918 215.057C160.91 215.064 160.816 215 160.645 214.867C160.483 214.73 160.262 214.504 160.083 214.169C159.695 213.505 159.648 212.372 160.267 211.167C160.567 210.567 161.049 209.946 161.681 209.384C162.3 208.81 163.034 208.258 163.771 207.661C164.506 207.066 165.251 206.415 165.794 205.631C166.339 204.85 166.647 203.937 166.768 202.986C167.009 201.072 166.578 199.234 166.456 197.545C166.303 195.861 166.486 194.281 167.162 193.092C167.809 191.898 168.781 191.121 169.555 190.752C169.941 190.563 170.268 190.457 170.494 190.398C170.722 190.345 170.842 190.322 170.845 190.332C170.861 190.365 170.365 190.452 169.636 190.85C168.908 191.238 168.003 192.009 167.408 193.175C166.787 194.334 166.635 195.86 166.804 197.526C166.941 199.192 167.391 201.042 167.145 203.017C167.02 203.997 166.698 204.954 166.118 205.775C165.541 206.598 164.767 207.262 164.018 207.857C162.51 209.035 161.095 210.068 160.514 211.25C159.887 212.401 159.892 213.479 160.219 214.125C160.529 214.784 160.962 215.031 160.918 215.057Z" fill="#FAFAFA"/>
<path d="M164.659 222.768C164.659 222.768 164.407 222.944 163.848 223.177C163.295 223.414 162.406 223.69 161.206 223.78C160.011 223.879 158.519 223.776 156.884 223.392C155.238 223.023 153.492 222.316 151.652 221.461C149.802 220.622 147.815 219.619 145.457 218.986C143.103 218.354 140.374 218.299 137.644 218.773C134.901 219.229 132.16 220.13 129.334 221.068C126.507 222.001 123.566 223.026 120.343 223.547C118.737 223.812 117.094 223.894 115.496 223.764C113.895 223.644 112.361 223.244 110.974 222.695C108.187 221.583 105.965 219.973 103.695 218.662C102.561 218.004 101.424 217.392 100.233 216.934C99.9346 216.82 99.639 216.707 99.3457 216.595C99.0472 216.492 98.7385 216.414 98.4386 216.324C97.8438 216.129 97.2257 216.02 96.6266 215.892C94.2089 215.42 91.848 215.433 89.7594 215.67C87.6664 215.916 85.8202 216.388 84.3037 216.97C83.9179 217.104 83.5714 217.275 83.2227 217.417C82.8718 217.557 82.5522 217.714 82.2537 217.878C81.953 218.037 81.6589 218.182 81.3895 218.332C81.1311 218.494 80.885 218.648 80.6513 218.795C80.1694 219.075 79.8083 219.383 79.4705 219.628C79.1262 219.87 78.8721 220.103 78.6676 220.292C78.4688 220.468 78.3108 220.608 78.19 220.715C78.0808 220.809 78.0218 220.856 78.0167 220.853C78.0116 220.85 78.0597 220.796 78.1594 220.696C78.2737 220.584 78.4222 220.437 78.6093 220.252C78.8059 220.056 79.0527 219.815 79.3905 219.565C79.7224 219.311 80.0791 218.993 80.5574 218.704C80.7897 218.553 81.035 218.394 81.292 218.226C81.5606 218.071 81.8547 217.921 82.1554 217.756C82.4532 217.588 82.7742 217.425 83.1258 217.28C83.4753 217.132 83.824 216.956 84.2113 216.816C85.7372 216.213 87.5994 215.721 89.7193 215.457C91.8349 215.204 94.2322 215.177 96.6972 215.647C97.3087 215.774 97.9392 215.883 98.547 216.079C98.8535 216.17 99.1688 216.249 99.4738 216.353C99.7745 216.466 100.077 216.58 100.382 216.695C101.6 217.159 102.754 217.776 103.9 218.436C106.191 219.751 108.412 221.347 111.138 222.428C112.495 222.963 113.978 223.348 115.536 223.464C117.088 223.589 118.691 223.51 120.268 223.249C123.435 222.738 126.361 221.723 129.191 220.794C132.02 219.859 134.784 218.956 137.572 218.5C140.346 218.025 143.15 218.089 145.555 218.748C147.959 219.405 149.948 220.427 151.786 221.275C153.616 222.141 155.326 222.85 156.944 223.229C158.552 223.624 160.017 223.741 161.193 223.662C162.374 223.591 163.256 223.339 163.814 223.122C164.377 222.909 164.645 222.751 164.659 222.768Z" fill="#FAFAFA"/>
<path d="M124.156 125.802C132.279 126.123 139.268 121.258 139.981 114.789C140.404 110.951 140.737 107.674 140.737 107.674C140.737 107.674 153.141 107.424 154.868 97.7326C156.596 88.0411 158.109 65.5325 158.109 65.5325C144.821 59.2457 128.313 59.194 114.963 65.3965L112.981 66.3173L109.787 113.073C109.331 119.762 115.776 125.472 124.156 125.802Z" fill="#FFBE9D"/>
<path d="M142.453 91.0335C142.458 90.9277 143.521 90.8678 145.234 90.8556C145.678 90.8632 146.035 90.8196 146.098 90.6347C146.211 90.4313 146.102 90.0406 145.947 89.6006C145.659 88.6723 145.369 87.7317 145.064 86.747C143.864 82.6872 143.1 79.3575 143.358 79.3086C143.616 79.2598 144.798 82.511 145.999 86.5708C146.278 87.5602 146.545 88.5048 146.808 89.4384C146.904 89.8593 147.132 90.3633 146.812 90.9167C146.644 91.1934 146.265 91.3666 145.967 91.3968C145.665 91.4369 145.418 91.4113 145.207 91.3974C143.5 91.2707 142.448 91.1393 142.453 91.0335Z" fill="#263238"/>
<path d="M140.78 107.536C140.78 107.536 133.016 107.239 125.515 102.298C125.515 102.298 128.126 109.672 140.399 110.054L140.78 107.536Z" fill="#EB996E"/>
<path d="M157.963 68C157.963 68 150.316 70.5508 140.89 66.2608C134.705 63.4455 127.377 61.8807 125.672 62.8299C123.967 63.7792 123.26 68.9969 116.854 70.2467C116.854 70.2467 116.597 80.2504 111.636 79.6749C106.675 79.0988 110.859 63.7722 110.859 63.7722L123.384 59.5531L136.833 58.1318L149.276 60.0961L158.833 62.6451L157.963 68Z" fill="#263238"/>
<path d="M112.846 76.5273C112.65 76.4343 104.813 73.6888 104.001 80.3534C103.188 87.0174 111.735 86.2943 111.772 86.1042C111.81 85.9141 112.846 76.5273 112.846 76.5273Z" fill="#FFBE9D"/>
<path d="M109.53 83.3808C109.496 83.3564 109.375 83.4506 109.118 83.5215C108.868 83.5901 108.448 83.6192 108.029 83.4552C107.179 83.128 106.572 81.9526 106.679 80.7487C106.731 80.1401 106.96 79.5751 107.288 79.1182C107.603 78.6502 108.039 78.3409 108.49 78.3119C108.941 78.2648 109.23 78.5014 109.309 78.6967C109.398 78.8914 109.329 79.0205 109.372 79.035C109.393 79.0536 109.564 78.9374 109.531 78.6572C109.513 78.5223 109.434 78.3572 109.254 78.2142C109.069 78.0689 108.783 77.9794 108.47 77.9823C107.822 77.9678 107.185 78.3956 106.826 78.8973C106.43 79.3989 106.155 80.0325 106.096 80.7156C105.985 82.0624 106.693 83.3855 107.865 83.7581C108.438 83.9255 108.945 83.8226 109.217 83.6849C109.496 83.5413 109.558 83.3954 109.53 83.3808Z" fill="#EB996E"/>
<path d="M122.396 63.9001C120.691 65.351 118.959 66.8194 116.842 67.8698C114.725 68.9202 112.142 69.5224 109.713 69.0754C107.284 68.6284 105.138 66.9496 105.039 64.9609C104.94 62.9723 107.373 61.0325 109.808 61.4586C108.155 61.4824 106.774 59.9879 107.289 58.734C107.804 57.4802 110.026 56.9303 111.339 57.7313C109.225 57.4151 108.987 54.7347 110.672 53.6668C112.356 52.599 114.826 52.8321 116.819 53.4779C118.813 54.1231 120.644 55.1236 122.747 55.4851C126.046 56.0519 129.431 54.955 132.348 53.6017C135.265 52.2484 138.038 50.5929 141.29 49.8756C145.282 48.9949 149.594 49.6384 153.413 50.9178C156.582 51.9799 159.584 53.518 161.646 55.7142C163.707 57.9103 164.725 60.8296 163.808 63.4751C162.89 66.1206 159.807 68.3168 156.371 68.3272C156.371 68.3272 148.643 68.9487 142.355 65.2219C136.067 61.4946 122.809 61.9876 122.809 61.9876L122.396 63.9001Z" fill="#263238"/>
<path d="M110.766 56.1412C110.75 56.1622 110.916 56.2674 111.248 56.4493C111.575 56.6377 112.083 56.8812 112.749 57.1823C114.085 57.7729 116.114 58.517 118.766 59.0931C121.413 59.6639 124.702 60.029 128.341 59.8203C131.998 59.6279 135.834 58.6873 139.827 57.9072C143.809 57.1242 147.767 56.7347 151.182 57.4061C154.594 58.0357 157.288 59.6872 158.472 61.5537C159.673 63.4395 159.53 65.2804 159.102 66.3902C158.667 67.5301 158.06 68.0347 158.139 68.0771C158.162 68.0928 158.311 67.9736 158.577 67.726C158.812 67.4638 159.167 67.0662 159.431 66.4785C159.983 65.338 160.252 63.3877 159.037 61.3293C157.83 59.2768 154.971 57.4678 151.379 56.7684C147.768 56.0221 143.647 56.4226 139.619 57.2143C135.574 58.006 131.811 58.946 128.275 59.1657C124.743 59.4041 121.53 59.1012 118.92 58.6048C113.672 57.5852 110.849 55.9994 110.766 56.1412Z" fill="#455A64"/>
<path d="M107.02 66.4393C106.926 66.477 107.199 67.1293 108.099 67.9553C108.98 68.7743 110.582 69.7254 112.664 70.0858C114.748 70.4444 116.698 70.1067 117.925 69.651C119.173 69.1958 119.757 68.6912 119.692 68.6255C119.613 68.5337 118.915 68.8749 117.7 69.1795C116.498 69.4882 114.723 69.7097 112.854 69.3882C110.986 69.0644 109.484 68.2768 108.548 67.5995C107.599 66.9229 107.14 66.3817 107.02 66.4393Z" fill="#455A64"/>
<path d="M109.622 63.1459C109.409 63.2256 110.049 64.4364 111.666 65.3223C113.275 66.2181 114.92 66.2693 114.938 66.0821C114.987 65.8792 113.596 65.5351 112.174 64.7364C110.737 63.9557 109.843 63.0378 109.622 63.1459Z" fill="#455A64"/>
<path d="M162.063 72.4428C162.174 72.4643 162.409 72.1359 162.471 71.5389C162.538 70.9506 162.373 70.0856 161.733 69.2997C161.092 68.5144 160.168 68.0435 159.468 67.8534C158.758 67.657 158.287 67.6959 158.267 67.7854C158.195 67.9779 159.911 68.3592 160.984 69.6886C162.072 71.0099 161.813 72.4172 162.063 72.4428Z" fill="#263238"/>
<path d="M166.388 62.888C166.142 62.8055 165.221 64.5709 163.039 66.0253C160.891 67.5117 158.561 67.9541 158.624 68.1616C158.614 68.347 161.251 68.1936 163.618 66.5683C166.005 64.9644 166.619 62.9096 166.388 62.888Z" fill="#455A64"/>
<path d="M153.735 80.3011C153.641 81.0899 152.728 81.677 151.695 81.6143C150.663 81.5515 149.9 80.8626 149.994 80.0738C150.088 79.285 151.002 78.6967 152.033 78.7595C153.066 78.8223 153.829 79.5123 153.735 80.3011Z" fill="#263238"/>
<path d="M155.214 80.1695C154.951 80.3393 153.676 79.3586 151.672 79.154C149.674 78.9267 148.068 79.5964 147.883 79.3778C147.79 79.2801 148.082 78.9546 148.784 78.6488C149.475 78.3437 150.609 78.0955 151.857 78.2297C153.105 78.3652 154.094 78.8418 154.637 79.2801C155.191 79.7225 155.342 80.0946 155.214 80.1695Z" fill="#263238"/>
<path d="M135.5 78.2787C135.406 79.0675 134.492 79.6547 133.459 79.5919C132.427 79.5291 131.665 78.8403 131.758 78.0508C131.852 77.262 132.766 76.6737 133.798 76.7365C134.831 76.7999 135.594 77.4899 135.5 78.2787Z" fill="#263238"/>
<path d="M136.804 78.2369C136.541 78.4067 135.265 77.426 133.262 77.2214C131.263 76.9941 129.657 77.6643 129.473 77.4452C129.38 77.3475 129.671 77.022 130.374 76.7162C131.065 76.411 132.199 76.1628 133.446 76.2971C134.694 76.4326 135.683 76.9092 136.225 77.3475C136.779 77.7893 136.932 78.1619 136.804 78.2369Z" fill="#263238"/>
<path d="M136.032 73.8353C135.637 74.1166 134.135 73.2423 132.106 73.0906C130.082 72.8982 128.383 73.501 128.071 73.1592C127.926 72.9958 128.196 72.5825 128.941 72.1878C129.672 71.7955 130.913 71.467 132.306 71.5856C133.699 71.7036 134.826 72.2332 135.436 72.7395C136.062 73.2505 136.217 73.7004 136.032 73.8353Z" fill="#263238"/>
<path d="M155.085 76.4883C155.172 76.6778 154.827 76.9957 154.098 77.248C153.376 77.5009 152.262 77.6509 151.064 77.5015C149.865 77.3503 148.863 76.9347 148.274 76.5173C147.676 76.0982 147.47 75.7111 147.627 75.5524C147.974 75.2239 149.465 75.7895 151.359 76.0064C153.244 76.2639 154.88 76.0906 155.085 76.4883Z" fill="#263238"/>
<path d="M140.917 93.6956C141.126 93.706 141.273 94.0066 141.246 94.3681C141.218 94.7297 141.027 95.0139 140.818 95.0041C140.609 94.9942 140.462 94.6931 140.489 94.3315C140.516 93.9699 140.709 93.6857 140.917 93.6956Z" fill="#263238"/>
<path d="M111.361 88.6383C111.381 88.6435 111.35 88.7941 111.179 89.0295C111.011 89.262 110.674 89.5748 110.121 89.7986C109.582 90.023 108.782 90.1363 107.997 89.8991C107.223 89.6759 106.487 89.1458 106.173 88.4151C105.866 87.6821 106.036 86.9136 106.43 86.3457C106.825 85.7644 107.452 85.3981 108.006 85.2057C108.567 85.0098 109.065 84.9674 109.399 84.9715C109.736 84.9761 109.916 85.0185 109.913 85.036C109.921 85.0953 109.15 84.9941 108.121 85.3993C107.619 85.6022 107.074 85.951 106.738 86.477C106.4 86.9938 106.264 87.6809 106.532 88.318C106.803 88.9516 107.446 89.4295 108.121 89.6381C108.802 89.8596 109.5 89.7846 110.008 89.605C111.058 89.2277 111.304 88.5982 111.361 88.6383Z" fill="#455A64"/>
<path d="M119.418 128.449C119.418 128.449 123.479 123.868 126.032 121.294C129.124 118.175 130.968 115.488 130.968 114.031C130.968 112.575 130.968 106.312 130.968 106.312C130.968 106.312 134.817 105.584 135.367 109.079C135.917 112.575 135.367 113.448 135.367 113.448C135.367 113.448 151.532 104.756 152.628 105.386C154.553 106.494 150.901 108.815 150.901 108.815L141.049 115.924L146.659 114.506C148.023 114.162 149.484 114.748 149.943 115.825C150.321 116.71 149.912 117.687 148.941 118.216L145.621 120.513L147.292 119.977C148.529 119.58 149.942 120.004 150.541 120.952C151.021 121.713 150.854 122.631 150.124 123.253L147.098 125.828L148.515 125.226C149.429 124.838 150.566 125.126 151.028 125.863C151.416 126.48 151.207 127.229 150.527 127.658L132.432 139.082L119.418 128.449Z" fill="#FFBE9D"/>
<path d="M132.434 139.082C132.434 139.082 132.357 139.029 132.208 138.913C132.05 138.786 131.83 138.613 131.546 138.387C130.951 137.908 130.088 137.215 128.975 136.321C126.716 134.493 123.442 131.843 119.332 128.518L119.261 128.461L119.32 128.395C120.503 127.057 121.791 125.622 123.187 124.106C123.886 123.348 124.611 122.57 125.373 121.78C126.143 120.992 126.932 120.193 127.677 119.331C128.424 118.473 129.148 117.569 129.77 116.598C130.371 115.622 130.943 114.59 130.802 113.442C130.799 111.151 130.796 108.77 130.792 106.313V106.198L130.927 106.177C131.909 106.03 132.963 106.121 133.849 106.561C134.286 106.786 134.63 107.106 134.909 107.453C135.153 107.815 135.341 108.202 135.44 108.603C135.636 109.407 135.705 110.198 135.768 111.015C135.794 111.422 135.804 111.833 135.782 112.247C135.748 112.667 135.737 113.062 135.532 113.516L135.264 113.328C137.76 111.991 140.348 110.639 143.021 109.289C144.359 108.615 145.717 107.943 147.105 107.286C148.5 106.636 149.897 105.971 151.42 105.44C151.622 105.373 151.825 105.309 152.043 105.26C152.153 105.236 152.265 105.214 152.396 105.206C152.458 105.201 152.535 105.205 152.617 105.219C152.734 105.251 152.777 105.291 152.816 105.319C153.211 105.53 153.431 105.968 153.364 106.341C153.226 107.096 152.629 107.646 152.067 108.15C151.48 108.655 150.809 109.067 150.207 109.521C149.589 109.967 148.975 110.41 148.363 110.851C145.914 112.616 143.514 114.347 141.174 116.034L140.995 115.785C142.101 115.506 143.196 115.23 144.28 114.957C144.822 114.82 145.361 114.684 145.898 114.549C146.169 114.482 146.425 114.411 146.708 114.349C146.995 114.282 147.295 114.257 147.592 114.27C148.792 114.3 149.873 115.012 150.161 115.916C150.482 116.818 149.99 117.829 149.04 118.33L149.056 118.321C147.926 119.1 146.818 119.865 145.732 120.614L145.56 120.389C146.106 120.214 146.649 120.041 147.187 119.869C147.75 119.683 148.396 119.647 148.978 119.777C150.16 120.026 151.011 120.948 150.972 121.886C150.965 122.35 150.765 122.806 150.418 123.167C150.053 123.514 149.687 123.798 149.326 124.111C148.605 124.723 147.899 125.322 147.208 125.908L147.032 125.724C147.545 125.509 148.052 125.296 148.553 125.085C149.104 124.876 149.764 124.897 150.289 125.115C150.822 125.326 151.2 125.74 151.319 126.188C151.438 126.64 151.293 127.121 150.945 127.471C150.773 127.652 150.544 127.781 150.349 127.905C150.145 128.032 149.944 128.159 149.744 128.285C149.345 128.536 148.951 128.783 148.563 129.026C147.787 129.513 147.035 129.985 146.307 130.441C143.401 132.259 140.889 133.83 138.827 135.12C136.783 136.393 135.186 137.388 134.089 138.071C133.556 138.4 133.144 138.654 132.855 138.832C132.576 139.003 132.434 139.082 132.434 139.082C132.434 139.082 132.577 138.98 132.855 138.799C133.144 138.612 133.555 138.347 134.087 138.003C135.178 137.305 136.764 136.29 138.794 134.991C140.834 133.692 143.318 132.108 146.192 130.277C146.911 129.82 147.654 129.348 148.421 128.861C148.804 128.617 149.194 128.37 149.589 128.119C149.786 127.993 149.985 127.867 150.185 127.74C150.39 127.609 150.589 127.495 150.733 127.341C151.031 127.037 151.154 126.622 151.05 126.234C150.944 125.848 150.619 125.494 150.16 125.315C149.708 125.129 149.143 125.114 148.673 125.294C148.178 125.504 147.676 125.716 147.169 125.932L146.391 126.262L146.993 125.747C147.682 125.159 148.385 124.558 149.104 123.944C149.453 123.638 149.848 123.326 150.171 123.016C150.477 122.695 150.651 122.293 150.656 121.883C150.687 121.055 149.934 120.245 148.892 120.027C148.376 119.915 147.817 119.946 147.311 120.113C146.773 120.286 146.232 120.461 145.686 120.636L144.757 120.936L145.514 120.411C146.599 119.659 147.704 118.893 148.831 118.111L148.839 118.105L148.846 118.101C149.677 117.66 150.104 116.775 149.822 115.988C149.567 115.2 148.623 114.579 147.575 114.554C147.056 114.517 146.555 114.691 146.007 114.822C145.471 114.958 144.931 115.094 144.39 115.232C143.307 115.506 142.212 115.783 141.107 116.063L140.301 116.267L140.928 115.815C143.269 114.124 145.668 112.391 148.117 110.622C148.729 110.181 149.345 109.736 149.963 109.29C150.573 108.831 151.232 108.424 151.79 107.943C152.334 107.465 152.885 106.914 152.987 106.31C153.028 106.016 152.897 105.729 152.576 105.552C152.533 105.465 152.342 105.514 152.146 105.549C151.954 105.592 151.759 105.653 151.566 105.717C150.089 106.232 148.684 106.899 147.298 107.544C145.914 108.198 144.558 108.869 143.222 109.541C140.553 110.887 137.964 112.238 135.47 113.57L135.007 113.817L135.202 113.381C135.347 113.059 135.392 112.621 135.415 112.231C135.437 111.83 135.429 111.428 135.403 111.027C135.344 110.232 135.272 109.417 135.087 108.661C134.995 108.282 134.82 107.926 134.6 107.595C134.347 107.282 134.044 106.997 133.655 106.797C132.88 106.404 131.886 106.315 131.007 106.446L131.142 106.31C131.138 108.768 131.134 111.148 131.132 113.439C131.127 113.728 131.142 114.003 131.11 114.307C131.062 114.6 130.984 114.884 130.873 115.157C130.658 115.703 130.366 116.216 130.053 116.71C129.417 117.695 128.683 118.604 127.926 119.467C127.174 120.331 126.37 121.138 125.602 121.918C124.838 122.704 124.11 123.478 123.407 124.233C122.005 125.742 120.708 127.172 119.516 128.503L119.504 128.381C123.554 131.72 126.781 134.382 129.007 136.218C130.109 137.133 130.964 137.842 131.553 138.331C131.835 138.568 132.053 138.751 132.211 138.884C132.359 139.011 132.434 139.082 132.434 139.082Z" fill="#EB996E"/>
<path d="M132.434 139.082L82.831 191.374C75.302 199.311 61.7321 202.216 50.459 197.907C42.2174 194.757 36.1735 188.143 41.2309 174.526L88.7475 148.566L117.629 126.309L132.434 139.082Z" fill="#E8505B"/>
<path d="M50.4582 197.907C50.4582 197.907 50.6431 197.976 50.9933 198.124C51.3522 198.276 51.8698 198.495 52.5454 198.78C53.9635 199.249 56.101 199.952 59.0297 200.169C60.4864 200.258 62.123 200.3 63.8884 200.098C64.7773 200.039 65.6814 199.862 66.6286 199.712C67.0989 199.627 67.5684 199.504 68.0518 199.398C68.5381 199.298 69.0208 199.166 69.5063 199.017C71.4632 198.462 73.49 197.702 75.4679 196.679C77.4517 195.665 79.402 194.399 81.0597 192.778C84.4456 189.58 87.9444 185.928 91.7256 182.032C95.4989 178.128 99.4832 173.928 103.676 169.509C112.046 160.66 121.196 150.9 130.758 140.63C131.268 140.083 131.776 139.536 132.282 138.992L132.295 139.185C127.22 134.805 122.266 130.529 117.493 126.409L117.747 126.423C107.635 133.087 98.2776 139.45 89.7928 145.116C81.3167 150.79 73.7171 155.771 67.294 159.831C60.873 163.893 55.6503 167.054 52.014 169.176C50.2063 170.249 48.7773 171.042 47.8229 171.592C47.3489 171.86 46.9857 172.065 46.7316 172.208C46.4848 172.345 46.3545 172.41 46.3545 172.41C46.3545 172.41 46.4724 172.331 46.7119 172.186C46.9616 172.038 47.3184 171.826 47.7843 171.549C48.7256 170.984 50.1423 170.178 51.9375 169.093C55.5491 166.945 60.7471 163.762 67.1454 159.681C73.546 155.602 81.126 150.606 89.586 144.919C98.0549 139.239 107.403 132.867 117.512 126.194L117.647 126.105L117.766 126.208C122.54 130.326 127.497 134.601 132.574 138.98L132.681 139.073L132.587 139.173C132.081 139.717 131.573 140.264 131.063 140.811C121.501 151.082 112.341 160.837 103.955 169.678C99.754 174.093 95.7602 178.288 91.9753 182.186C88.181 186.078 84.6728 189.719 81.2635 192.919C79.584 194.55 77.6024 195.827 75.599 196.842C73.5992 197.868 71.5528 198.626 69.5784 199.177C69.0885 199.326 68.6014 199.457 68.1108 199.556C67.623 199.66 67.1498 199.782 66.6752 199.866C65.7193 200.013 64.8078 200.187 63.9109 200.242C62.131 200.437 60.4821 200.387 59.0159 200.287C56.0689 200.051 53.9271 199.326 52.5141 198.837C51.8312 198.546 51.3216 198.307 50.9751 198.153C50.6293 197.993 50.4582 197.907 50.4582 197.907Z" fill="#263238"/>
<path d="M88.0676 184.284C88.0378 184.318 87.5085 183.911 86.3335 183.49C85.1702 183.06 83.2905 182.761 81.0002 182.953C79.8565 183.042 78.6167 183.249 77.3223 183.566C76.028 183.879 74.6804 184.32 73.2557 184.769C71.8303 185.219 70.3241 185.692 68.6992 186.04C67.0786 186.386 65.3154 186.592 63.5224 186.443C61.7308 186.295 60.0564 185.847 58.5116 185.334C56.9616 184.821 55.5238 184.238 54.1326 183.734C51.3735 182.708 48.6901 182.042 46.3889 182.146C44.0884 182.228 42.3449 182.935 41.3832 183.597C40.3996 184.264 40.1041 184.814 40.0604 184.788C40.0487 184.782 40.1332 184.656 40.3057 184.419C40.5001 184.194 40.7913 183.855 41.2856 183.509C42.24 182.803 44.0134 182.044 46.3743 181.932C48.7425 181.798 51.4922 182.462 54.276 183.48C55.6804 183.981 57.1182 184.558 58.6528 185.061C60.1838 185.564 61.8247 186 63.561 186.143C65.2958 186.287 67.0088 186.09 68.6038 185.755C70.2025 185.416 71.7007 184.953 73.1283 184.51C74.5567 184.069 75.9129 183.634 77.2328 183.326C78.5483 183.016 79.8099 182.818 80.9754 182.741C83.3087 182.572 85.2291 182.911 86.3947 183.384C87.5733 183.846 88.0676 184.284 88.0676 184.284Z" fill="#FAFAFA"/>
<path d="M105.597 166.749C105.543 166.739 105.891 166.398 105.786 165.713C105.676 165.057 105.005 164.084 103.597 163.586C102.904 163.327 102.082 163.162 101.188 163C100.297 162.837 99.3159 162.646 98.3703 162.278C96.4593 161.569 94.6975 160.344 93.0632 158.958C91.4266 157.567 89.9677 156.179 88.4127 155.113C86.8744 154.035 85.2379 153.31 83.7484 152.985C82.2647 152.647 80.9849 152.66 80.1404 152.789C79.2894 152.912 78.8468 153.078 78.8329 153.049C78.8278 153.039 78.9349 152.995 79.1467 152.919C79.3578 152.845 79.6803 152.747 80.112 152.673C80.9667 152.506 82.2858 152.457 83.8197 152.779C85.3573 153.084 87.063 153.815 88.6398 154.901C90.2356 155.975 91.7134 157.37 93.3383 158.749C94.9596 160.124 96.6777 161.326 98.5202 162.025C100.341 162.746 102.277 162.801 103.712 163.392C105.19 163.949 105.862 164.998 105.933 165.699C105.968 166.058 105.879 166.337 105.78 166.506C105.682 166.676 105.604 166.754 105.597 166.749Z" fill="#FAFAFA"/>
<path d="M147.885 22.3897C147.875 22.3897 147.866 22.3897 147.857 22.3897C147.254 22.3775 146.778 21.977 146.793 21.4957L147.04 13.7347C147.05 13.4615 147.218 13.2075 147.496 13.0482C147.775 12.8889 148.13 12.8424 148.455 12.9238C150.214 13.3592 152.204 13.1604 153.915 12.3785C155.505 11.6525 156.632 10.5027 157.007 9.22438C157.381 7.95249 157.015 6.51493 156.004 5.27967C154.919 3.95255 153.277 3.04049 151.5 2.77716C147.923 2.24585 144.004 4.15078 142.759 7.0195C142.562 7.47408 141.937 7.71532 141.37 7.55721C140.8 7.39967 140.498 6.90266 140.696 6.4475C142.281 2.79809 147.307 0.382202 151.898 1.06174C154.259 1.41169 156.423 2.60103 157.833 4.32517C159.168 5.95747 159.642 7.88797 159.133 9.62141C158.621 11.3688 157.114 12.9255 155 13.8917C153.197 14.7154 151.139 15.0391 149.19 14.8316L148.976 21.5393C148.961 22.0142 148.476 22.3897 147.885 22.3897Z" fill="#263238"/>
<path d="M149.577 26.2241C149.577 26.9286 148.862 27.4995 147.98 27.4995C147.098 27.4995 146.383 26.9286 146.383 26.2241C146.383 25.5196 147.098 24.9487 147.98 24.9487C148.862 24.9487 149.577 25.5196 149.577 26.2241Z" fill="#263238"/>
<path d="M28.3959 111.86C26.7572 111.86 25.1388 111.481 23.8415 110.704C22.312 109.789 21.2957 108.332 21.0533 106.708C20.824 105.168 21.3416 103.656 22.4751 102.561C23.618 101.456 25.3834 100.769 27.3185 100.677C28.8625 100.6 30.3768 100.905 31.6319 101.523L34.5104 97.1661C34.7914 96.7406 35.4524 96.5773 35.986 96.8022C36.5189 97.0272 36.7235 97.5544 36.4425 97.9805L32.9619 103.248C32.8025 103.49 32.5098 103.658 32.172 103.702C31.8371 103.747 31.4906 103.662 31.2431 103.473C30.2705 102.734 28.8909 102.348 27.4488 102.418C26.1165 102.482 24.9168 102.939 24.1589 103.673C23.404 104.403 23.0626 105.434 23.2213 106.503C23.3931 107.656 24.0963 108.679 25.1505 109.31C27.2478 110.566 30.6767 110.327 32.6372 108.789C33.0667 108.45 33.7576 108.456 34.1813 108.799C34.6035 109.143 34.5977 109.695 34.1675 110.032C32.6336 111.236 30.4976 111.86 28.3959 111.86Z" fill="#263238"/>
<path d="M36.3209 93.8781C36.6215 93.3939 37.3561 93.1962 37.9625 93.4357C38.5689 93.6758 38.8164 94.2623 38.5165 94.7466C38.2158 95.2308 37.4813 95.4284 36.8749 95.1889C36.2684 94.9489 36.0202 94.3617 36.3209 93.8781Z" fill="#263238"/>
<path d="M248.786 97.1868C248.447 97.1868 248.114 97.0618 247.9 96.8258L243.529 91.9998C243.329 91.7783 243.27 91.4947 243.37 91.2337C243.47 90.9727 243.717 90.764 244.039 90.6698C245.3 90.3018 246.345 89.4822 246.905 88.4219C247.425 87.4401 247.443 86.3786 246.956 85.5107C246.471 84.6469 245.464 83.9447 244.193 83.5849C242.825 83.1977 241.364 83.2472 240.188 83.7215C237.847 84.6661 236.595 87.2262 237.454 89.3119C237.642 89.7694 237.33 90.2623 236.757 90.4123C236.185 90.5628 235.567 90.314 235.379 89.8566C234.182 86.9495 235.898 83.4994 239.202 82.1659C240.909 81.4771 242.994 81.3963 244.923 81.9421C246.754 82.4601 248.221 83.5012 248.949 84.7986C249.682 86.1066 249.67 87.6749 248.916 89.1009C248.313 90.2408 247.303 91.1883 246.054 91.8126L249.669 95.8044C250.022 96.1945 249.912 96.7397 249.423 97.0217C249.231 97.1333 249.007 97.1868 248.786 97.1868Z" fill="#263238"/>
<path d="M252.558 98.5572C252.969 98.9868 252.865 99.6006 252.327 99.9285C251.789 100.256 251.02 100.173 250.609 99.7436C250.199 99.314 250.303 98.7002 250.841 98.3723C251.379 98.0445 252.148 98.1276 252.558 98.5572Z" fill="#263238"/>
</svg>
