<svg width="412" height="483" viewBox="0 0 412 483" fill="none" xmlns="http://www.w3.org/2000/svg">
<path d="M205.048 469.053C335.171 469.053 440.656 408.151 440.656 333.024C440.656 257.897 335.171 196.995 205.048 196.995C74.9252 196.995 -30.5601 257.897 -30.5601 333.024C-30.5601 408.151 74.9252 469.053 205.048 469.053Z" fill="#F0F0F0"/>
<path d="M340.363 380.224C324.913 371.304 324.913 356.842 340.363 347.922C355.813 339.002 380.861 339.002 396.311 347.922C411.761 356.842 411.761 371.304 396.311 380.224C380.861 389.144 355.813 389.144 340.363 380.224Z" fill="#E0E0E0"/>
<path d="M26.119 381.462L-14.521 357.998C-16.812 356.675 -16.812 354.53 -14.521 353.207L221.868 216.728C224.159 215.405 227.874 215.405 230.165 216.728L270.807 240.191C273.098 241.514 273.098 243.659 270.807 244.981L34.416 381.462C32.125 382.785 28.41 382.785 26.119 381.462Z" fill="#E0E0E0"/>
<path d="M172.2 339.644L207.137 319.443C210.738 317.364 212.539 314.639 212.539 311.914C212.539 309.189 212.554 307.054 212.554 307.054L176.305 286.614C174.384 285.505 172.827 282.808 172.827 280.59V237.515L111.804 272.777L111.802 315.851C111.802 318.069 113.359 320.766 115.28 321.875L146.116 339.643C153.319 343.803 164.997 343.802 172.2 339.644Z" fill="#27DEBF"/>
<g opacity="0.6">
<path d="M172.2 339.644L207.137 319.443C210.738 317.364 212.539 314.639 212.539 311.914C212.539 309.189 212.554 307.054 212.554 307.054L176.305 286.614C174.384 285.505 172.827 282.808 172.827 280.59V237.515L111.804 272.777L111.802 315.851C111.802 318.069 113.359 320.766 115.28 321.875L146.116 339.643C153.319 343.803 164.997 343.802 172.2 339.644Z" fill="black"/>
</g>
<path opacity="0.3" d="M126.455 323.48V328.319L115.271 321.874C113.363 320.77 111.797 318.079 111.797 315.85V272.78L123.423 266.073C123.664 269.025 123.925 272.077 124.166 275.049L116.014 279.768V313.421C116.014 315.65 117.56 318.34 119.488 319.445L126.455 323.48Z" fill="black"/>
<path d="M116.012 313.428C116.012 315.646 117.569 318.343 119.49 319.452L146.112 334.787C153.315 338.945 164.994 338.947 172.197 334.79L207.152 314.591C214.356 310.434 214.357 303.693 207.154 299.534L180.515 284.189C178.594 283.08 177.037 280.383 177.037 278.165L177.036 244.508L116.012 279.77V313.428Z" fill="#27DEBF"/>
<path opacity="0.3" d="M116.012 313.428C116.012 315.646 117.569 318.343 119.49 319.452L146.112 334.787C153.315 338.945 164.994 338.947 172.197 334.79L207.152 314.591C214.356 310.434 214.357 303.693 207.154 299.534L180.515 284.189C178.594 283.08 177.037 280.383 177.037 278.165L177.036 244.508L116.012 279.77V313.428Z" fill="black"/>
<path opacity="0.5" d="M187.598 288.283V288.278L180.514 284.188C178.593 283.079 177.036 280.382 177.036 278.164V244.507L116.011 279.769V313.428C116.011 315.646 117.568 318.343 119.489 319.452L126.45 323.471L187.598 288.283Z" fill="black"/>
<path d="M212.548 307.058C212.548 307.058 212.548 309.186 212.548 311.917C212.548 314.648 210.741 317.358 207.147 319.447L172.204 339.636C168.75 341.644 164.273 342.648 159.755 342.728V337.889C164.273 337.829 168.75 336.785 172.204 334.797L207.147 314.587C210.74 312.519 212.548 309.789 212.548 307.058Z" fill="#27DEBF"/>
<path opacity="0.5" d="M212.548 307.058C212.548 307.058 212.548 309.186 212.548 311.917C212.548 314.648 210.741 317.358 207.147 319.447L172.204 339.636C168.75 341.644 164.273 342.648 159.755 342.728V337.889C164.273 337.829 168.75 336.785 172.204 334.797L207.147 314.587C210.74 312.519 212.548 309.789 212.548 307.058Z" fill="black"/>
<path d="M18.0309 355.263C20.2829 356.563 24.0559 356.493 26.4569 355.107C56.4579 337.786 232.457 236.175 262.454 218.857C264.855 217.471 266.8 214.1 266.8 211.328V20.4138C266.8 17.6418 264.974 14.3398 262.722 13.0398C260.47 11.7398 256.698 11.8088 254.297 13.1958L18.3029 149.446C15.9019 150.832 13.9559 154.203 13.9559 156.976L13.9529 347.889C13.9529 350.661 15.7779 353.962 18.0309 355.263Z" fill="#27DEBF"/>
<path d="M26.4569 355.102L262.453 218.853C264.854 217.467 266.8 214.096 266.8 211.323V20.4088C266.8 17.6368 264.854 16.5127 262.453 17.8987L26.4599 154.149C24.0589 155.535 22.1129 158.906 22.1129 161.679L22.1099 352.592C22.1099 355.364 24.0569 356.488 26.4569 355.102Z" fill="#27DEBF"/>
<path opacity="0.5" d="M26.4569 355.102L262.453 218.853C264.854 217.467 266.8 214.096 266.8 211.323V20.4088C266.8 17.6368 264.854 16.5127 262.453 17.8987L26.4599 154.149C24.0589 155.535 22.1129 158.906 22.1129 161.679L22.1099 352.592C22.1099 355.364 24.0569 356.488 26.4569 355.102Z" fill="black"/>
<path d="M25.8169 360.064C23.4079 361.128 20.0749 361.088 18.0269 359.903C15.7779 358.598 13.9509 355.305 13.9509 352.514V335.131L22.1029 339.85V357.233C22.1029 359.763 23.7089 360.907 25.8169 360.064Z" fill="#27DEBF"/>
<path opacity="0.5" d="M25.8169 360.064C23.4079 361.128 20.0749 361.088 18.0269 359.903C15.7779 358.598 13.9509 355.305 13.9509 352.514V335.131L22.1029 339.85V357.233C22.1029 359.763 23.7089 360.907 25.8169 360.064Z" fill="black"/>
<path d="M22.103 339.849L22.11 357.226C22.11 359.998 24.057 361.122 26.457 359.736L262.453 223.487C264.854 222.101 266.8 218.73 266.8 215.957V198.543L22.103 339.849Z" fill="#27DEBF"/>
<path opacity="0.3" d="M22.1099 339.813V357.226C22.1099 359.998 24.0569 361.122 26.4569 359.736L262.453 223.487C264.854 222.101 266.8 218.73 266.8 215.957V198.543L22.1099 339.813Z" fill="black"/>
<path d="M30.2639 318.041L30.2659 164.386C30.2659 162.723 31.4339 160.7 32.8739 159.868L256.031 31.0282C257.472 30.1962 258.639 30.8712 258.639 32.5342L258.646 186.193C258.646 187.856 257.478 189.879 256.038 190.711L32.8729 319.547C31.4319 320.379 30.2639 319.704 30.2639 318.041Z" fill="#27DEBF"/>
<path d="M30.2639 318.041L30.2659 164.386C30.2659 162.723 31.4339 160.7 32.8739 159.868L256.031 31.0282C257.472 30.1962 258.639 30.8712 258.639 32.5342L258.646 186.193C258.646 187.856 257.478 189.879 256.038 190.711L32.8729 319.547C31.4319 320.379 30.2639 319.704 30.2639 318.041Z" fill="#263238"/>
<path d="M144.452 274.726C142.199 276.027 140.373 279.19 140.373 281.791C140.373 284.392 142.2 285.446 144.453 284.145C146.706 282.844 148.532 279.681 148.532 277.08C148.531 274.48 146.705 273.426 144.452 274.726Z" fill="#27DEBF"/>
<path opacity="0.7" d="M23.3879 157.378C22.6049 158.743 22.1229 160.289 22.1029 161.675V339.85L13.9509 335.131L13.9559 156.976C13.9559 155.591 14.4529 154.045 15.2359 152.68L23.3879 157.378Z" fill="black"/>
<path opacity="0.3" d="M266.756 19.6939C266.448 17.4529 264.638 16.6409 262.449 17.8949L26.4599 154.153C25.2669 154.842 24.1879 156.014 23.3859 157.381L15.2329 152.673C16.0249 151.326 17.1039 150.134 18.3069 149.445L254.296 13.1969C256.702 11.8089 260.464 11.7369 262.726 13.0429C264.782 14.2249 266.478 17.0929 266.756 19.6939Z" fill="black"/>
<path d="M279.492 43.1873C278.924 42.8463 278.149 42.8583 277.275 43.3633L54.587 171.949C52.904 172.921 51.54 175.281 51.54 177.224L51.542 329.943C51.542 331.127 52.049 332.173 52.826 332.59C53.324 332.858 55.941 334.38 56.718 334.798C57.216 335.066 57.825 335.075 58.483 334.696L281.163 206.059C282.847 205.09 284.212 202.73 284.212 200.787V47.3283C284.212 46.3263 283.849 45.6323 283.268 45.3273C282.721 45.0413 280.053 43.5233 279.492 43.1873Z" fill="#27DEBF"/>
<path d="M57.4771 334.491C56.6261 334.491 55.9351 333.441 55.9351 332.151V179.432C55.9351 177.682 57.2151 175.464 58.7311 174.588L281.416 46.0023C281.812 45.7733 282.195 45.6533 282.526 45.6533C283.269 45.6533 283.712 46.2793 283.712 47.3283V200.788C283.712 202.538 282.431 204.754 280.914 205.626L58.2331 334.263C57.9711 334.414 57.7171 334.491 57.4771 334.491Z" fill="#FAFAFA"/>
<path d="M282.527 46.1533C283.123 46.1533 283.212 46.8893 283.212 47.3283V200.788C283.212 202.381 282.045 204.398 280.663 205.194L57.9851 333.83C57.7991 333.937 57.6281 333.991 57.4771 333.991C56.9211 333.991 56.4341 333.131 56.4341 332.151V179.432C56.4341 177.838 57.6001 175.819 58.9801 175.022L281.666 46.4353C282.07 46.2023 282.357 46.1533 282.527 46.1533ZM282.527 45.1533C282.118 45.1533 281.655 45.2873 281.166 45.5693L58.4811 174.156C56.7991 175.127 55.4351 177.49 55.4351 179.432V332.151C55.4351 333.687 56.2881 334.991 57.4781 334.991C57.7931 334.991 58.1321 334.9 58.4841 334.697L281.164 206.06C282.848 205.091 284.213 202.731 284.213 200.788V47.3283C284.213 45.9503 283.526 45.1533 282.527 45.1533Z" fill="#E0E0E0"/>
<path d="M52.8221 332.589C53.1521 332.764 55.5211 334.115 56.5591 334.706C55.8591 334.207 55.4901 333.35 55.4381 332.148V189.397L51.5381 187.115V329.944C51.5381 331.123 52.0461 332.177 52.8221 332.589Z" fill="#F0F0F0"/>
<path d="M284.211 47.3053C284.199 45.3813 282.842 44.6023 281.167 45.5693L58.4811 174.156C56.7991 175.127 55.4351 177.49 55.4351 179.432L55.4381 189.397L284.211 57.3033V47.3053Z" fill="#27DEBF"/>
<g opacity="0.4">
<path d="M281.165 45.5681L58.484 174.154C57.65 174.643 56.884 175.467 56.338 176.415L52.467 174.173C53.013 173.234 53.763 172.418 54.586 171.948L277.275 43.3621C278.147 42.8541 278.923 42.8461 279.489 43.1821C280.035 43.5171 282.565 44.9551 283.207 45.2991C282.669 45.0411 281.951 45.1181 281.165 45.5681Z" fill="white"/>
</g>
<path opacity="0.15" d="M51.5381 187.125L51.5401 177.22C51.5401 176.233 51.9021 175.141 52.4671 174.173L56.3471 176.405C55.7821 177.363 55.4371 178.446 55.4371 179.432V189.395L51.5381 187.125Z" fill="black"/>
<path d="M237.25 162.423L103.876 239.426C102.647 240.136 101.65 241.862 101.65 243.281V281.517C101.65 282.936 102.647 284.661 103.878 285.369L107.775 287.611C109.005 288.319 110.999 288.317 112.228 287.608L245.584 210.615C246.813 209.905 247.81 208.179 247.811 206.76L247.827 168.513C247.828 167.094 246.831 165.369 245.6 164.661L241.704 162.419C240.473 161.712 238.479 161.714 237.25 162.423Z" fill="#27DEBF"/>
<path opacity="0.5" d="M247.809 168.153C247.655 167.002 246.719 166.58 245.599 167.228L112.23 244.229C111.613 244.579 111.058 245.195 110.657 245.894L102.309 241.072C102.71 240.383 103.265 239.777 103.872 239.427L237.251 162.426C238.475 161.717 240.469 161.706 241.703 162.416L245.599 164.657C246.729 165.305 247.665 166.817 247.809 168.153Z" fill="white"/>
<path d="M111.85 287.787C110.616 288.311 108.889 288.25 107.779 287.612L103.883 285.371C102.649 284.662 101.652 282.935 101.652 281.516V243.283C101.652 242.563 101.909 241.772 102.31 241.073L110.658 245.895C110.247 246.594 110 247.375 110 248.085V286.328C109.999 287.602 110.801 288.188 111.85 287.787Z" fill="#263238"/>
<path d="M112.227 244.233L245.601 167.229C246.83 166.519 247.826 167.095 247.826 168.514L247.81 206.761C247.809 208.18 246.812 209.906 245.583 210.616L112.227 287.609C110.998 288.319 110.001 287.743 110.001 286.324V248.088C110.002 246.668 110.998 244.942 112.227 244.233Z" fill="#27DEBF"/>
<path d="M201.894 182.839L103.871 239.428C103.265 239.778 102.71 240.384 102.308 241.073L110.656 245.895C111.057 245.196 111.612 244.579 112.229 244.23L210.226 187.651L201.894 182.839Z" fill="#455A64"/>
<path d="M210.227 187.652L112.227 244.232C110.998 244.942 110.001 246.668 110.001 248.087V286.323C110.001 287.742 110.997 288.318 112.227 287.608L210.227 231.028V187.652Z" fill="#37474F"/>
<path d="M134.829 239.575L185.396 210.379C187.493 209.168 189.192 210.028 189.192 212.3C189.192 214.571 187.492 217.394 185.395 218.605L134.832 247.798C132.735 249.009 131.034 248.149 131.034 245.879C131.033 243.608 132.732 240.786 134.829 239.575Z" fill="#27DEBF"/>
<path d="M145.191 249.237C145.248 249.204 145.298 249.213 145.339 249.263C145.381 249.313 145.402 249.388 145.402 249.49V255.185C145.402 255.759 145.355 256.303 145.26 256.821C145.168 257.337 145.027 257.817 144.838 258.259C144.651 258.701 144.416 259.092 144.136 259.436C143.854 259.778 143.529 260.056 143.159 260.269C142.784 260.486 142.456 260.584 142.178 260.566C141.899 260.546 141.666 260.423 141.479 260.199C141.291 259.974 141.152 259.655 141.06 259.245C140.97 258.835 140.923 258.343 140.923 257.769V252.075C140.923 251.973 140.944 251.874 140.986 251.776C141.027 251.678 141.076 251.611 141.134 251.579L141.768 251.213C141.825 251.179 141.874 251.188 141.917 251.238C141.958 251.288 141.979 251.363 141.979 251.465V257.09C141.979 257.47 142.008 257.777 142.065 258.012C142.121 258.249 142.203 258.422 142.306 258.532C142.41 258.644 142.536 258.697 142.682 258.692C142.828 258.686 142.987 258.633 143.159 258.534C143.331 258.435 143.49 258.303 143.639 258.138C143.788 257.973 143.914 257.777 144.019 257.544C144.123 257.313 144.205 257.046 144.265 256.743C144.325 256.44 144.354 256.098 144.354 255.719V250.095C144.354 249.993 144.375 249.894 144.416 249.796C144.458 249.698 144.507 249.631 144.566 249.598L145.191 249.237Z" fill="#FAFAFA"/>
<path d="M149.113 254.625C149.113 254.525 149.095 254.451 149.058 254.407C149.022 254.363 148.958 254.34 148.867 254.337C148.776 254.334 148.654 254.348 148.504 254.38C148.352 254.412 148.16 254.449 147.926 254.492C147.696 254.532 147.507 254.524 147.356 254.474C147.204 254.422 147.084 254.329 146.993 254.197C146.902 254.064 146.838 253.892 146.801 253.675C146.765 253.46 146.747 253.214 146.747 252.937C146.747 252.659 146.783 252.365 146.856 252.053C146.929 251.743 147.034 251.444 147.172 251.156C147.311 250.868 147.478 250.602 147.676 250.358C147.874 250.115 148.101 249.919 148.356 249.772C148.611 249.625 148.839 249.543 149.04 249.531C149.241 249.516 149.411 249.552 149.552 249.637C149.692 249.723 149.801 249.852 149.879 250.025C149.957 250.198 150.001 250.391 150.012 250.607C150.017 250.706 149.997 250.806 149.953 250.905C149.909 251.004 149.858 251.071 149.8 251.103L149.199 251.45C149.122 251.495 149.062 251.504 149.023 251.476C148.984 251.448 148.942 251.414 148.895 251.376C148.848 251.34 148.786 251.318 148.707 251.312C148.63 251.306 148.512 251.348 148.356 251.438C148.199 251.528 148.062 251.649 147.942 251.801C147.822 251.954 147.761 252.137 147.761 252.35C147.761 252.451 147.776 252.528 147.805 252.582C147.833 252.634 147.887 252.666 147.968 252.674C148.049 252.684 148.162 252.676 148.305 252.654C148.448 252.632 148.633 252.596 148.863 252.548C149.326 252.456 149.653 252.542 149.843 252.807C150.033 253.072 150.129 253.484 150.129 254.038C150.129 254.317 150.09 254.609 150.012 254.918C149.934 255.227 149.82 255.528 149.672 255.823C149.523 256.117 149.342 256.389 149.125 256.639C148.909 256.889 148.665 257.092 148.395 257.247C148.118 257.407 147.876 257.489 147.664 257.495C147.453 257.501 147.274 257.454 147.13 257.352C146.983 257.252 146.872 257.108 146.794 256.921C146.716 256.735 146.674 256.533 146.668 256.314C146.663 256.215 146.683 256.115 146.727 256.016C146.771 255.917 146.821 255.85 146.879 255.816L147.481 255.469C147.559 255.425 147.617 255.423 147.657 255.465C147.695 255.508 147.74 255.555 147.789 255.611C147.838 255.666 147.907 255.7 147.996 255.714C148.084 255.727 148.217 255.683 148.395 255.58C148.473 255.535 148.554 255.479 148.637 255.412C148.72 255.346 148.798 255.271 148.868 255.189C148.937 255.107 148.996 255.017 149.044 254.921C149.089 254.826 149.113 254.727 149.113 254.625Z" fill="#FAFAFA"/>
<path d="M151.15 251.906C151.15 251.388 151.194 250.875 151.283 250.365C151.372 249.856 151.5 249.384 151.666 248.949C151.833 248.515 152.034 248.133 152.271 247.801C152.508 247.47 152.772 247.221 153.064 247.052C153.355 246.883 153.619 246.825 153.857 246.877C154.093 246.931 154.295 247.07 154.462 247.293C154.628 247.516 154.757 247.817 154.849 248.194C154.939 248.573 154.986 248.998 154.986 249.47V250.094C154.986 250.196 154.965 250.297 154.923 250.393C154.882 250.491 154.833 250.558 154.774 250.591L152.165 252.098C152.165 252.311 152.191 252.483 152.24 252.616C152.289 252.751 152.355 252.849 152.439 252.911C152.522 252.974 152.619 253.002 152.728 252.994C152.837 252.987 152.95 252.949 153.064 252.883C153.23 252.788 153.365 252.68 153.47 252.559C153.574 252.439 153.66 252.314 153.728 252.181C153.785 252.075 153.832 251.996 153.869 251.947C153.905 251.898 153.955 251.857 154.018 251.821L154.643 251.46C154.699 251.428 154.75 251.435 154.795 251.482C154.839 251.531 154.859 251.608 154.853 251.713C154.848 251.846 154.808 252.035 154.733 252.283C154.658 252.53 154.544 252.794 154.393 253.076C154.242 253.358 154.056 253.632 153.835 253.898C153.614 254.164 153.357 254.382 153.066 254.55C152.774 254.719 152.51 254.781 152.273 254.739C152.036 254.695 151.834 254.554 151.668 254.317C151.501 254.08 151.374 253.758 151.285 253.35C151.195 252.944 151.15 252.462 151.15 251.906ZM153.065 248.717C152.913 248.805 152.785 248.92 152.678 249.059C152.571 249.201 152.481 249.353 152.408 249.52C152.335 249.688 152.28 249.858 152.24 250.034C152.201 250.21 152.176 250.369 152.165 250.514L153.931 249.495C153.921 249.363 153.901 249.229 153.873 249.091C153.845 248.955 153.798 248.844 153.732 248.756C153.667 248.67 153.58 248.618 153.474 248.6C153.367 248.583 153.231 248.622 153.065 248.717Z" fill="#FAFAFA"/>
<path d="M158.127 245.934C157.815 246.115 157.59 246.368 157.451 246.692C157.313 247.018 157.244 247.458 157.244 248.013V251.624C157.244 251.725 157.223 251.826 157.182 251.923C157.14 252.021 157.091 252.088 157.032 252.12L156.44 252.463C156.383 252.495 156.333 252.487 156.291 252.437C156.249 252.388 156.228 252.312 156.228 252.21V245.738C156.228 245.637 156.249 245.536 156.291 245.439C156.332 245.341 156.382 245.275 156.44 245.241L157.032 244.9C157.09 244.866 157.139 244.875 157.182 244.925C157.223 244.974 157.244 245.05 157.244 245.152V245.472C157.379 245.171 157.524 244.917 157.678 244.707C157.831 244.498 158.032 244.322 158.283 244.177L158.634 243.974C158.691 243.942 158.74 243.95 158.783 244C158.824 244.049 158.845 244.126 158.845 244.227V245.144C158.845 245.246 158.824 245.346 158.783 245.444C158.741 245.542 158.692 245.609 158.634 245.641L158.127 245.934Z" fill="#FAFAFA"/>
<path d="M165.587 245.447C165.644 245.414 165.693 245.423 165.736 245.473C165.777 245.522 165.798 245.599 165.798 245.7V246.687C165.798 246.788 165.777 246.889 165.736 246.986C165.694 247.084 165.645 247.15 165.587 247.183L162.165 249.159C162.107 249.192 162.059 249.183 162.016 249.133C161.975 249.084 161.954 249.008 161.954 248.906V239.934C161.954 239.833 161.975 239.733 162.016 239.635C162.058 239.537 162.106 239.471 162.165 239.438L162.798 239.073C162.855 239.04 162.905 239.049 162.947 239.099C162.989 239.149 163.01 239.223 163.01 239.326V246.936L165.587 245.447Z" fill="#FAFAFA"/>
<path d="M168.656 238.05C168.943 237.884 169.202 237.813 169.434 237.837C169.666 237.86 169.867 237.962 170.035 238.142C170.205 238.322 170.34 238.567 170.441 238.88C170.543 239.191 170.603 239.556 170.618 239.972C170.623 240.052 170.626 240.157 170.626 240.287C170.626 240.415 170.626 240.546 170.626 240.674C170.626 240.805 170.626 240.931 170.626 241.058C170.626 241.182 170.623 241.288 170.618 241.374C170.597 241.812 170.538 242.244 170.438 242.672C170.339 243.1 170.205 243.499 170.035 243.87C169.866 244.24 169.665 244.572 169.434 244.863C169.202 245.154 168.943 245.382 168.656 245.548C168.37 245.713 168.111 245.785 167.879 245.761C167.648 245.737 167.447 245.639 167.279 245.462C167.109 245.287 166.975 245.042 166.876 244.73C166.777 244.417 166.716 244.052 166.695 243.639C166.69 243.559 166.687 243.456 166.684 243.334C166.682 243.209 166.68 243.085 166.68 242.955C166.68 242.824 166.682 242.694 166.684 242.563C166.687 242.432 166.69 242.324 166.695 242.238C166.711 241.802 166.77 241.371 166.871 240.941C166.973 240.512 167.109 240.11 167.279 239.734C167.448 239.358 167.648 239.026 167.879 238.735C168.111 238.443 168.37 238.216 168.656 238.05ZM169.603 240.629C169.587 240.351 169.549 240.135 169.488 239.979C169.428 239.824 169.355 239.716 169.265 239.656C169.177 239.596 169.081 239.576 168.977 239.594C168.873 239.612 168.765 239.653 168.656 239.716C168.548 239.778 168.441 239.862 168.337 239.964C168.233 240.065 168.136 240.198 168.048 240.36C167.96 240.523 167.884 240.716 167.825 240.94C167.766 241.164 167.728 241.425 167.712 241.72C167.707 241.798 167.703 241.893 167.701 242.005C167.698 242.117 167.696 242.234 167.696 242.354C167.696 242.474 167.698 242.591 167.701 242.705C167.703 242.82 167.707 242.908 167.712 242.97C167.728 243.247 167.766 243.464 167.825 243.618C167.884 243.774 167.96 243.881 168.048 243.941C168.136 244.001 168.233 244.022 168.337 244.003C168.441 243.985 168.548 243.943 168.656 243.881C168.765 243.818 168.873 243.736 168.977 243.634C169.081 243.532 169.177 243.401 169.265 243.238C169.354 243.075 169.428 242.882 169.488 242.658C169.548 242.433 169.586 242.173 169.603 241.877C169.607 241.811 169.61 241.718 169.61 241.602C169.61 241.486 169.61 241.367 169.61 241.247C169.61 241.129 169.61 241.012 169.61 240.902C169.61 240.79 169.607 240.7 169.603 240.629Z" fill="#FAFAFA"/>
<path d="M173.679 243.898C173.79 243.836 173.901 243.74 174.016 243.614C174.13 243.488 174.234 243.334 174.327 243.149C174.421 242.966 174.498 242.757 174.558 242.523C174.618 242.289 174.648 242.038 174.648 241.769V241.255C174.606 241.362 174.552 241.484 174.483 241.62C174.416 241.757 174.333 241.895 174.237 242.034C174.141 242.173 174.028 242.307 173.902 242.436C173.774 242.567 173.629 242.677 173.468 242.769C173.207 242.92 172.971 242.966 172.761 242.908C172.549 242.85 172.37 242.711 172.222 242.496C172.073 242.281 171.956 242.002 171.871 241.658C171.785 241.314 171.736 240.932 171.725 240.512C171.72 240.375 171.718 240.216 171.718 240.03C171.718 239.845 171.72 239.683 171.725 239.54C171.736 239.108 171.784 238.671 171.871 238.227C171.956 237.784 172.074 237.37 172.222 236.983C172.371 236.596 172.549 236.251 172.761 235.949C172.971 235.647 173.207 235.422 173.468 235.271C173.629 235.178 173.774 235.12 173.902 235.103C174.028 235.085 174.141 235.09 174.237 235.117C174.333 235.144 174.416 235.188 174.483 235.247C174.551 235.305 174.605 235.364 174.648 235.423V235.103C174.648 235.002 174.668 234.902 174.71 234.804C174.751 234.706 174.8 234.64 174.859 234.607L175.452 234.264C175.509 234.232 175.559 234.24 175.601 234.29C175.643 234.339 175.664 234.416 175.664 234.517V241.031C175.664 242.151 175.487 243.097 175.136 243.87C174.785 244.643 174.299 245.207 173.678 245.565C173.413 245.719 173.167 245.798 172.94 245.805C172.714 245.81 172.517 245.757 172.351 245.645C172.184 245.533 172.052 245.373 171.952 245.166C171.854 244.959 171.798 244.719 171.788 244.448C171.782 244.35 171.802 244.25 171.847 244.151C171.89 244.051 171.941 243.984 171.999 243.951L172.53 243.645C172.603 243.603 172.665 243.611 172.717 243.669C172.769 243.726 172.814 243.781 172.85 243.836C172.917 243.954 173.01 244.031 173.127 244.064C173.247 244.099 173.43 244.043 173.679 243.898ZM172.742 239.051C172.726 239.32 172.726 239.579 172.742 239.83C172.773 240.412 172.878 240.786 173.055 240.946C173.231 241.109 173.448 241.115 173.702 240.968C173.957 240.82 174.172 240.562 174.347 240.193C174.522 239.825 174.622 239.382 174.648 238.867C174.658 238.722 174.664 238.544 174.664 238.33C174.664 238.117 174.658 237.945 174.648 237.812C174.622 237.345 174.522 237.024 174.347 236.846C174.172 236.669 173.957 236.654 173.702 236.802C173.447 236.948 173.23 237.207 173.055 237.573C172.878 237.939 172.774 238.433 172.742 239.051Z" fill="#FAFAFA"/>
<path d="M177.976 230.17C178.033 230.136 178.083 230.145 178.124 230.194C178.166 230.244 178.187 230.321 178.187 230.422V231.505C178.187 231.607 178.166 231.707 178.124 231.805C178.083 231.903 178.033 231.969 177.976 232.003L177.305 232.39C177.248 232.422 177.198 232.414 177.156 232.364C177.114 232.314 177.093 232.238 177.093 232.136V231.053C177.093 230.952 177.114 230.851 177.156 230.753C177.197 230.656 177.247 230.589 177.305 230.557L177.976 230.17ZM178.149 239.555C178.149 239.657 178.128 239.758 178.086 239.854C178.045 239.952 177.995 240.019 177.937 240.052L177.345 240.394C177.288 240.427 177.238 240.418 177.196 240.368C177.154 240.32 177.133 240.243 177.133 240.141V233.67C177.133 233.568 177.154 233.467 177.196 233.371C177.237 233.273 177.287 233.206 177.345 233.173L177.937 232.831C177.994 232.798 178.044 232.807 178.086 232.857C178.128 232.905 178.149 232.981 178.149 233.084V239.555Z" fill="#FAFAFA"/>
<path d="M183.429 236.507C183.429 236.608 183.408 236.709 183.368 236.806C183.326 236.904 183.277 236.97 183.219 237.003L182.625 237.346C182.568 237.378 182.519 237.37 182.476 237.32C182.434 237.271 182.414 237.195 182.414 237.093V233.565C182.414 233.01 182.342 232.607 182.195 232.358C182.049 232.109 181.826 232.071 181.523 232.246C181.247 232.405 181.03 232.698 180.871 233.122C180.712 233.547 180.633 234.038 180.633 234.593V238.121C180.633 238.222 180.612 238.323 180.571 238.42C180.529 238.518 180.48 238.585 180.422 238.617L179.829 238.96C179.772 238.992 179.721 238.984 179.68 238.934C179.638 238.885 179.617 238.808 179.617 238.707V232.235C179.617 232.134 179.638 232.033 179.68 231.936C179.721 231.838 179.771 231.772 179.829 231.738L180.422 231.397C180.479 231.363 180.528 231.372 180.571 231.422C180.612 231.471 180.633 231.548 180.633 231.649V231.969C180.769 231.65 180.927 231.36 181.11 231.097C181.292 230.834 181.508 230.631 181.759 230.487C182.076 230.303 182.342 230.237 182.555 230.29C182.769 230.343 182.94 230.48 183.07 230.701C183.201 230.922 183.293 231.215 183.348 231.576C183.402 231.938 183.429 232.337 183.429 232.772V236.507Z" fill="#FAFAFA"/>
<path d="M233.875 207.402L224.161 213.01L225.666 199.386C224.504 198.772 223.764 197.26 223.764 195.09C223.764 191.221 226.116 186.727 229.018 185.051C231.919 183.376 234.271 185.154 234.271 189.023C234.271 191.193 233.531 193.56 232.369 195.516L233.875 207.402Z" fill="#455A64"/>
<path d="M233.875 207.402L225.326 202.467L224.161 213.01L233.875 207.402Z" fill="#37474F"/>
<path d="M229.019 185.051C227.12 186.147 225.462 188.452 224.539 190.997L232.371 195.519V195.517C233.533 193.561 234.273 191.195 234.273 189.024C234.272 185.155 231.92 183.376 229.019 185.051Z" fill="#37474F"/>
<path d="M181.796 139.704C178.474 137.781 173.884 138.054 168.811 140.983C158.672 146.838 150.453 161.075 150.455 172.783C150.456 178.658 152.527 182.777 155.871 184.685C156.741 185.182 161.463 187.929 162.34 188.436C165.662 190.356 170.25 190.082 175.32 187.155C185.458 181.301 193.676 167.064 193.676 155.355C193.676 149.504 191.622 145.395 188.303 143.477" fill="#27DEBF"/>
<path d="M175.317 144.755C165.179 150.612 156.959 164.847 156.961 176.554C156.962 188.262 165.182 193.008 175.32 187.154C185.458 181.3 193.687 167.063 193.676 155.354C193.666 143.648 185.446 138.902 175.317 144.755Z" fill="#27DEBF"/>
<path d="M185.454 170.731V172.067C182.84 176.529 179.262 180.414 175.318 182.685C171.367 184.963 167.797 185.212 165.182 183.758V180.99C165.182 175.645 168.811 169.357 173.441 166.677L176.106 165.143C178.472 163.777 180.765 163.602 182.569 164.646C184.41 165.707 185.454 167.92 185.454 170.731Z" fill="#27DEBF"/>
<path opacity="0.4" d="M181.796 139.704L188.303 143.475C184.979 141.551 180.389 141.823 175.319 144.753C168.68 148.59 162.864 156.02 159.64 163.979L153.133 160.204C156.357 152.245 162.17 144.815 168.812 140.981C173.885 138.055 178.475 137.781 181.796 139.704Z" fill="white"/>
<path opacity="0.2" d="M162.095 188.293C160.949 187.631 156.673 185.141 155.869 184.683C152.525 182.776 150.453 178.657 150.453 172.783L156.96 176.558C156.964 182.264 158.92 186.317 162.095 188.293Z" fill="black"/>
<path opacity="0.1" d="M153.133 160.205L159.64 163.98C157.939 168.176 156.961 172.517 156.961 176.554V176.557L150.454 172.782C150.454 168.742 151.435 164.398 153.133 160.205Z" fill="black"/>
<path d="M173.01 164.521C172.374 164.521 171.781 164.368 171.244 164.061C170.007 163.346 169.326 161.931 169.326 160.078C169.326 156.685 171.628 152.696 174.569 150.999V150.996C176.168 150.069 177.73 149.954 178.976 150.668C180.213 151.383 180.894 152.798 180.894 154.651C180.894 158.044 178.592 162.033 175.654 163.73C174.742 164.255 173.844 164.521 173.01 164.521Z" fill="white"/>
<path d="M182.569 164.648C180.765 163.604 178.472 163.779 176.106 165.145L173.441 166.679C168.811 169.359 165.182 175.646 165.182 180.992V183.76C167.796 185.213 171.367 184.965 175.318 182.687C179.261 180.416 182.839 176.531 185.454 172.069V170.733C185.454 167.92 184.41 165.707 182.569 164.648Z" fill="white"/>
<path d="M388.154 337.648C388.154 337.648 389.482 325.969 395.291 316.905C401.101 307.841 409.083 302.184 416.531 301.595C423.979 301.006 429.995 307.858 422.025 312.564C414.056 317.27 399.897 322.072 393.381 339.672L388.154 337.648Z" fill="#27DEBF"/>
<path opacity="0.1" d="M388.154 337.648C388.154 337.648 389.482 325.969 395.291 316.905C401.101 307.841 409.083 302.184 416.531 301.595C423.979 301.006 429.995 307.858 422.025 312.564C414.056 317.27 399.897 322.072 393.381 339.672L388.154 337.648Z" fill="black"/>
<path d="M390.338 334.615C390.311 334.61 390.285 334.603 390.259 334.592C390.055 334.51 389.957 334.278 390.04 334.074C397.9 314.717 412.863 306.634 419.677 305.065C419.89 305.014 420.104 305.15 420.154 305.363C420.203 305.578 420.07 305.791 419.856 305.84C413.181 307.377 398.514 315.32 390.777 334.373C390.705 334.551 390.519 334.648 390.338 334.615Z" fill="white"/>
<path d="M430.124 334.844C429.45 336.364 427.79 337.156 426.245 337.778C424.709 338.394 423.025 339.068 422.191 340.505C420.51 343.409 423.27 347.491 421.465 350.319C420.707 351.504 419.299 352.129 417.914 352.377C416.763 352.592 415.592 352.591 414.425 352.689C413.864 352.677 413.308 352.637 412.766 352.56C411.165 352.328 409.428 352.253 407.961 353.072C405.653 354.369 404.944 357.283 403.543 359.53C401.862 362.22 398.891 363.982 395.769 364.406C394.732 364.543 392.803 364.73 391.746 364.141C391.663 364.095 391.595 364.052 391.528 364.002C391.521 364.001 391.515 363.992 391.509 363.983C391.364 363.819 391.182 363.611 391.103 363.498C391.083 363.479 391.073 363.455 391.062 363.43C390.653 361.924 391.321 360.357 391.347 358.802C391.35 358.704 391.351 358.613 391.345 358.52C391.281 356.712 391.23 354.914 391.187 353.111C391.103 349.793 391.065 346.468 391.088 343.146C391.111 340.989 390.851 338.627 391.764 336.595C392.775 334.36 395.288 334.311 396.238 332.118C396.619 331.244 396.821 330.307 397.189 329.423C398.288 326.831 400.951 324.968 403.769 324.83C408.156 324.607 412.094 328.159 416.476 327.836C417.611 327.747 418.717 327.402 419.835 327.196C423.389 326.531 427.496 327.542 429.494 330.55C430.331 331.807 430.735 333.464 430.124 334.844Z" fill="#27DEBF"/>
<path d="M390.704 356.519C390.694 356.517 390.684 356.515 390.674 356.512C390.475 356.459 390.356 356.254 390.409 356.054C396.471 333.31 420.435 330.023 426.042 330.428C426.245 330.444 426.403 330.622 426.388 330.828C426.373 331.034 426.194 331.189 425.988 331.174C420.504 330.778 397.064 333.994 391.132 356.247C391.082 356.437 390.894 356.554 390.704 356.519Z" fill="white"/>
<path d="M417.33 344.994C417.257 344.981 417.188 344.946 417.132 344.889C417.072 344.828 410.96 338.803 400.824 340.295C400.62 340.322 400.429 340.184 400.399 339.979C400.369 339.774 400.511 339.584 400.715 339.554C411.243 338.006 417.601 344.298 417.665 344.362C417.81 344.509 417.809 344.746 417.662 344.891C417.571 344.981 417.446 345.015 417.33 344.994Z" fill="white"/>
<path d="M333.115 63.0059L336.297 64.2299V57.2189C336.297 51.6609 340.73 50.3289 345.543 53.1069C350.356 55.8859 354.258 62.6439 354.258 68.2019V69.2199C355.35 68.7839 356.76 68.9529 358.302 69.8439C361.766 71.8439 364.573 76.7069 364.573 80.7059V81.1689L369.01 83.7309C371.291 85.0479 373.14 88.2509 373.14 90.8839C373.14 93.5179 371.291 94.5849 369.01 93.2679L333.113 72.5429C330.832 71.2259 328.983 68.0239 328.983 65.3899C328.985 62.7559 330.834 61.6889 333.115 63.0059Z" fill="#E6E6E6"/>
<path d="M375.706 57.464L381.475 60.795C381.446 60.537 381.426 60.282 381.426 60.031V58.36C381.426 55.386 383.514 54.18 386.09 55.667C387.133 56.269 388.093 57.224 388.87 58.34C389.292 54.6 392.226 53.207 395.79 55.265C399.644 57.49 402.768 62.901 402.768 67.35V69.851C402.768 71.004 402.555 71.974 402.177 72.748L406.969 75.515C408.398 76.34 409.556 78.346 409.556 79.996C409.556 81.646 408.398 82.315 406.969 81.49L375.705 63.44C374.276 62.615 373.118 60.609 373.118 58.959C373.119 57.308 374.277 56.639 375.706 57.464Z" fill="#E6E6E6"/>
<path d="M353.368 209.232C349.168 216.333 345.127 222.502 342.29 225.459C336.903 227.965 324.245 231.817 319.292 232.462C318.414 232.576 317.532 232.352 316.806 231.877C314.859 230.601 313.353 230.394 311.3 229.683C309.693 229.127 309.012 228.359 308.71 228.651C308.322 229.026 307.899 230.093 308.878 231.198C309.37 231.753 310.267 232.36 311.422 233.101C311.422 233.101 307.881 234.046 304.718 233.216C300.431 232.091 298.407 234.152 301.306 238.807C302.344 240.474 306.432 243.143 314.716 242.422C317.103 242.215 320.547 242.015 323.518 241.381C331.464 239.685 340.296 238.042 345.726 236.42C347.096 236.011 349.543 234.426 351 232.765C360.134 222.353 363.159 214.935 367.163 208.193L366.817 197.176C360.344 196.975 356.882 203.289 353.368 209.232Z" fill="#FFA8A7"/>
<path d="M367.934 196.975C367.934 196.975 362.281 195.773 358.032 201.209C353.586 206.898 345.725 220.561 345.725 220.561C345.725 220.561 348.304 227.412 355.243 228.538L366.391 213.48C366.391 213.48 371.67 203.057 367.934 196.975Z" fill="#455A64"/>
<path d="M392.036 350.536H384.769V363.494H392.036V350.536Z" fill="#FFA8A7"/>
<path d="M366.839 349.845L359.576 350.105L359.212 336.392L366.839 336.132V349.845Z" fill="#FFA8A7"/>
<path d="M393.06 238.347C393.06 245.575 391.996 303.745 391.996 303.745C392.165 305.825 394.037 309.66 393.632 317.648C393.081 328.5 392.347 357.016 392.347 357.016C392.347 357.016 388.819 359.163 384.255 357.182C384.255 357.182 378.363 317.221 377.061 306.468C375.925 297.083 373.014 265.948 373.014 265.948L369.075 302.689C369.075 302.689 370.415 308.286 369.976 314.718C369.636 319.692 367.299 345.597 367.299 345.597C367.299 345.597 363.878 348.015 358.908 346.266C358.908 346.266 354.774 307.253 354.69 302.689C354.594 297.486 357.107 238.27 357.107 238.27L393.06 238.347Z" fill="#37474F"/>
<path d="M384.769 359.758V358.676C384.074 358.991 382.458 365.412 379.574 368.151C377.282 370.329 374.155 372.844 373.359 375.272C372.532 377.797 377.714 379.191 379.855 378.796C382.343 378.337 386.657 376.512 387.739 374.82C388.822 373.128 389.329 370.632 390.208 369.393C391.088 368.153 393.116 366.769 393.592 365.334C393.853 364.546 393.543 362.819 393.176 361.361C392.839 360.023 392.474 358.551 392.035 358.677C392.034 358.84 392.035 359.502 392.035 359.502C391.507 360.111 390.048 360.715 388.402 360.781C387.34 360.822 384.76 360.602 384.769 359.758Z" fill="#263238"/>
<path d="M359.499 347.771C359.121 347.785 358.814 348.339 357.982 349.278C356.976 350.412 355.331 351.635 353.707 352.482C350.986 353.901 345.695 356.083 343.301 357.207C341.805 357.909 341.875 359.791 343.421 360.862C344.967 361.933 348.7 362.705 353.183 361.66C355.625 361.091 358.804 358.742 360.816 358.869C362.828 358.996 366.593 358.966 368.078 357.899C369.563 356.833 368.969 354.556 368.549 352.599C368.091 350.463 367.518 347.133 366.839 347.279V348.015C365.965 349.393 361.456 349.954 359.537 348.939L359.499 347.771Z" fill="#263238"/>
<path d="M373.015 265.947C373.015 265.947 367.206 264.243 362.895 259.903C362.895 259.903 364.848 263.711 370.655 267.255L369.413 300.066L373.015 265.947Z" fill="#263238"/>
<path d="M388.991 198.059C388.991 198.059 394.966 199.442 394.562 210.276L393.305 227.534L393.34 253.433C387.996 259.488 364.304 259.045 356.193 252.948C356.193 252.948 357.112 222.298 357.66 210.504C358.049 202.119 359.979 197.898 368.219 196.974L378.353 197.42L388.991 198.059Z" fill="#27DEBF"/>
<path d="M381.355 175.535C381.355 181.759 376.511 186.804 370.536 186.804C364.561 186.804 361.024 181.62 359.717 175.535C357.325 164.406 364.561 164.266 370.536 164.266C376.511 164.266 381.355 169.311 381.355 175.535Z" fill="#263238"/>
<path d="M386.875 180.094C386.875 180.094 385.216 188.214 384.55 189.548C383.885 190.882 382.509 191.261 382.509 191.261L382.625 185.549L386.875 180.094Z" fill="#263238"/>
<path d="M384.793 168.461C384.793 168.461 385.983 168.163 387.247 170.138C388.331 171.831 388.577 175.634 386.876 180.094L383.75 180.468L384.793 168.461Z" fill="#263238"/>
<path d="M385.943 170.105L389.776 170.176C389.87 169.076 389.088 168.169 388.029 168.149C386.971 168.13 386.037 169.005 385.943 170.105Z" fill="#263238"/>
<path d="M386.412 169.197L389.252 166.466C388.551 165.654 387.347 165.607 386.563 166.361C385.779 167.114 385.711 168.384 386.412 169.197Z" fill="#263238"/>
<path d="M382.812 180.47C383.439 180.86 384.333 179.606 385.106 178.763C385.879 177.921 388.306 177.125 389.565 179.888C390.848 182.703 388.679 185.38 386.875 186.277C383.65 187.88 382.625 185.549 382.625 185.549L382.364 198.411C377.819 205.441 367.524 205.188 371.225 198.071L371.235 194.156C371.235 194.156 368.133 194.646 366.62 194.403C364.102 193.998 362.518 191.929 361.754 189.09C360.527 184.531 360.061 180.849 361.102 171.883C362.243 162.055 373.218 161.953 379.144 165.838C385.072 169.724 382.812 180.47 382.812 180.47Z" fill="#FFA8A7"/>
<path d="M369.131 170.349C371.753 170.087 374.345 169.554 376.972 169.36C377.541 169.318 378.122 169.293 378.673 169.442C380.686 169.986 380.426 172.326 380.746 173.961C381.296 176.776 381.753 181.548 382.812 181.569C383.127 181.575 384.326 179.504 385.106 178.764C385.611 178.285 385.697 177.252 385.806 176.613C386.006 175.446 386.114 174.263 386.203 173.084C386.279 172.086 386.379 171.07 386.375 170.068C386.37 168.944 386.392 167.8 386.113 166.702C385.859 165.705 385.393 164.959 384.711 164.182C384.645 164.107 384.578 164.033 384.511 163.96C383.218 162.566 381.569 161.521 379.818 160.799C377.305 159.763 374.582 159.35 371.878 159.073C369.174 158.796 366.449 158.646 363.786 158.098C363.631 158.066 363.465 158.034 363.317 158.09C363.085 158.179 362.984 158.448 362.937 158.691C362.702 159.925 363.257 161.275 364.294 161.986C362.482 162.13 360.402 161.186 358.656 160.713C358.362 160.633 358.028 160.558 357.767 160.716C357.587 160.825 357.481 161.025 357.417 161.225C357.269 161.689 357.302 162.19 357.368 162.673C357.563 164.1 358.049 165.51 358.929 166.65C360.195 168.291 362.279 169.771 364.334 170.183C365.957 170.51 367.472 170.514 369.131 170.349Z" fill="#263238"/>
<path d="M371.235 194.157C371.235 194.157 376.855 192.978 378.82 191.89C380.135 191.162 381.218 189.9 381.536 189.091C381.536 189.091 381.168 190.828 379.993 192.392C378.556 194.305 371.235 195.714 371.235 195.714V194.157Z" fill="#F28F8F"/>
<path d="M372.586 179.007C372.586 179.68 373.091 180.224 373.712 180.223C374.334 180.221 374.838 179.674 374.838 179.001C374.838 178.328 374.334 177.784 373.712 177.785C373.091 177.787 372.586 178.334 372.586 179.007Z" fill="#263238"/>
<path d="M374.395 174.15L376.805 175.535C377.16 174.814 376.909 173.919 376.243 173.537C375.577 173.155 374.75 173.429 374.395 174.15Z" fill="#263238"/>
<path d="M371.744 187.11L369.173 188.115C369.427 188.883 370.209 189.28 370.919 189.002C371.63 188.725 371.999 187.878 371.744 187.11Z" fill="#F28F8F"/>
<path d="M362.254 175.182L364.451 173.42C364.003 172.765 363.148 172.628 362.541 173.115C361.935 173.601 361.806 174.527 362.254 175.182Z" fill="#263238"/>
<path d="M363.219 178.673C363.219 179.346 363.723 179.89 364.345 179.888C364.967 179.886 365.471 179.339 365.471 178.666C365.471 177.993 364.967 177.449 364.345 177.45C363.723 177.453 363.219 178 363.219 178.673Z" fill="#263238"/>
<path d="M369.246 177.731L369.115 184.845L365.078 183.919L369.246 177.731Z" fill="#F28F8F"/>
<path d="M273.314 237.276L279.578 233.66L282.061 230.653L275.797 234.27L273.314 237.276Z" fill="#27DEBF"/>
<path opacity="0.4" d="M273.314 237.276L279.578 233.66L282.061 230.653L275.797 234.27L273.314 237.276Z" fill="black"/>
<path d="M290.361 247.118L296.625 243.502L301.861 238.868L295.596 242.484L290.361 247.118Z" fill="#27DEBF"/>
<path opacity="0.4" d="M290.361 247.118L296.625 243.502L301.861 238.868L295.596 242.484L290.361 247.118Z" fill="black"/>
<path d="M343.623 259.615C344.996 261.362 345.998 263.929 346.213 266.432C344.839 264.685 343.838 262.118 343.623 259.615ZM358.186 259.804C356.079 245.452 348.368 231.255 339.177 225.95C334.767 223.4 330.685 223.308 327.416 225.22C326.46 225.775 322.913 227.821 321.515 228.623C321.402 228.685 321.289 228.746 321.186 228.818C320.929 228.962 320.672 229.126 320.425 229.301C319.952 229.63 319.5 230 319.068 230.422C319.006 230.473 318.944 230.545 318.873 230.607C318.688 230.792 318.503 230.998 318.328 231.203C318.112 231.45 317.896 231.707 317.701 231.974C317.29 232.519 316.899 233.105 316.55 233.742C316.375 234.05 316.2 234.379 316.036 234.719L264.52 204.978L258.259 208.586V212.575L258.793 212.883L259.287 213.171V214.014L258.259 214.61V216.933L265.825 232.95L273.309 237.278L275.797 234.266L282.397 238.214L286.19 244.711L290.364 247.117L295.597 242.481L302.022 246.192L304.181 255.095L314.945 261.305C315.49 263.587 316.179 265.818 316.981 267.998C317.053 268.224 317.135 268.45 317.228 268.697C320.806 278.104 326.501 286.153 332.916 289.864C333.739 290.337 334.54 290.728 335.332 291.026C335.785 291.211 336.237 291.355 336.679 291.478C337.08 291.591 337.481 291.684 337.882 291.745C339.208 291.981 340.493 291.971 341.696 291.735C341.871 291.694 342.046 291.653 342.22 291.612C342.467 291.561 342.713 291.489 342.95 291.396C343.135 291.324 343.32 291.252 343.505 291.18C343.7 291.108 343.896 291.015 344.081 290.913C344.266 290.831 344.441 290.738 344.616 290.635C344.708 290.584 344.801 290.532 344.883 290.481C344.924 290.471 344.965 290.44 345.007 290.409C346.436 289.587 349.962 287.551 350.918 287.006C355.678 284.251 358.762 277.27 358.762 267.401C358.761 264.893 358.566 262.344 358.186 259.804Z" fill="#27DEBF"/>
<path d="M341.786 271.721C339.315 270.294 337.311 266.053 337.311 262.248C337.311 258.443 339.315 256.515 341.786 257.942C344.257 259.369 346.261 263.61 346.261 267.415C346.26 271.22 344.257 273.148 341.786 271.721ZM351.925 263.413C349.818 249.072 342.107 234.874 332.916 229.57C328.66 227.113 324.723 226.928 321.515 228.624C321.402 228.686 321.289 228.747 321.186 228.819C320.929 228.963 320.672 229.127 320.425 229.302C319.952 229.631 319.5 230.001 319.068 230.423C319.006 230.474 318.944 230.546 318.873 230.608C318.688 230.793 318.503 230.999 318.328 231.204C318.112 231.451 317.896 231.708 317.701 231.975C317.29 232.52 316.899 233.106 316.55 233.743C316.375 234.051 316.2 234.38 316.036 234.72C315.183 236.468 314.504 238.503 314.052 240.806L258.26 208.587V212.576L258.794 212.884L259.288 213.172V214.015L258.26 214.611V216.934L265.826 232.951L273.31 237.279L275.798 234.267L282.398 238.215L286.191 244.712L290.365 247.118L295.598 242.482L302.023 246.193L304.182 255.096L314.946 261.306C315.491 263.588 316.18 265.819 316.982 267.999C317.054 268.225 317.136 268.451 317.229 268.698C320.807 278.105 326.502 286.154 332.917 289.865C333.74 290.338 334.541 290.729 335.333 291.027C335.786 291.212 336.238 291.356 336.68 291.479C337.081 291.592 337.482 291.685 337.883 291.746C339.209 291.982 340.494 291.972 341.697 291.736C341.872 291.695 342.047 291.654 342.221 291.613C342.468 291.562 342.714 291.49 342.951 291.397C343.136 291.325 343.321 291.253 343.506 291.181C343.701 291.109 343.897 291.016 344.082 290.914C344.267 290.832 344.442 290.739 344.617 290.636C344.709 290.585 344.802 290.533 344.884 290.482C344.925 290.472 344.966 290.441 345.008 290.41C349.572 287.532 352.503 280.654 352.503 271.021C352.501 268.512 352.295 265.962 351.925 263.413Z" fill="#27DEBF"/>
<path opacity="0.4" d="M346.26 267.412C346.26 271.216 344.255 273.149 341.788 271.72C339.31 270.291 337.306 266.055 337.306 262.252C337.306 258.449 339.311 256.516 341.788 257.945C342.446 258.325 343.073 258.901 343.618 259.621C343.834 262.119 344.841 264.689 346.209 266.437C346.25 266.764 346.26 267.093 346.26 267.412Z" fill="black"/>
<path opacity="0.4" d="M358.761 267.402C358.761 277.271 355.677 284.252 350.917 287.007C349.961 287.552 346.435 289.587 345.006 290.41C349.57 287.532 352.501 280.654 352.501 271.021C352.501 268.513 352.295 265.963 351.925 263.414C349.818 249.073 342.107 234.875 332.916 229.571C328.66 227.114 324.723 226.929 321.515 228.625C322.913 227.823 326.46 225.777 327.416 225.222C330.685 223.31 334.767 223.402 339.177 225.952C348.368 231.257 356.078 245.454 358.186 259.806C358.566 262.344 358.761 264.893 358.761 267.402Z" fill="white"/>
<path d="M352.501 271.02C352.501 280.653 349.571 287.531 345.006 290.409C346.435 289.587 349.961 287.551 350.917 287.006C355.677 284.251 358.761 277.27 358.761 267.401C358.761 267.037 358.748 266.67 358.74 266.304C356.589 267.546 354.414 268.801 352.478 269.919C352.487 270.287 352.501 270.655 352.501 271.02Z" fill="#27DEBF"/>
<path opacity="0.1" d="M352.501 271.02C352.501 280.653 349.571 287.531 345.006 290.409C346.435 289.587 349.961 287.551 350.917 287.006C355.677 284.251 358.761 277.27 358.761 267.401C358.761 267.037 358.748 266.67 358.74 266.304C356.589 267.546 354.414 268.801 352.478 269.919C352.487 270.287 352.501 270.655 352.501 271.02Z" fill="black"/>
<path opacity="0.15" d="M314.278 244.918V246.954L258.26 214.611L259.288 214.015V213.172L314.278 244.918Z" fill="black"/>
<path opacity="0.15" d="M314.278 245.761V246.954L258.26 214.611L259.288 214.015V214.005L314.278 245.761Z" fill="black"/>
<path opacity="0.15" d="M341.034 286.189C348.843 283.792 351.538 270.002 347.053 255.389C342.569 240.775 332.602 230.871 324.793 233.268C316.983 235.665 314.288 249.455 318.773 264.068C323.258 278.682 333.225 288.585 341.034 286.189Z" stroke="black" stroke-miterlimit="10"/>
<path opacity="0.4" d="M316.036 234.72C315.183 236.468 314.504 238.503 314.052 240.806L258.26 208.587L264.521 204.979L316.036 234.72Z" fill="white"/>
<path d="M388.506 237.853C391.432 232.32 394.767 219.9 396.428 213.632C398.787 204.729 394.969 199.127 390.635 198.902C387.917 199.316 378.993 231.791 378.993 231.791C378.004 232.582 364.421 239.465 360.057 241.195C359.284 241.502 358.423 241.489 357.641 241.204C355.545 240.439 354.118 240.584 352.067 240.378C350.461 240.217 349.648 239.646 349.445 239.99C349.185 240.432 349.064 241.535 350.233 242.357C350.821 242.771 351.792 243.14 353.031 243.579C353.031 243.579 350.711 244.383 347.616 244.315C343.421 244.222 341.911 246.045 345.165 250.297C347.204 252.961 350.482 253.801 357.865 251.248C359.992 250.512 362.874 249.082 365.556 248.108C371.102 246.093 372.526 245.875 376.783 244.442C382.926 242.373 387.207 240.308 388.506 237.853Z" fill="#FFA8A7"/>
<path d="M388.991 198.059C391.543 198.408 394.017 198.985 395.501 201.047C396.985 203.109 398.222 206.017 396.738 214.005C395.254 221.993 392.201 230.479 392.201 230.479C392.201 230.479 386.265 233.016 379.95 226.58L384.286 209.801C384.286 209.801 385.028 198.901 388.991 198.059Z" fill="#455A64"/>
</svg>
